<svg width="1342" height="672" viewbox = "0 0 1342 672"  xmlns="http://www.w3.org/2000/svg" style = "border:solid;">
    <line x1="681" y1="179" x2="681" y2="158" style="stroke:black;stroke-width:2" />
    <line x1="681" y1="158" x2="661" y2="158" style="stroke:black;stroke-width:2" />
    <line x1="661" y1="158" x2="661" y2="179" style="stroke:black;stroke-width:2" />
    <line x1="661" y1="179" x2="681" y2="179" style="stroke:black;stroke-width:2" />
    <line x1="681" y1="179" x2="661" y2="158" style="stroke:black;stroke-width:2" />
    <line x1="661" y1="179" x2="681" y2="158" style="stroke:black;stroke-width:2" />
    <circle cx="661" cy = "273" r = "10.484375" stroke = "black" stroke-width = "2" fill = "none" />
<circle cx="661" cy = "273" r = "3" stroke = "black" stroke-width = "2" fill = "black" />
<path    d = "M619,284 C619,273 612,257 608,247" fill = "none" stroke-width = "2" stroke = "black" /><path    d = "M608,247 C604,237 581,236 577,226" fill = "none" stroke-width = "2" stroke = "black" /><path    d = "M577,226 C573,216 573,216 582,212" fill = "none" stroke-width = "2" stroke = "black" /><path    d = "M582,212 C592,208 606,214 615,210" fill = "none" stroke-width = "2" stroke = "black" /><path    d = "M615,210 C625,206 607,190 617,186" fill = "none" stroke-width = "2" stroke = "black" /><path    d = "M617,186 C627,182 640,188 644,198" fill = "none" stroke-width = "2" stroke = "black" /><path    d = "M644,198 C635,202 640,200 642,205" fill = "none" stroke-width = "2" stroke = "black" /><path    d = "M642,205 C646,214 649,207 657,227" fill = "none" stroke-width = "2" stroke = "black" /><path    d = "M657,227 C666,223 676,219 692,258" fill = "none" stroke-width = "2" stroke = "black" /><path    d = "M692,258 C653,274 669,256 649,264" fill = "none" stroke-width = "2" stroke = "black" /><path    d = "M649,264 C630,272 663,270 624,286" fill = "none" stroke-width = "2" stroke = "black" /><path    d = "M802,593 C781,593 761,426 634,299" fill = "none" stroke-width = "2" stroke = "black" /><path    d = "M634,299 C623,288 625,290 641,290" fill = "none" stroke-width = "2" stroke = "black" />	<path d = "M485 412 L472 381 L438 383 L430 416 L459 434 L485 412 Z" stroke = "black" stroke-width = "2" fill = "none" /><path    d = "M802,593 C817,593 807,509 807,467" fill = "none" stroke-width = "2" stroke = "black" /><path    d = "M807,467 C807,425 797,401 781,362" fill = "none" stroke-width = "2" stroke = "black" /><path    d = "M781,362 C765,323 750,326 720,297" fill = "none" stroke-width = "2" stroke = "black" /><path    d = "M720,297 C690,267 705,273 705,252" fill = "none" stroke-width = "2" stroke = "black" />    <line x1="797" y1="672" x2="952" y2="736" style="stroke:black;stroke-width:2" />
    <line x1="952" y1="736" x2="1189" y2="973" style="stroke:black;stroke-width:2" />
<path    d = "M1189,973 C1248,1032 1261,1045 1261,1128" fill = "none" stroke-width = "2" stroke = "black" />    <line x1="1261" y1="1128" x2="1351" y2="1348" style="stroke:black;stroke-width:2" />
    <line x1="1351" y1="1348" x2="1351" y2="1683" style="stroke:black;stroke-width:2" />
<path    d = "M1351,1683 C1351,1802 1351,1886 1470,1767" fill = "none" stroke-width = "2" stroke = "black" />  <path d="M663.13671875 93.13769843199458           A14.827145318005417 14.827145318005417 0 0 1 663.13671875 122.79198906800542" fill = "none" stroke = "black" stroke-width = "2" />
  <path d="M652.0163597614959 122.79198906800542           A14.827145318005417 14.827145318005417 0 0 1 652.0163597614959 93.13769843199458" fill = "none" stroke = "black" stroke-width = "2" />
  <path d="M672.0856925795013 78.31055311398916           A14.827145318005417 14.827145318005417 0 0 1 642.4314019434905 78.31055311398916" fill = "none" stroke = "black" stroke-width = "2" />
    <line x1="642" y1="78" x2="642" y2="49" style="stroke:black;stroke-width:2" />
    <line x1="672" y1="78" x2="672" y2="49" style="stroke:black;stroke-width:2" />
    <line x1="683" y1="68" x2="683" y2="57" style="stroke:black;stroke-width:2" />
    <line x1="683" y1="57" x2="672" y2="57" style="stroke:black;stroke-width:2" />
    <line x1="672" y1="57" x2="672" y2="68" style="stroke:black;stroke-width:2" />
    <line x1="672" y1="68" x2="683" y2="68" style="stroke:black;stroke-width:2" />
    <line x1="641" y1="68" x2="641" y2="57" style="stroke:black;stroke-width:2" />
    <line x1="641" y1="57" x2="630" y2="57" style="stroke:black;stroke-width:2" />
    <line x1="630" y1="57" x2="630" y2="68" style="stroke:black;stroke-width:2" />
    <line x1="630" y1="68" x2="641" y2="68" style="stroke:black;stroke-width:2" />
    <circle cx="657" cy = "60" r = "7.413572659002708" stroke = "black" stroke-width = "2" fill = "none" />
<circle cx="657" cy = "60" r = "3" stroke = "black" stroke-width = "2" fill = "black" />
    <line x1="665" y1="60" x2="672" y2="60" style="stroke:black;stroke-width:2" />
    <line x1="650" y1="60" x2="642" y2="60" style="stroke:black;stroke-width:2" />
    <line x1="672" y1="46" x2="642" y2="46" style="stroke:black;stroke-width:2" />
    <line x1="665" y1="123" x2="650" y2="123" style="stroke:black;stroke-width:2" />
    <line x1="634" y1="535" x2="643" y2="703" style="stroke:black;stroke-width:2" />
    <line x1="634" y1="535" x2="578" y2="693" style="stroke:black;stroke-width:2" />
    <line x1="578" y1="515" x2="619" y2="678" style="stroke:black;stroke-width:2" />
    <line x1="578" y1="515" x2="672" y2="655" style="stroke:black;stroke-width:2" />
    <line x1="581" y1="589" x2="578" y2="579" style="stroke:black;stroke-width:2" />
    <line x1="578" y1="579" x2="568" y2="582" style="stroke:black;stroke-width:2" />
    <line x1="568" y1="582" x2="571" y2="592" style="stroke:black;stroke-width:2" />
    <line x1="571" y1="592" x2="581" y2="589" style="stroke:black;stroke-width:2" />
    <line x1="597" y1="639" x2="594" y2="629" style="stroke:black;stroke-width:2" />
    <line x1="594" y1="629" x2="583" y2="632" style="stroke:black;stroke-width:2" />
    <line x1="583" y1="632" x2="587" y2="642" style="stroke:black;stroke-width:2" />
    <line x1="587" y1="642" x2="597" y2="639" style="stroke:black;stroke-width:2" />
    <line x1="690" y1="622" x2="612" y2="654" style="stroke:black;stroke-width:2" />
    <line x1="690" y1="622" x2="666" y2="702" style="stroke:black;stroke-width:2" />
    <line x1="600" y1="649" x2="575" y2="569" style="stroke:black;stroke-width:2" />
<path    d = "M616,286 C604,304 532,221 503,192" fill = "none" stroke-width = "2" stroke = "black" /><path    d = "M503,192 C495,184 492,179 492,158" fill = "none" stroke-width = "2" stroke = "black" /><path    d = "M492,158 C432,99 451,66 451,45" fill = "none" stroke-width = "2" stroke = "black" /><path    d = "M451,45 C437,30 434,31 399,8" fill = "none" stroke-width = "2" stroke = "black" /><path    d = "M399,8 C361,-8 322,-24 303,-33" fill = "none" stroke-width = "2" stroke = "black" /><path    d = "M702,661 C702,602 671,553 661,542" fill = "none" stroke-width = "2" stroke = "black" /><path    d = "M661,542 C643,531 645,520 642,505" fill = "none" stroke-width = "2" stroke = "black" />    <line x1="642" y1="505" x2="628" y2="508" style="stroke:black;stroke-width:2" />
    <line x1="628" y1="508" x2="620" y2="520" style="stroke:black;stroke-width:2" />
    <line x1="620" y1="520" x2="602" y2="509" style="stroke:black;stroke-width:2" />
    <line x1="602" y1="509" x2="642" y2="496" style="stroke:black;stroke-width:2" />
<path    d = "M642,496 C656,470 642,436 604,390" fill = "none" stroke-width = "2" stroke = "black" /><path    d = "M598,378 C577,357 568,336 547,357" fill = "none" stroke-width = "2" stroke = "black" /><path    d = "M543,353 C564,332 536,319 494,277" fill = "none" stroke-width = "2" stroke = "black" /><path    d = "M494,277 C452,235 453,233 420,184" fill = "none" stroke-width = "2" stroke = "black" /><path    d = "M420,184 C403,159 411,164 382,158" fill = "none" stroke-width = "2" stroke = "black" /><path    d = "M382,158 C372,156 353,77 341,49" fill = "none" stroke-width = "2" stroke = "black" /><path    d = "M341,49 C341,20 312,20 282,20" fill = "none" stroke-width = "2" stroke = "black" />    <line x1="524" y1="173" x2="524" y2="163" style="stroke:black;stroke-width:2" />
    <line x1="524" y1="163" x2="514" y2="163" style="stroke:black;stroke-width:2" />
    <line x1="514" y1="163" x2="514" y2="173" style="stroke:black;stroke-width:2" />
    <line x1="514" y1="173" x2="524" y2="173" style="stroke:black;stroke-width:2" />
    <circle cx="519" cy = "168" r = "14.827145318005423" stroke = "black" stroke-width = "2" fill = "none" />
    <line x1="538" y1="172" x2="597" y2="172" style="stroke:black;stroke-width:2" />
    <line x1="597" y1="172" x2="612" y2="172" style="stroke:black;stroke-width:2" />
    <line x1="612" y1="172" x2="612" y2="165" style="stroke:black;stroke-width:2" />
    <line x1="612" y1="165" x2="552" y2="165" style="stroke:black;stroke-width:2" />
    <line x1="552" y1="165" x2="538" y2="165" style="stroke:black;stroke-width:2" />
    <line x1="538" y1="165" x2="538" y2="175" style="stroke:black;stroke-width:2" />
    <line x1="493" y1="137" x2="1164" y2="137" style="stroke:black;stroke-width:2" />
    <line x1="708" y1="189" x2="875" y2="189" style="stroke:black;stroke-width:2" />
    <line x1="435" y1="210" x2="494" y2="186" style="stroke:black;stroke-width:2" />
    <circle cx="493" cy = "631" r = "20.96875" stroke = "black" stroke-width = "2" fill = "none" />
    <circle cx="493" cy = "631" r = "41.9375" stroke = "black" stroke-width = "2" fill = "none" />
    <circle cx="493" cy = "631" r = "83.875" stroke = "black" stroke-width = "2" fill = "none" />
    <circle cx="493" cy = "631" r = "167.75" stroke = "black" stroke-width = "2" fill = "none" />
    <line x1="493" y1="631" x2="493" y2="463" style="stroke:black;stroke-width:2" />
    <line x1="493" y1="631" x2="661" y2="631" style="stroke:black;stroke-width:2" />
    <line x1="493" y1="631" x2="493" y2="799" style="stroke:black;stroke-width:2" />
    <line x1="493" y1="631" x2="325" y2="631" style="stroke:black;stroke-width:2" />
<circle cx="746" cy = "48" r = "3" stroke = "black" stroke-width = "2" fill = "black" />
    <text x="751" y = "53" fill = "black" font-size = "5.2421875px" font-family = "futura">Metro Center</text>
<circle cx="624" cy = "-20" r = "3" stroke = "black" stroke-width = "2" fill = "black" />
    <text x="629" y = "-15" fill = "black" font-size = "5.2421875px" font-family = "futura">Farragut North</text>
<circle cx="582" cy = "-108" r = "3" stroke = "black" stroke-width = "2" fill = "black" />
    <text x="587" y = "-103" fill = "black" font-size = "5.2421875px" font-family = "futura">Dupont Circle</text>
<circle cx="485" cy = "-319" r = "3" stroke = "black" stroke-width = "2" fill = "black" />
    <text x="490" y = "-314" fill = "black" font-size = "5.2421875px" font-family = "futura">Woodley Park-Zoo/Adams Morgan</text>
<circle cx="425" cy = "-454" r = "3" stroke = "black" stroke-width = "2" fill = "black" />
    <text x="430" y = "-449" fill = "black" font-size = "5.2421875px" font-family = "futura">Cleveland Park</text>
<circle cx="367" cy = "-577" r = "3" stroke = "black" stroke-width = "2" fill = "black" />
    <text x="372" y = "-572" fill = "black" font-size = "5.2421875px" font-family = "futura">Van Ness-UDC</text>
<circle cx="195" cy = "-634" r = "3" stroke = "black" stroke-width = "2" fill = "black" />
    <text x="201" y = "-629" fill = "black" font-size = "5.2421875px" font-family = "futura">Tenleytown-AU</text>
<circle cx="128" cy = "-812" r = "3" stroke = "black" stroke-width = "2" fill = "black" />
    <text x="134" y = "-807" fill = "black" font-size = "5.2421875px" font-family = "futura">Friendship Heights</text>
<circle cx="37" cy = "-1137" r = "3" stroke = "black" stroke-width = "2" fill = "black" />
    <text x="42" y = "-1132" fill = "black" font-size = "5.2421875px" font-family = "futura">Bethesda</text>
<circle cx="7" cy = "-1352" r = "3" stroke = "black" stroke-width = "2" fill = "black" />
    <text x="12" y = "-1347" fill = "black" font-size = "5.2421875px" font-family = "futura">Medical Center</text>
<circle cx="-67" cy = "-1754" r = "3" stroke = "black" stroke-width = "2" fill = "black" />
    <text x="-62" y = "-1749" fill = "black" font-size = "5.2421875px" font-family = "futura">Grosvenor-Strathmore</text>
<circle cx="-163" cy = "-2014" r = "3" stroke = "black" stroke-width = "2" fill = "black" />
    <text x="-157" y = "-2009" fill = "black" font-size = "5.2421875px" font-family = "futura">White Flint</text>
<circle cx="-249" cy = "-2212" r = "3" stroke = "black" stroke-width = "2" fill = "black" />
    <text x="-244" y = "-2206" fill = "black" font-size = "5.2421875px" font-family = "futura">Twinbrook</text>
<circle cx="-519" cy = "-2513" r = "3" stroke = "black" stroke-width = "2" fill = "black" />
    <text x="-514" y = "-2508" fill = "black" font-size = "5.2421875px" font-family = "futura">Rockville</text>
<circle cx="-718" cy = "-3002" r = "3" stroke = "black" stroke-width = "2" fill = "black" />
    <text x="-713" y = "-2997" fill = "black" font-size = "5.2421875px" font-family = "futura">Shady Grove</text>
<circle cx="813" cy = "48" r = "3" stroke = "black" stroke-width = "2" fill = "black" />
    <text x="818" y = "53" fill = "black" font-size = "5.2421875px" font-family = "futura">Gallery Pl-Chinatown</text>
<circle cx="870" cy = "77" r = "3" stroke = "black" stroke-width = "2" fill = "black" />
    <text x="875" y = "82" fill = "black" font-size = "5.2421875px" font-family = "futura">Judiciary Square</text>
<circle cx="976" cy = "56" r = "3" stroke = "black" stroke-width = "2" fill = "black" />
    <text x="982" y = "61" fill = "black" font-size = "5.2421875px" font-family = "futura">Union Station</text>
<circle cx="1090" cy = "-262" r = "3" stroke = "black" stroke-width = "2" fill = "black" />
    <text x="1096" y = "-256" fill = "black" font-size = "5.2421875px" font-family = "futura">Rhode Island Ave-Brentwood</text>
<circle cx="1106" cy = "-433" r = "3" stroke = "black" stroke-width = "2" fill = "black" />
    <text x="1111" y = "-428" fill = "black" font-size = "5.2421875px" font-family = "futura">Brookland-CUA</text>
<circle cx="1025" cy = "-689" r = "3" stroke = "black" stroke-width = "2" fill = "black" />
    <text x="1030" y = "-684" fill = "black" font-size = "5.2421875px" font-family = "futura">Fort Totten</text>
<circle cx="857" cy = "-1016" r = "3" stroke = "black" stroke-width = "2" fill = "black" />
    <text x="862" y = "-1011" fill = "black" font-size = "5.2421875px" font-family = "futura">Takoma</text>
<circle cx="713" cy = "-1268" r = "3" stroke = "black" stroke-width = "2" fill = "black" />
    <text x="718" y = "-1263" fill = "black" font-size = "5.2421875px" font-family = "futura">Silver Spring</text>
<circle cx="590" cy = "-1566" r = "3" stroke = "black" stroke-width = "2" fill = "black" />
    <text x="595" y = "-1560" fill = "black" font-size = "5.2421875px" font-family = "futura">Forest Glen</text>
<circle cx="502" cy = "-1884" r = "3" stroke = "black" stroke-width = "2" fill = "black" />
    <text x="507" y = "-1879" fill = "black" font-size = "5.2421875px" font-family = "futura">Wheaton</text>
<circle cx="477" cy = "-2203" r = "3" stroke = "black" stroke-width = "2" fill = "black" />
    <text x="482" y = "-2197" fill = "black" font-size = "5.2421875px" font-family = "futura">Glenmont</text>
<circle cx="1017" cy = "-78" r = "3" stroke = "black" stroke-width = "2" fill = "black" />
    <text x="1022" y = "-73" fill = "black" font-size = "5.2421875px" font-family = "futura">NoMa-Gallaudet U</text>
<circle cx="746" cy = "48" r = "3" stroke = "black" stroke-width = "2" fill = "black" />
    <text x="751" y = "53" fill = "black" font-size = "5.2421875px" font-family = "futura">Metro Center</text>
<circle cx="687" cy = "6" r = "3" stroke = "black" stroke-width = "2" fill = "black" />
    <text x="692" y = "11" fill = "black" font-size = "5.2421875px" font-family = "futura">McPherson Square</text>
<circle cx="624" cy = "6" r = "3" stroke = "black" stroke-width = "2" fill = "black" />
    <text x="629" y = "11" fill = "black" font-size = "5.2421875px" font-family = "futura">Farragut West</text>
<circle cx="510" cy = "16" r = "3" stroke = "black" stroke-width = "2" fill = "black" />
    <text x="515" y = "21" fill = "black" font-size = "5.2421875px" font-family = "futura">Foggy Bottom-GWU</text>
<circle cx="283" cy = "70" r = "3" stroke = "black" stroke-width = "2" fill = "black" />
    <text x="288" y = "75" fill = "black" font-size = "5.2421875px" font-family = "futura">Rosslyn</text>
<circle cx="374" cy = "235" r = "3" stroke = "black" stroke-width = "2" fill = "black" />
    <text x="379" y = "240" fill = "black" font-size = "5.2421875px" font-family = "futura">Arlington Cemetery</text>
<circle cx="470" cy = "445" r = "3" stroke = "black" stroke-width = "2" fill = "black" />
    <text x="476" y = "450" fill = "black" font-size = "5.2421875px" font-family = "futura">Pentagon</text>
<circle cx="412" cy = "530" r = "3" stroke = "black" stroke-width = "2" fill = "black" />
    <text x="417" y = "535" fill = "black" font-size = "5.2421875px" font-family = "futura">Pentagon City</text>
<circle cx="506" cy = "603" r = "3" stroke = "black" stroke-width = "2" fill = "black" />
    <text x="511" y = "609" fill = "black" font-size = "5.2421875px" font-family = "futura">Crystal City</text>
<circle cx="579" cy = "669" r = "3" stroke = "black" stroke-width = "2" fill = "black" />
    <text x="585" y = "674" fill = "black" font-size = "5.2421875px" font-family = "futura">Ronald Reagan Washington National Airport</text>
<circle cx="472" cy = "1206" r = "3" stroke = "black" stroke-width = "2" fill = "black" />
    <text x="477" y = "1211" fill = "black" font-size = "5.2421875px" font-family = "futura">Braddock Road</text>
<circle cx="394" cy = "1311" r = "3" stroke = "black" stroke-width = "2" fill = "black" />
    <text x="400" y = "1316" fill = "black" font-size = "5.2421875px" font-family = "futura">King St-Old Town</text>
<circle cx="286" cy = "1395" r = "3" stroke = "black" stroke-width = "2" fill = "black" />
    <text x="291" y = "1400" fill = "black" font-size = "5.2421875px" font-family = "futura">Eisenhower Avenue</text>
<circle cx="241" cy = "1484" r = "3" stroke = "black" stroke-width = "2" fill = "black" />
    <text x="246" y = "1489" fill = "black" font-size = "5.2421875px" font-family = "futura">Huntington</text>
<circle cx="746" cy = "111" r = "3" stroke = "black" stroke-width = "2" fill = "black" />
    <text x="751" y = "116" fill = "black" font-size = "5.2421875px" font-family = "futura">Federal Triangle</text>
<circle cx="746" cy = "187" r = "3" stroke = "black" stroke-width = "2" fill = "black" />
    <text x="751" y = "192" fill = "black" font-size = "5.2421875px" font-family = "futura">Smithsonian</text>
<circle cx="813" cy = "232" r = "3" stroke = "black" stroke-width = "2" fill = "black" />
    <text x="818" y = "238" fill = "black" font-size = "5.2421875px" font-family = "futura">L'Enfant Plaza</text>
<circle cx="878" cy = "229" r = "3" stroke = "black" stroke-width = "2" fill = "black" />
    <text x="883" y = "234" fill = "black" font-size = "5.2421875px" font-family = "futura">Federal Center SW</text>
<circle cx="993" cy = "229" r = "3" stroke = "black" stroke-width = "2" fill = "black" />
    <text x="999" y = "234" fill = "black" font-size = "5.2421875px" font-family = "futura">Capitol South</text>
<circle cx="1098" cy = "242" r = "3" stroke = "black" stroke-width = "2" fill = "black" />
    <text x="1103" y = "247" fill = "black" font-size = "5.2421875px" font-family = "futura">Eastern Market</text>
<circle cx="1200" cy = "285" r = "3" stroke = "black" stroke-width = "2" fill = "black" />
    <text x="1206" y = "290" fill = "black" font-size = "5.2421875px" font-family = "futura">Potomac Ave</text>
<circle cx="1290" cy = "215" r = "3" stroke = "black" stroke-width = "2" fill = "black" />
    <text x="1295" y = "221" fill = "black" font-size = "5.2421875px" font-family = "futura">Stadium-Armory</text>
<circle cx="1604" cy = "48" r = "3" stroke = "black" stroke-width = "2" fill = "black" />
    <text x="1609" y = "53" fill = "black" font-size = "5.2421875px" font-family = "futura">Minnesota Ave</text>
<circle cx="1731" cy = "-83" r = "3" stroke = "black" stroke-width = "2" fill = "black" />
    <text x="1736" y = "-78" fill = "black" font-size = "5.2421875px" font-family = "futura">Deanwood</text>
<circle cx="1954" cy = "-204" r = "3" stroke = "black" stroke-width = "2" fill = "black" />
    <text x="1959" y = "-199" fill = "black" font-size = "5.2421875px" font-family = "futura">Cheverly</text>
<circle cx="2216" cy = "-450" r = "3" stroke = "black" stroke-width = "2" fill = "black" />
    <text x="2221" y = "-445" fill = "black" font-size = "5.2421875px" font-family = "futura">Landover</text>
<circle cx="2417" cy = "-632" r = "3" stroke = "black" stroke-width = "2" fill = "black" />
    <text x="2422" y = "-627" fill = "black" font-size = "5.2421875px" font-family = "futura">New Carrollton</text>
<circle cx="809" cy = "-53" r = "3" stroke = "black" stroke-width = "2" fill = "black" />
    <text x="814" y = "-48" fill = "black" font-size = "5.2421875px" font-family = "futura">Mt Vernon Sq 7th St-Convention Center</text>
<circle cx="811" cy = "-154" r = "3" stroke = "black" stroke-width = "2" fill = "black" />
    <text x="816" y = "-149" fill = "black" font-size = "5.2421875px" font-family = "futura">Shaw-Howard U</text>
<circle cx="738" cy = "-204" r = "3" stroke = "black" stroke-width = "2" fill = "black" />
    <text x="743" y = "-199" fill = "black" font-size = "5.2421875px" font-family = "futura">U Street/African-Amer Civil War Memorial/Cardozo</text>
<circle cx="697" cy = "-372" r = "3" stroke = "black" stroke-width = "2" fill = "black" />
    <text x="702" y = "-366" fill = "black" font-size = "5.2421875px" font-family = "futura">Columbia Heights</text>
<circle cx="784" cy = "-473" r = "3" stroke = "black" stroke-width = "2" fill = "black" />
    <text x="789" y = "-467" fill = "black" font-size = "5.2421875px" font-family = "futura">Georgia Ave-Petworth</text>
<circle cx="1025" cy = "-689" r = "3" stroke = "black" stroke-width = "2" fill = "black" />
    <text x="1030" y = "-684" fill = "black" font-size = "5.2421875px" font-family = "futura">Fort Totten</text>
<circle cx="1371" cy = "-733" r = "3" stroke = "black" stroke-width = "2" fill = "black" />
    <text x="1376" y = "-728" fill = "black" font-size = "5.2421875px" font-family = "futura">West Hyattsville</text>
<circle cx="1518" cy = "-875" r = "3" stroke = "black" stroke-width = "2" fill = "black" />
    <text x="1523" y = "-870" fill = "black" font-size = "5.2421875px" font-family = "futura">Prince George's Plaza</text>
<circle cx="1815" cy = "-1058" r = "3" stroke = "black" stroke-width = "2" fill = "black" />
    <text x="1820" y = "-1053" fill = "black" font-size = "5.2421875px" font-family = "futura">College Park-U of Md</text>
<circle cx="1997" cy = "-1504" r = "3" stroke = "black" stroke-width = "2" fill = "black" />
    <text x="2003" y = "-1499" fill = "black" font-size = "5.2421875px" font-family = "futura">Greenbelt</text>
<circle cx="813" cy = "48" r = "3" stroke = "black" stroke-width = "2" fill = "black" />
    <text x="818" y = "53" fill = "black" font-size = "5.2421875px" font-family = "futura">Gallery Pl-Chinatown</text>
<circle cx="813" cy = "108" r = "3" stroke = "black" stroke-width = "2" fill = "black" />
    <text x="818" y = "113" fill = "black" font-size = "5.2421875px" font-family = "futura">Archives-Navy Memorial-Penn Quarter</text>
<circle cx="813" cy = "232" r = "3" stroke = "black" stroke-width = "2" fill = "black" />
    <text x="818" y = "238" fill = "black" font-size = "5.2421875px" font-family = "futura">L'Enfant Plaza</text>
<circle cx="861" cy = "350" r = "3" stroke = "black" stroke-width = "2" fill = "black" />
    <text x="866" y = "356" fill = "black" font-size = "5.2421875px" font-family = "futura">Waterfront</text>
<circle cx="993" cy = "344" r = "3" stroke = "black" stroke-width = "2" fill = "black" />
    <text x="999" y = "349" fill = "black" font-size = "5.2421875px" font-family = "futura">Navy Yard-Ballpark</text>
<circle cx="1094" cy = "546" r = "3" stroke = "black" stroke-width = "2" fill = "black" />
    <text x="1100" y = "551" fill = "black" font-size = "5.2421875px" font-family = "futura">Anacostia</text>
<circle cx="1174" cy = "776" r = "3" stroke = "black" stroke-width = "2" fill = "black" />
    <text x="1179" y = "782" fill = "black" font-size = "5.2421875px" font-family = "futura">Congress Heights</text>
<circle cx="1312" cy = "834" r = "3" stroke = "black" stroke-width = "2" fill = "black" />
    <text x="1317" y = "839" fill = "black" font-size = "5.2421875px" font-family = "futura">Southern Avenue</text>
<circle cx="1514" cy = "694" r = "3" stroke = "black" stroke-width = "2" fill = "black" />
    <text x="1519" y = "699" fill = "black" font-size = "5.2421875px" font-family = "futura">Naylor Road</text>
<circle cx="1776" cy = "795" r = "3" stroke = "black" stroke-width = "2" fill = "black" />
    <text x="1781" y = "800" fill = "black" font-size = "5.2421875px" font-family = "futura">Suitland</text>
<circle cx="1989" cy = "1028" r = "3" stroke = "black" stroke-width = "2" fill = "black" />
    <text x="1995" y = "1033" fill = "black" font-size = "5.2421875px" font-family = "futura">Branch Ave</text>
<circle cx="1709" cy = "154" r = "3" stroke = "black" stroke-width = "2" fill = "black" />
    <text x="1714" y = "159" fill = "black" font-size = "5.2421875px" font-family = "futura">Benning Road</text>
<circle cx="1976" cy = "164" r = "3" stroke = "black" stroke-width = "2" fill = "black" />
    <text x="1982" y = "170" fill = "black" font-size = "5.2421875px" font-family = "futura">Capitol Heights</text>
<circle cx="2189" cy = "205" r = "3" stroke = "black" stroke-width = "2" fill = "black" />
    <text x="2194" y = "210" fill = "black" font-size = "5.2421875px" font-family = "futura">Addison Road-Seat Pleasant</text>
<circle cx="2459" cy = "143" r = "3" stroke = "black" stroke-width = "2" fill = "black" />
    <text x="2464" y = "149" fill = "black" font-size = "5.2421875px" font-family = "futura">Morgan Boulevard</text>
<circle cx="2709" cy = "11" r = "3" stroke = "black" stroke-width = "2" fill = "black" />
    <text x="2714" y = "16" fill = "black" font-size = "5.2421875px" font-family = "futura">Largo Town Center</text>
<circle cx="-337" cy = "1409" r = "3" stroke = "black" stroke-width = "2" fill = "black" />
    <text x="-332" y = "1415" fill = "black" font-size = "5.2421875px" font-family = "futura">Van Dorn Street</text>
<circle cx="-759" cy = "1864" r = "3" stroke = "black" stroke-width = "2" fill = "black" />
    <text x="-754" y = "1869" fill = "black" font-size = "5.2421875px" font-family = "futura">Franconia-Springfield</text>
<circle cx="149" cy = "142" r = "3" stroke = "black" stroke-width = "2" fill = "black" />
    <text x="155" y = "147" fill = "black" font-size = "5.2421875px" font-family = "futura">Court House</text>
<circle cx="10" cy = "210" r = "3" stroke = "black" stroke-width = "2" fill = "black" />
    <text x="16" y = "215" fill = "black" font-size = "5.2421875px" font-family = "futura">Clarendon</text>
<circle cx="-68" cy = "252" r = "3" stroke = "black" stroke-width = "2" fill = "black" />
    <text x="-63" y = "257" fill = "black" font-size = "5.2421875px" font-family = "futura">Virginia Square-GMU</text>
<circle cx="-148" cy = "268" r = "3" stroke = "black" stroke-width = "2" fill = "black" />
    <text x="-143" y = "273" fill = "black" font-size = "5.2421875px" font-family = "futura">Ballston-MU</text>
<circle cx="-634" cy = "218" r = "3" stroke = "black" stroke-width = "2" fill = "black" />
    <text x="-629" y = "223" fill = "black" font-size = "5.2421875px" font-family = "futura">East Falls Church</text>
<circle cx="-980" cy = "14" r = "3" stroke = "black" stroke-width = "2" fill = "black" />
    <text x="-975" y = "19" fill = "black" font-size = "5.2421875px" font-family = "futura">West Falls Church-VT/UVA</text>
<circle cx="-1405" cy = "256" r = "3" stroke = "black" stroke-width = "2" fill = "black" />
    <text x="-1400" y = "261" fill = "black" font-size = "5.2421875px" font-family = "futura">Dunn Loring-Merrifield</text>
<circle cx="-1861" cy = "329" r = "3" stroke = "black" stroke-width = "2" fill = "black" />
    <text x="-1856" y = "335" fill = "black" font-size = "5.2421875px" font-family = "futura">Vienna/Fairfax-GMU</text>
<circle cx="-1203" cy = "-314" r = "3" stroke = "black" stroke-width = "2" fill = "black" />
    <text x="-1198" y = "-309" fill = "black" font-size = "5.2421875px" font-family = "futura">McLean</text>
<circle cx="-1343" cy = "-252" r = "3" stroke = "black" stroke-width = "2" fill = "black" />
    <text x="-1338" y = "-247" fill = "black" font-size = "5.2421875px" font-family = "futura">Tysons Corner</text>
<circle cx="-1472" cy = "-249" r = "3" stroke = "black" stroke-width = "2" fill = "black" />
    <text x="-1467" y = "-243" fill = "black" font-size = "5.2421875px" font-family = "futura">Greensboro</text>
<circle cx="-1541" cy = "-377" r = "3" stroke = "black" stroke-width = "2" fill = "black" />
    <text x="-1536" y = "-372" fill = "black" font-size = "5.2421875px" font-family = "futura">Spring Hill</text>
<circle cx="-2595" cy = "-634" r = "3" stroke = "black" stroke-width = "2" fill = "black" />
    <text x="-2590" y = "-629" fill = "black" font-size = "5.2421875px" font-family = "futura">Wiehle-Reston East</text>
</svg>