<svg width="800" height="600" viewbox = "0 0 800 600"  xmlns="http://www.w3.org/2000/svg">
<!--0331,0330,0330,0330,0330,0332,0330,0332,0332,0332,0234,0234,0234,0234,0234,0234,0330,0330,0330,-->    <line x1="97" y1="169" x2="97" y2="106" style="stroke:black;stroke-width:2" />
    <line x1="97" y1="106" x2="35" y2="106" style="stroke:black;stroke-width:2" />
    <line x1="35" y1="106" x2="35" y2="169" style="stroke:black;stroke-width:2" />
    <line x1="35" y1="169" x2="97" y2="169" style="stroke:black;stroke-width:2" />
    <text x="42" y = "161" fill = "black" font-size = "15.523033076478878px" font-family = "futura">2</text>
    <text x="42" y = "130" fill = "black" font-size = "15.523033076478878px" font-family = "futura">@</text>
    <line x1="89" y1="130" x2="89" y2="114" style="stroke:black;stroke-width:2" />
    <line x1="89" y1="114" x2="74" y2="114" style="stroke:black;stroke-width:2" />
    <line x1="74" y1="114" x2="74" y2="130" style="stroke:black;stroke-width:2" />
    <line x1="74" y1="130" x2="89" y2="130" style="stroke:black;stroke-width:2" />
	<path d = "M85 126 L85 118 L77 118 L77 126 L85 126 Z" stroke = "red" stroke-width = "2" fill = "red" />    <line x1="89" y1="161" x2="89" y2="145" style="stroke:black;stroke-width:2" />
    <line x1="89" y1="145" x2="74" y2="145" style="stroke:black;stroke-width:2" />
    <line x1="74" y1="145" x2="74" y2="161" style="stroke:black;stroke-width:2" />
    <line x1="74" y1="161" x2="89" y2="161" style="stroke:black;stroke-width:2" />
    <line x1="81" y1="153" x2="81" y2="145" style="stroke:black;stroke-width:2" />
    <line x1="81" y1="153" x2="88" y2="149" style="stroke:black;stroke-width:2" />
    <line x1="81" y1="153" x2="88" y2="157" style="stroke:black;stroke-width:2" />
    <line x1="81" y1="153" x2="81" y2="161" style="stroke:black;stroke-width:2" />
    <line x1="81" y1="153" x2="75" y2="157" style="stroke:black;stroke-width:2" />
    <circle cx="81" cy = "153" r = "7.761516538239439" stroke = "black" stroke-width = "2" fill = "none" />
    <circle cx="79" cy = "150" r = "0.9701895672799299" stroke = "black" stroke-width = "2" fill = "none" />
    <circle cx="83" cy = "150" r = "0.9701895672799299" stroke = "black" stroke-width = "2" fill = "none" />
    <circle cx="85" cy = "153" r = "0.9701895672799299" stroke = "black" stroke-width = "2" fill = "none" />
    <circle cx="83" cy = "156" r = "0.9701895672799299" stroke = "black" stroke-width = "2" fill = "none" />
    <circle cx="79" cy = "156" r = "0.9701895672799299" stroke = "black" stroke-width = "2" fill = "none" />
    <line x1="81" y1="153" x2="75" y2="149" style="stroke:black;stroke-width:2" />
    <circle cx="77" cy = "153" r = "0.9701895672799299" stroke = "black" stroke-width = "2" fill = "none" />
    <line x1="159" y1="169" x2="159" y2="106" style="stroke:black;stroke-width:2" />
    <line x1="159" y1="106" x2="97" y2="106" style="stroke:black;stroke-width:2" />
    <line x1="97" y1="106" x2="97" y2="169" style="stroke:black;stroke-width:2" />
    <line x1="97" y1="169" x2="159" y2="169" style="stroke:black;stroke-width:2" />
    <text x="105" y = "161" fill = "black" font-size = "15.523033076478878px" font-family = "futura">2</text>
    <text x="105" y = "130" fill = "black" font-size = "15.523033076478878px" font-family = "futura">@</text>
    <line x1="151" y1="130" x2="151" y2="114" style="stroke:black;stroke-width:2" />
    <line x1="151" y1="114" x2="136" y2="114" style="stroke:black;stroke-width:2" />
    <line x1="136" y1="114" x2="136" y2="130" style="stroke:black;stroke-width:2" />
    <line x1="136" y1="130" x2="151" y2="130" style="stroke:black;stroke-width:2" />
	<path d = "M147 126 L147 118 L139 118 L139 126 L147 126 Z" stroke = "red" stroke-width = "2" fill = "red" />    <line x1="151" y1="161" x2="151" y2="145" style="stroke:black;stroke-width:2" />
    <line x1="151" y1="145" x2="136" y2="145" style="stroke:black;stroke-width:2" />
    <line x1="136" y1="145" x2="136" y2="161" style="stroke:black;stroke-width:2" />
    <line x1="136" y1="161" x2="151" y2="161" style="stroke:black;stroke-width:2" />
    <line x1="143" y1="153" x2="143" y2="145" style="stroke:black;stroke-width:2" />
    <line x1="143" y1="153" x2="150" y2="149" style="stroke:black;stroke-width:2" />
    <line x1="143" y1="153" x2="150" y2="157" style="stroke:black;stroke-width:2" />
    <line x1="143" y1="153" x2="143" y2="161" style="stroke:black;stroke-width:2" />
    <line x1="143" y1="153" x2="137" y2="157" style="stroke:black;stroke-width:2" />
    <circle cx="143" cy = "153" r = "7.761516538239439" stroke = "black" stroke-width = "2" fill = "none" />
    <circle cx="141" cy = "150" r = "0.9701895672799299" stroke = "black" stroke-width = "2" fill = "none" />
    <circle cx="145" cy = "150" r = "0.9701895672799299" stroke = "black" stroke-width = "2" fill = "none" />
    <circle cx="147" cy = "153" r = "0.9701895672799299" stroke = "black" stroke-width = "2" fill = "none" />
    <circle cx="145" cy = "156" r = "0.9701895672799299" stroke = "black" stroke-width = "2" fill = "none" />
    <circle cx="141" cy = "156" r = "0.9701895672799299" stroke = "black" stroke-width = "2" fill = "none" />
    <line x1="143" y1="153" x2="137" y2="149" style="stroke:black;stroke-width:2" />
    <circle cx="139" cy = "153" r = "0.9701895672799299" stroke = "black" stroke-width = "2" fill = "none" />
    <line x1="221" y1="169" x2="221" y2="106" style="stroke:black;stroke-width:2" />
    <line x1="221" y1="106" x2="159" y2="106" style="stroke:black;stroke-width:2" />
    <line x1="159" y1="106" x2="159" y2="169" style="stroke:black;stroke-width:2" />
    <line x1="159" y1="169" x2="221" y2="169" style="stroke:black;stroke-width:2" />
    <text x="167" y = "161" fill = "black" font-size = "15.523033076478878px" font-family = "futura">2</text>
    <text x="167" y = "130" fill = "black" font-size = "15.523033076478878px" font-family = "futura">@</text>
    <line x1="213" y1="130" x2="213" y2="114" style="stroke:black;stroke-width:2" />
    <line x1="213" y1="114" x2="198" y2="114" style="stroke:black;stroke-width:2" />
    <line x1="198" y1="114" x2="198" y2="130" style="stroke:black;stroke-width:2" />
    <line x1="198" y1="130" x2="213" y2="130" style="stroke:black;stroke-width:2" />
	<path d = "M209 126 L209 118 L202 118 L202 126 L209 126 Z" stroke = "red" stroke-width = "2" fill = "red" />    <line x1="213" y1="161" x2="213" y2="145" style="stroke:black;stroke-width:2" />
    <line x1="213" y1="145" x2="198" y2="145" style="stroke:black;stroke-width:2" />
    <line x1="198" y1="145" x2="198" y2="161" style="stroke:black;stroke-width:2" />
    <line x1="198" y1="161" x2="213" y2="161" style="stroke:black;stroke-width:2" />
    <line x1="205" y1="153" x2="205" y2="145" style="stroke:black;stroke-width:2" />
    <line x1="205" y1="153" x2="212" y2="149" style="stroke:black;stroke-width:2" />
    <line x1="205" y1="153" x2="212" y2="157" style="stroke:black;stroke-width:2" />
    <line x1="205" y1="153" x2="205" y2="161" style="stroke:black;stroke-width:2" />
    <line x1="205" y1="153" x2="199" y2="157" style="stroke:black;stroke-width:2" />
    <circle cx="205" cy = "153" r = "7.761516538239439" stroke = "black" stroke-width = "2" fill = "none" />
    <circle cx="204" cy = "150" r = "0.9701895672799299" stroke = "black" stroke-width = "2" fill = "none" />
    <circle cx="207" cy = "150" r = "0.9701895672799299" stroke = "black" stroke-width = "2" fill = "none" />
    <circle cx="209" cy = "153" r = "0.9701895672799299" stroke = "black" stroke-width = "2" fill = "none" />
    <circle cx="207" cy = "156" r = "0.9701895672799299" stroke = "black" stroke-width = "2" fill = "none" />
    <circle cx="204" cy = "156" r = "0.9701895672799299" stroke = "black" stroke-width = "2" fill = "none" />
    <line x1="205" y1="153" x2="199" y2="149" style="stroke:black;stroke-width:2" />
    <circle cx="202" cy = "153" r = "0.9701895672799299" stroke = "black" stroke-width = "2" fill = "none" />
    <line x1="283" y1="169" x2="283" y2="106" style="stroke:black;stroke-width:2" />
    <line x1="283" y1="106" x2="221" y2="106" style="stroke:black;stroke-width:2" />
    <line x1="221" y1="106" x2="221" y2="169" style="stroke:black;stroke-width:2" />
    <line x1="221" y1="169" x2="283" y2="169" style="stroke:black;stroke-width:2" />
    <text x="229" y = "161" fill = "black" font-size = "15.523033076478878px" font-family = "futura">2</text>
    <text x="229" y = "130" fill = "black" font-size = "15.523033076478878px" font-family = "futura">@</text>
    <line x1="275" y1="130" x2="275" y2="114" style="stroke:black;stroke-width:2" />
    <line x1="275" y1="114" x2="260" y2="114" style="stroke:black;stroke-width:2" />
    <line x1="260" y1="114" x2="260" y2="130" style="stroke:black;stroke-width:2" />
    <line x1="260" y1="130" x2="275" y2="130" style="stroke:black;stroke-width:2" />
	<path d = "M271 126 L271 118 L264 118 L264 126 L271 126 Z" stroke = "red" stroke-width = "2" fill = "red" />    <line x1="275" y1="161" x2="275" y2="145" style="stroke:black;stroke-width:2" />
    <line x1="275" y1="145" x2="260" y2="145" style="stroke:black;stroke-width:2" />
    <line x1="260" y1="145" x2="260" y2="161" style="stroke:black;stroke-width:2" />
    <line x1="260" y1="161" x2="275" y2="161" style="stroke:black;stroke-width:2" />
    <line x1="268" y1="153" x2="268" y2="145" style="stroke:black;stroke-width:2" />
    <line x1="268" y1="153" x2="274" y2="149" style="stroke:black;stroke-width:2" />
    <line x1="268" y1="153" x2="274" y2="157" style="stroke:black;stroke-width:2" />
    <line x1="268" y1="153" x2="268" y2="161" style="stroke:black;stroke-width:2" />
    <line x1="268" y1="153" x2="261" y2="157" style="stroke:black;stroke-width:2" />
    <circle cx="268" cy = "153" r = "7.761516538239439" stroke = "black" stroke-width = "2" fill = "none" />
    <circle cx="266" cy = "150" r = "0.9701895672799299" stroke = "black" stroke-width = "2" fill = "none" />
    <circle cx="269" cy = "150" r = "0.9701895672799299" stroke = "black" stroke-width = "2" fill = "none" />
    <circle cx="271" cy = "153" r = "0.9701895672799299" stroke = "black" stroke-width = "2" fill = "none" />
    <circle cx="269" cy = "156" r = "0.9701895672799299" stroke = "black" stroke-width = "2" fill = "none" />
    <circle cx="266" cy = "156" r = "0.9701895672799299" stroke = "black" stroke-width = "2" fill = "none" />
    <line x1="268" y1="153" x2="261" y2="149" style="stroke:black;stroke-width:2" />
    <circle cx="264" cy = "153" r = "0.9701895672799299" stroke = "black" stroke-width = "2" fill = "none" />
    <line x1="345" y1="169" x2="345" y2="106" style="stroke:black;stroke-width:2" />
    <line x1="345" y1="106" x2="283" y2="106" style="stroke:black;stroke-width:2" />
    <line x1="283" y1="106" x2="283" y2="169" style="stroke:black;stroke-width:2" />
    <line x1="283" y1="169" x2="345" y2="169" style="stroke:black;stroke-width:2" />
    <text x="291" y = "161" fill = "black" font-size = "15.523033076478878px" font-family = "futura">2</text>
    <text x="291" y = "130" fill = "black" font-size = "15.523033076478878px" font-family = "futura">@</text>
    <line x1="337" y1="130" x2="337" y2="114" style="stroke:black;stroke-width:2" />
    <line x1="337" y1="114" x2="322" y2="114" style="stroke:black;stroke-width:2" />
    <line x1="322" y1="114" x2="322" y2="130" style="stroke:black;stroke-width:2" />
    <line x1="322" y1="130" x2="337" y2="130" style="stroke:black;stroke-width:2" />
	<path d = "M334 126 L334 118 L326 118 L326 126 L334 126 Z" stroke = "red" stroke-width = "2" fill = "red" />    <line x1="337" y1="161" x2="337" y2="145" style="stroke:black;stroke-width:2" />
    <line x1="337" y1="145" x2="322" y2="145" style="stroke:black;stroke-width:2" />
    <line x1="322" y1="145" x2="322" y2="161" style="stroke:black;stroke-width:2" />
    <line x1="322" y1="161" x2="337" y2="161" style="stroke:black;stroke-width:2" />
    <line x1="330" y1="153" x2="330" y2="145" style="stroke:black;stroke-width:2" />
    <line x1="330" y1="153" x2="336" y2="149" style="stroke:black;stroke-width:2" />
    <line x1="330" y1="153" x2="336" y2="157" style="stroke:black;stroke-width:2" />
    <line x1="330" y1="153" x2="330" y2="161" style="stroke:black;stroke-width:2" />
    <line x1="330" y1="153" x2="323" y2="157" style="stroke:black;stroke-width:2" />
    <circle cx="330" cy = "153" r = "7.761516538239439" stroke = "black" stroke-width = "2" fill = "none" />
    <circle cx="328" cy = "150" r = "0.9701895672799299" stroke = "black" stroke-width = "2" fill = "none" />
    <circle cx="332" cy = "150" r = "0.9701895672799299" stroke = "black" stroke-width = "2" fill = "none" />
    <circle cx="334" cy = "153" r = "0.9701895672799299" stroke = "black" stroke-width = "2" fill = "none" />
    <circle cx="332" cy = "156" r = "0.9701895672799299" stroke = "black" stroke-width = "2" fill = "none" />
    <circle cx="328" cy = "156" r = "0.9701895672799299" stroke = "black" stroke-width = "2" fill = "none" />
    <line x1="330" y1="153" x2="323" y2="149" style="stroke:black;stroke-width:2" />
    <circle cx="326" cy = "153" r = "0.9701895672799299" stroke = "black" stroke-width = "2" fill = "none" />
    <line x1="407" y1="169" x2="407" y2="106" style="stroke:black;stroke-width:2" />
    <line x1="407" y1="106" x2="345" y2="106" style="stroke:black;stroke-width:2" />
    <line x1="345" y1="106" x2="345" y2="169" style="stroke:black;stroke-width:2" />
    <line x1="345" y1="169" x2="407" y2="169" style="stroke:black;stroke-width:2" />
    <text x="353" y = "161" fill = "black" font-size = "15.523033076478878px" font-family = "futura">2</text>
    <text x="353" y = "130" fill = "black" font-size = "15.523033076478878px" font-family = "futura">@</text>
    <line x1="399" y1="130" x2="399" y2="114" style="stroke:black;stroke-width:2" />
    <line x1="399" y1="114" x2="384" y2="114" style="stroke:black;stroke-width:2" />
    <line x1="384" y1="114" x2="384" y2="130" style="stroke:black;stroke-width:2" />
    <line x1="384" y1="130" x2="399" y2="130" style="stroke:black;stroke-width:2" />
	<path d = "M396 126 L396 118 L388 118 L388 126 L396 126 Z" stroke = "red" stroke-width = "2" fill = "red" />    <line x1="399" y1="161" x2="399" y2="145" style="stroke:black;stroke-width:2" />
    <line x1="399" y1="145" x2="384" y2="145" style="stroke:black;stroke-width:2" />
    <line x1="384" y1="145" x2="384" y2="161" style="stroke:black;stroke-width:2" />
    <line x1="384" y1="161" x2="399" y2="161" style="stroke:black;stroke-width:2" />
    <line x1="392" y1="153" x2="392" y2="145" style="stroke:black;stroke-width:2" />
    <line x1="392" y1="153" x2="398" y2="149" style="stroke:black;stroke-width:2" />
    <line x1="392" y1="153" x2="398" y2="157" style="stroke:black;stroke-width:2" />
    <line x1="392" y1="153" x2="392" y2="161" style="stroke:black;stroke-width:2" />
    <line x1="392" y1="153" x2="385" y2="157" style="stroke:black;stroke-width:2" />
    <circle cx="392" cy = "153" r = "7.761516538239439" stroke = "black" stroke-width = "2" fill = "none" />
    <circle cx="390" cy = "150" r = "0.9701895672799299" stroke = "black" stroke-width = "2" fill = "none" />
    <circle cx="394" cy = "150" r = "0.9701895672799299" stroke = "black" stroke-width = "2" fill = "none" />
    <circle cx="396" cy = "153" r = "0.9701895672799299" stroke = "black" stroke-width = "2" fill = "none" />
    <circle cx="394" cy = "156" r = "0.9701895672799299" stroke = "black" stroke-width = "2" fill = "none" />
    <circle cx="390" cy = "156" r = "0.9701895672799299" stroke = "black" stroke-width = "2" fill = "none" />
    <line x1="392" y1="153" x2="385" y2="149" style="stroke:black;stroke-width:2" />
    <circle cx="388" cy = "153" r = "0.9701895672799299" stroke = "black" stroke-width = "2" fill = "none" />
</svg>