<svg xmlns="http://www.w3.org/2000/svg" version="1.1"
viewBox="0 0 512 384" width="512" height="384" id="geometron_svg">
  <path d="M0 100 L3.061616997868383e-15 50
M3.061616997868383e-15 50 L-50 49.99999999999999
M-50 49.99999999999999 L-50.00000000000001 100
M-50.00000000000001 100 L-7.105427357601002e-15 100.00000000000001
"
style="stroke:black;stroke-width:2" fill="none" />
  <circle cx="-25" cy="75" r="25" stroke="black" stroke-width="3" fill="none" />
  <path d="M-25 75 L-24.999999999999993 50
M-25 75 L0 75
M-25 75 L-25.000000000000004 100
M-25 75 L-50 75
"
style="stroke:black;stroke-width:2" fill="none" />
  <circle cx="-33.838834764831844" cy="66.16116523516814" r="6.25" stroke="black" stroke-width="3" fill="none" />
  <circle cx="-16.161165235168156" cy="66.16116523516817" r="6.25" stroke="black" stroke-width="3" fill="none" />
  <circle cx="-16.161165235168156" cy="83.83883476483183" r="6.25" stroke="black" stroke-width="3" fill="none" />
  <circle cx="-33.838834764831844" cy="83.83883476483186" r="6.25" stroke="black" stroke-width="3" fill="none" />
  <path d="M50 99.99999999999999 L49.99999999999999 49.999999999999986
M49.99999999999999 49.999999999999986 L-7.105427357601002e-15 49.99999999999999
M-7.105427357601002e-15 49.99999999999999 L-4.0438103597326184e-15 100
M-4.0438103597326184e-15 100 L49.99999999999999 100
M24.999999999999993 75 L24.999999999999993 50
M24.999999999999993 75 L48.77641290737883 67.27457514062631
M24.999999999999993 75 L39.69463130731182 95.22542485937367
M24.999999999999993 75 L10.305368692688168 95.22542485937369
M24.999999999999993 75 L1.2235870926211518 67.27457514062633
"
style="stroke:black;stroke-width:2" fill="none" />
  <circle cx="24.999999999999993" cy="75" r="25" stroke="black" stroke-width="3" fill="none" />
  <circle cx="32.347315653655905" cy="64.88728757031316" r="3.125" stroke="black" stroke-width="3" fill="none" />
  <circle cx="36.88820645368941" cy="78.86271242968684" r="3.125" stroke="black" stroke-width="3" fill="none" />
  <circle cx="24.999999999999996" cy="87.5" r="3.125" stroke="black" stroke-width="3" fill="none" />
  <circle cx="13.111793546310576" cy="78.86271242968685" r="3.125" stroke="black" stroke-width="3" fill="none" />
  <circle cx="17.652684346344074" cy="64.88728757031316" r="3.125" stroke="black" stroke-width="3" fill="none" />
  <path d="M100 99.99999999999996 L99.99999999999997 49.99999999999996
M99.99999999999997 49.99999999999996 L49.99999999999997 49.99999999999998
M49.99999999999997 49.99999999999998 L49.999999999999986 99.99999999999997
M49.999999999999986 99.99999999999997 L99.99999999999999 99.99999999999996
M74.99999999999999 74.99999999999996 L74.99999999999999 49.99999999999996
M74.99999999999999 74.99999999999996 L96.65063509461095 62.49999999999994
M74.99999999999999 74.99999999999996 L96.65063509461096 87.49999999999994
M74.99999999999999 74.99999999999996 L75.00000000000001 99.99999999999996
M74.99999999999999 74.99999999999996 L53.34936490538904 87.49999999999999
"
style="stroke:black;stroke-width:2" fill="none" />
  <circle cx="74.99999999999999" cy="74.99999999999996" r="25" stroke="black" stroke-width="3" fill="none" />
  <circle cx="68.74999999999997" cy="64.17468245269448" r="3.125" stroke="black" stroke-width="3" fill="none" />
  <circle cx="81.24999999999997" cy="64.17468245269447" r="3.125" stroke="black" stroke-width="3" fill="none" />
  <circle cx="87.49999999999999" cy="74.99999999999996" r="3.125" stroke="black" stroke-width="3" fill="none" />
  <circle cx="81.24999999999999" cy="85.82531754730545" r="3.125" stroke="black" stroke-width="3" fill="none" />
  <circle cx="68.74999999999997" cy="85.82531754730543" r="3.125" stroke="black" stroke-width="3" fill="none" />
  <path d="M74.99999999999997 74.99999999999996 L53.34936490538899 62.499999999999986
"
style="stroke:black;stroke-width:2" fill="none" />
  <circle cx="62.49999999999997" cy="74.99999999999997" r="3.125" stroke="black" stroke-width="3" fill="none" />
  <path d="M150.00000000000003 99.9999999999999 L149.99999999999991 49.9999999999999
M149.99999999999991 49.9999999999999 L99.99999999999991 50.00000000000002
M99.99999999999991 50.00000000000002 L100.00000000000003 100.00000000000003
M100.00000000000003 100.00000000000003 L150.00000000000003 99.99999999999991
M125.00000000000003 99.99999999999997 L150 74.99999999999994
M150 74.99999999999994 L124.99999999999991 50.000000000000014
M124.99999999999991 50.000000000000014 L100.00000000000003 75.00000000000014
M100.00000000000003 75.00000000000014 L125.00000000000014 100.00000000000003
M150.00000000000014 99.99999999999991 L200.00000000000014 99.99999999999969
M150.00000000000014 99.99999999999991 L174.99999999999977 23.057911570618472
M200.00000000000014 99.99999999999969 L174.9999999999998 23.057911570618458
M200.00000000000014 99.99999999999969 L199.99999999999991 49.99999999999969
M199.99999999999991 49.99999999999969 L149.99999999999991 49.999999999999915
M149.99999999999991 49.999999999999915 L150.00000000000014 99.99999999999991
M150.00000000000014 99.99999999999991 L200.00000000000014 99.99999999999969
M200.00000000000014 99.99999999999969 L159.54915028125265 70.61073738537621
M159.54915028125265 70.61073738537621 L184.54915028125257 52.447174185242076
M184.54915028125257 52.447174185242076 L169.09830056250516 41.22147477075251
M250.00000000000014 99.99999999999946 L249.99999999999991 49.99999999999947
M249.99999999999991 49.99999999999947 L199.99999999999991 49.99999999999968
M199.99999999999991 49.99999999999968 L200.0000000000001 99.99999999999967
M200.0000000000001 99.99999999999967 L250.0000000000001 99.99999999999946
M250.0000000000001 99.99999999999946 L224.99999999999994 56.69872981077765
M224.99999999999994 56.69872981077765 L200.00000000000003 99.99999999999963
M224.99999999999994 56.69872981077765 L225 99.99999999999957
M225 99.99999999999957 L243.75 89.17468245269411
M300 99.99999999999974 L300.0000000000001 49.99999999999975
M300.0000000000001 49.99999999999975 L250.0000000000001 49.99999999999963
M250.0000000000001 49.99999999999963 L250 99.99999999999963
M250 99.99999999999963 L300 99.99999999999967
M275 87.49999999999973 L275 74.99999999999973
M275 87.49999999999973 L262.5 87.49999999999976
M262.5 87.49999999999976 L262.5 74.99999999999976
M262.5 74.99999999999976 L275 74.99999999999977
M275 74.99999999999977 L287.5 74.99999999999979
M287.5 74.99999999999979 L287.49999999999994 87.49999999999979
M287.49999999999994 87.49999999999979 L274.99999999999994 87.49999999999976
M349.9999999999999 99.99999999999993 L350 49.999999999999936
M350 49.999999999999936 L300 49.999999999999815
M300 49.999999999999815 L299.9999999999999 99.9999999999998
M299.9999999999999 99.9999999999998 L349.9999999999999 99.99999999999984
M316.6666666666665 83.33333333333326 L316.6666666666665 66.6666666666666
M316.6666666666665 66.6666666666666 L299.99999999999983 66.66666666666664
M299.99999999999983 66.66666666666664 L299.9999999999999 83.33333333333331
M299.9999999999999 83.33333333333331 L316.6666666666666 83.33333333333321
M333.33333333333326 83.33333333333312 L333.33333333333314 66.66666666666646
M333.33333333333314 66.66666666666646 L316.66666666666646 66.66666666666661
M316.66666666666646 66.66666666666661 L316.66666666666663 83.33333333333329
M316.66666666666663 83.33333333333329 L333.3333333333333 83.33333333333307
M350 83.33333333333286 L349.9999999999998 66.6666666666662
M349.9999999999998 66.6666666666662 L333.3333333333331 66.66666666666647
M333.3333333333331 66.66666666666647 L333.33333333333337 83.33333333333314
M333.33333333333337 83.33333333333314 L350.00000000000006 83.33333333333282
M400.0000000000004 99.9999999999985 L399.9999999999993 49.9999999999985
M399.9999999999993 49.9999999999985 L349.9999999999993 49.999999999999666
M349.9999999999993 49.999999999999666 L350.00000000000057 99.99999999999966
M350.00000000000057 99.99999999999966 L400.00000000000057 99.99999999999832
M349.99999999999983 74.99999999999983 L362.49999999999983 74.9999999999995
M387.49999999999983 74.99999999999885 L399.99999999999983 74.99999999999852
M362.49999999999983 74.9999999999995 L362.4999999999991 49.9999999999995
M362.49999999999983 74.9999999999995 L362.50000000000045 99.9999999999995
M387.49999999999983 74.99999999999885 L362.5000000000005 99.99999999999953
M387.49999999999983 74.99999999999885 L362.499999999999 49.99999999999968
M450.0000000000009 99.99999999999626 L449.99999999999875 49.99999999999628
M449.99999999999875 49.99999999999628 L399.99999999999875 49.99999999999851
M399.99999999999875 49.99999999999851 L400.0000000000011 99.9999999999985
M400.0000000000011 99.9999999999985 L450.0000000000011 99.99999999999609
"
style="stroke:black;stroke-width:2" fill="none" />
  <circle cx="424.99999999999983" cy="74.9999999999974" r="4" stroke="black" stroke-width="3" fill="black" />
  <path d="M433.83883476483123 66.1611652351651 L442.67766952966264 57.322330470332794
M407.322330470337 92.677669529662 L416.1611652351684 83.8388347648297
M407.3223304703351 57.322330470334734 L416.16116523516746 66.16116523516607
M433.8388347648322 83.83883476482873 L442.67766952966457 92.67766952966006
M3.623767952376511e-12 150.00000000001967 L1.1368374281843315e-12 100.00000000001968
M1.1368374281843315e-12 100.00000000001968 L-49.99999999999885 100.00000000002225
M-49.99999999999885 100.00000000002225 L-49.99999999999619 150.00000000002223
M-49.99999999999619 150.00000000002223 L3.794298208958935e-12 150.00000000001947
M-12.49999999999691 137.5000000000202 L-12.499999999998325 112.50000000002021
M-12.499999999998325 112.50000000002021 L-37.499999999998316 112.50000000002167
M-37.499999999998316 112.50000000002167 L-37.49999999999682 137.50000000002166
M-37.49999999999682 137.50000000002166 L-12.499999999996824 137.50000000002012
M50.00000000000395 150.00000000001626 L50.000000000000774 100.00000000001627
M50.000000000000774 100.00000000001627 L7.887024366937112e-13 100.00000000001953
M7.887024366937112e-13 100.00000000001953 L4.133195210607332e-12 150.0000000000195
M4.133195210607332e-12 150.0000000000195 L50.00000000000412 150.00000000001606
M2.5579538487363607e-12 125.00000000001913 L6.250000000002556 125.00000000001874
M6.250000000002556 125.00000000001874 L9.375000000002856 130.4126587736713
M12.500000000002554 125.00000000001836 L9.375000000002824 130.41265877367127
M12.500000000002554 125.00000000001836 L15.625000000002188 119.58734122636541
M18.75000000000255 125.00000000001798 L15.625000000002194 119.58734122636544
M18.75000000000255 125.00000000001798 L21.875000000002814 130.41265877367056
M25.00000000000255 125.00000000001764 L21.87500000000278 130.4126587736705
M25.00000000000255 125.00000000001764 L28.125000000002224 119.58734122636471
M31.25000000000255 125.0000000000173 L28.125000000002196 119.58734122636476
M31.25000000000255 125.0000000000173 L34.375000000002814 130.41265877366988
M37.50000000000255 125.00000000001695 L34.375000000002785 130.41265877366982
M37.50000000000255 125.00000000001695 L40.625000000002224 119.58734122636403
M43.75000000000255 125.00000000001661 L40.625000000002196 119.58734122636407
M43.75000000000255 125.00000000001661 L50.00000000000255 125.00000000001627
M100.00000000000375 150.0000000000139 L100.00000000000131 100.00000000001391
M100.00000000000131 100.00000000001391 L50.00000000000132 100.00000000001609
M50.00000000000132 100.00000000001609 L50.00000000000323 150.0000000000161
M50.00000000000323 150.0000000000161 L100.00000000000321 150.00000000001444
M50.00000000000254 125.00000000001609 L56.25000000000254 125.00000000001589
M56.25000000000254 125.00000000001589 L68.75000000000253 125.00000000001548
M68.75000000000253 125.00000000001548 L68.75000000000301 137.50000000001546
M68.75000000000253 125.00000000001548 L68.75000000000219 112.50000000001548
M81.25000000000253 125.00000000001506 L81.25000000000219 112.50000000001506
M81.25000000000253 125.00000000001506 L81.25000000000274 137.50000000001506
M81.25000000000253 125.00000000001506 L93.75000000000253 125.00000000001492
M93.75000000000253 125.00000000001492 L100.00000000000253 125.00000000001485
M150.00000000000267 150.00000000001427 L150.0000000000024 100.00000000001428
M150.0000000000024 100.00000000001428 L100.0000000000024 100.00000000001431
M100.0000000000024 100.00000000001431 L100.00000000000216 150.0000000000143
M100.00000000000216 150.0000000000143 L150.00000000000216 150.0000000000148
M100.00000000000256 125.0000000000143 L103.12500000000256 125.00000000001432
M103.12500000000256 125.00000000001427
           Q103.12500000000281 108.33333333334761 108.68055555555837 108.33333333334772
M114.23611111111367 125.00000000001444
           Q114.23611111111393 108.33333333334778 108.68055555555837 108.33333333334772
M110.53240740740996 125.00000000001434
           Q110.53240740741022 108.33333333334768 116.08796296296578 108.3333333333478
M114.23611111111367 125.00000000001442
           Q114.23611111111353 130.55555555556998 112.38425925926168 130.55555555556992
M110.53240740740998 125.00000000001432
           Q110.53240740740983 130.55555555556987 112.38425925926168 130.55555555556992
M121.64351851852108 125.00000000001445
           Q121.64351851852133 108.3333333333478 116.08796296296578 108.33333333334774
M117.93981481481737 125.00000000001435
           Q117.93981481481762 108.3333333333477 123.49537037037318 108.33333333334781
M121.64351851852108 125.00000000001444
           Q121.64351851852093 130.55555555556998 119.79166666666909 130.55555555556992
M117.93981481481738 125.00000000001434
           Q117.93981481481724 130.5555555555699 119.79166666666909 130.55555555556992
M129.05092592592848 125.00000000001447
           Q129.05092592592874 108.33333333334781 123.49537037037318 108.33333333334775
M125.34722222222477 125.00000000001437
           Q125.34722222222503 108.33333333334771 130.90277777778059 108.33333333334782
M129.05092592592848 125.00000000001445
           Q129.05092592592834 130.55555555557 127.19907407407649 130.55555555556995
M125.34722222222479 125.00000000001435
           Q125.34722222222464 130.5555555555699 127.19907407407649 130.55555555556995
M136.45833333333587 125.00000000001448
           Q136.45833333333613 108.33333333334782 130.90277777778059 108.33333333334777
M132.75462962963218 125.00000000001438
           Q132.75462962963243 108.33333333334772 138.31018518518798 108.33333333334784
M136.45833333333587 125.00000000001447
           Q136.45833333333573 130.55555555557 134.60648148148388 130.55555555556995
M132.75462962963218 125.00000000001437
           Q132.75462962963203 130.55555555556992 134.60648148148388 130.55555555556995
M143.86574074074326 125.0000000000145
           Q143.86574074074352 108.33333333334784 138.31018518518798 108.33333333334778
M143.86574074074326 125.0000000000145 L149.4212962962988 125.00000000001455
M149.4212962962988 125.00000000001455 L149.48988340192295 125.00000000001455
M199.48988340192255 150.00000000001506 L199.48988340192335 100.00000000001508
M199.48988340192335 100.00000000001508 L149.48988340192335 100.00000000001403
M149.48988340192335 100.00000000001403 L149.48988340192201 150.000000000014
M149.48988340192201 150.000000000014 L199.489883401922 150.0000000000156
M174.48988340192358 100.00000000001455 L174.48988340192292 125.00000000001455
M174.48988340192292 125.00000000001455 L156.81221387225924 125.00000000001418
M156.81221387225924 125.00000000001418 L174.4898834019224 142.67766952967838
M174.4898834019224 142.67766952967838 L192.1675529315867 125.0000000000153
M192.1675529315867 125.0000000000153 L174.489883401923 125.00000000001455
M249.48988340192204 150.00000000001694 L249.48988340192392 100.00000000001695
M249.48988340192392 100.00000000001695 L199.48988340192392 100.00000000001482
M199.48988340192392 100.00000000001482 L199.48988340192153 150.0000000000148
M199.48988340192153 150.0000000000148 L249.48988340192153 150.00000000001748
M199.489883401923 125.00000000001481 L249.489883401923 125.00000000001748
M216.15655006859015 116.66666666668237 L232.82321673525595 133.33333333334988
M216.15655006858935 133.33333333334903 L232.82321673525695 116.66666666668331
M299.4898834019217 150.00000000002012 L299.48988340192466 100.00000000002014
M299.48988340192466 100.00000000002014 L249.48988340192466 100.00000000001693
M249.48988340192466 100.00000000001693 L249.4898834019212 150.0000000000169
M249.4898834019212 150.0000000000169 L299.4898834019212 150.00000000002066
M249.48988340192318 125.00000000001691 L266.15655006858987 125.00000000001816
M266.15655006858987 125.00000000001816 L266.15655006859055 116.66666666668483
M266.15655006858987 125.00000000001816 L266.1565500685891 133.3333333333515
M266.15655006859055 116.66666666668483 L282.82321673525723 116.66666666668608
M266.15655006859055 116.66666666668483 L282.823216735256 133.3333333333527
M266.1565500685894 133.3333333333515 L282.8232167352561 133.33333333335275
M266.1565500685894 133.3333333333515 L282.82321673525735 116.66666666668614
M282.8232167352567 125.00000000001943 L282.8232167352574 116.6666666666861
M282.8232167352567 125.00000000001943 L282.82321673525615 133.33333333335275
M282.8232167352567 125.00000000001943 L291.15655006859004 125.00000000002005
M291.15655006859004 125.00000000002005 L299.48988340192335 125.00000000002068
M349.48988340192136 150.00000000002441 L349.4898834019254 100.00000000002443
M349.4898834019254 100.00000000002443 L299.4898834019254 100.00000000002014
M299.4898834019254 100.00000000002014 L299.48988340192085 150.00000000002012
M299.48988340192085 150.00000000002012 L349.48988340192085 150.00000000002495
"
style="stroke:black;stroke-width:2" fill="none" />
  <circle cx="324.4898834019234" cy="125.00000000002225" r="12.499999999999996" stroke="black" stroke-width="3" fill="none" />
  <path d="M324.4898834019227 131.25000000002208 L329.2734263064875 119.70150584363148
M324.4898834019227 131.25000000002208 L319.7063404973603 119.70150584363051
M399.48988340192085 150.00000000002916 L399.48988340192597 100.00000000002917
M399.48988340192597 100.00000000002917 L349.48988340192597 100.0000000000238
M349.48988340192597 100.0000000000238 L349.48988340192034 150.0000000000238
M349.48988340192034 150.0000000000238 L399.48988340192034 150.0000000000297
M374.4898834019219 137.50000000002646 L386.9898834019219 137.5000000000282
M374.4898834019219 137.50000000002646 L361.9898834019219 137.50000000002484
M374.48988340192074 145.83333333335977 L370.32321673525405 145.83333333335923
M374.48988340192074 145.83333333335977 L378.6565500685874 145.83333333336034
M374.48988340192136 141.66666666669312 L378.65655006858805 141.6666666666937
M378.65655006858805 141.6666666666937 L382.82321673525473 141.66666666669425
M366.156550068588 141.66666666669198 L370.3232167352547 141.66666666669255
M370.3232167352547 141.66666666669255 L374.48988340192136 141.66666666669312
M374.48988340192193 137.50000000002646 L374.48988340192557 112.50000000002646
M449.4898834019201 150.00000000003695 L449.4898834019274 100.00000000003696
M449.4898834019274 100.00000000003696 L399.4898834019274 100.00000000002944
M399.4898834019274 100.00000000002944 L399.4898834019196 150.00000000002944
M399.4898834019196 150.00000000002944 L449.4898834019196 150.00000000003752
M421.36488340192375 125.00000000003307
           Q421.36488340192585 112.50000000003307 424.48988340192585 112.50000000003357
M427.61488340192375 125.00000000003406
           Q427.61488340192585 112.50000000003406 424.48988340192585 112.50000000003357
M427.61488340192375 125.00000000003409
           Q427.6148834019217 137.50000000003408 424.4898834019217 137.50000000003357
M421.36488340192375 125.00000000003307
           Q421.3648834019217 137.50000000003305 424.4898834019217 137.50000000003357
M424.48988340192375 125.00000000003357 L418.23988340192375 125.00000000003259
"
style="stroke:black;stroke-width:2" fill="none" />
  <circle cx="417.45863340192375" cy="125.00000000003246" r="0.7812499999999998" stroke="black" stroke-width="3" fill="none" />
  <path d="M427.61488340192375 125.00000000003406 L424.48988340192375 125.00000000003357
M424.48988340192557 112.50000000003357 L449.48988340192557 112.50000000003725
M424.48988340192204 137.50000000003357 L449.48988340192204 137.50000000003723
M-0.510116598087464 199.99999999996558 L-0.5101165980798441 149.9999999999656
M-0.5101165980798441 149.9999999999656 L-50.51011659807983 149.9999999999577
M-50.51011659807983 149.9999999999577 L-50.51011659808799 199.9999999999577
M-50.51011659808799 199.9999999999577 L-0.510116598088004 199.99999999996615
M-19.260116598085823 187.4999999999628 L-19.26011659808365 174.9999999999628
M-19.260116598085823 187.4999999999628 L-31.76011659808582 187.49999999996055
M-31.76011659808582 187.49999999996055 L-31.760116598083645 174.99999999996055
M-31.760116598083645 174.99999999996055 L-38.01011659808364 174.99999999995944
M-38.01011659808364 174.99999999995944 L-25.510116598081503 162.49999999996157
M-25.510116598081503 162.49999999996157 L-13.01011659808358 174.99999999996365
M-13.01011659808358 174.99999999996365 L-19.260116598083577 174.99999999996265
M49.48988340191259 199.99999999997274 L49.48988340192021 149.99999999997277
M49.48988340192021 149.99999999997277 L-0.5101165980797759 149.99999999996487
M-0.5101165980797759 149.99999999996487 L-0.5101165980879349 199.99999999996487
M-0.5101165980879349 199.99999999996487 L49.48988340191205 199.9999999999733
M18.23988340191818 162.4999999999686 L18.239883401916142 174.9999999999686
M18.23988340191818 162.4999999999686 L30.739883401918178 162.4999999999707
M30.739883401918178 162.4999999999707 L30.73988340191614 174.9999999999707
M30.73988340191614 174.9999999999707 L36.98988340191614 174.99999999997175
M36.98988340191614 174.99999999997175 L24.489883401914135 187.49999999996973
M24.489883401914135 187.49999999996973 L11.989883401916074 174.9999999999678
M11.989883401916074 174.9999999999678 L18.239883401916074 174.9999999999687
M99.48988340191305 199.9999999999798 L99.48988340191958 149.99999999997982
M99.48988340191958 149.99999999997982 L49.4898834019196 149.999999999973
M49.4898834019196 149.999999999973 L49.489883401912515 199.999999999973
M49.489883401912515 199.999999999973 L99.4898834019125 199.99999999998036
M86.98988340191704 168.74999999997843 L74.48988340191704 168.74999999997647
M86.98988340191704 168.74999999997843 L86.989883401915 181.24999999997843
M86.989883401915 181.24999999997843 L74.489883401915 181.24999999997647
M74.489883401915 181.24999999997647 L74.48988340191397 187.49999999997647
M74.48988340191397 187.49999999997647 L61.98988340191591 174.99999999997453
M61.98988340191591 174.99999999997453 L74.48988340191778 162.4999999999764
M74.48988340191778 162.4999999999764 L74.4898834019169 168.7499999999764
M149.48988340191283 199.9999999999861 L149.48988340191937 149.99999999998613
M149.48988340191937 149.99999999998613 L99.48988340191939 149.9999999999793
M99.48988340191939 149.9999999999793 L99.48988340191231 199.9999999999793
M99.48988340191231 199.9999999999793 L149.4898834019123 199.99999999998667
M111.98988340191516 181.24999999998116 L124.48988340191516 181.249999999983
M111.98988340191516 181.24999999998116 L111.98988340191707 168.74999999998116
M111.98988340191707 168.74999999998116 L124.48988340191707 168.749999999983
M124.48988340191707 168.749999999983 L124.48988340191802 162.499999999983
M124.48988340191802 162.499999999983 L136.98988340191622 174.9999999999848
M136.98988340191622 174.9999999999848 L124.48988340191448 187.49999999998306
M124.48988340191448 187.49999999998306 L124.4898834019153 181.24999999998306
M199.489883401913 199.99999999999244 L199.48988340191954 149.99999999999244
M199.48988340191954 149.99999999999244 L149.48988340191954 149.99999999998562
M149.48988340191954 149.99999999998562 L149.48988340191246 199.99999999998562
M149.48988340191246 199.99999999998562 L199.48988340191244 199.99999999999298
M165.65104863708578 166.1611652351558
           A12.499999999999996 12.499999999999996 0 0 1 183.3287181667494 166.1611652351585 
M165.651048637083 183.83883476481947
           A12.499999999999996 12.499999999999996 0 0 1 165.65104863708578 166.1611652351558 
M183.32871816674663 183.83883476482234
           A12.499999999999996 12.499999999999996 0 0 1 165.651048637083 183.83883476481947 
M174.48988340191625 174.99999999998903 L183.32871816674663 183.83883476482234
M174.48988340191318 193.74999999998903 L183.32871816674654 184.9111652351587
M249.4898834019121 200.00000000000168 L249.4898834019208 150.0000000000017
M249.4898834019208 150.0000000000017 L199.4898834019208 149.99999999999272
M199.4898834019208 149.99999999999272 L199.48988340191156 199.99999999999272
M199.48988340191156 199.99999999999272 L249.48988340191153 200.00000000000222
M215.65104863708632 166.1611652351636
           A12.499999999999996 12.499999999999996 0 0 1 233.32871816674995 166.16116523516706 
M215.65104863708277 183.83883476482723
           A12.499999999999996 12.499999999999996 0 0 1 215.65104863708632 166.1611652351636 
M233.3287181667464 183.83883476483086
           A12.499999999999996 12.499999999999996 0 0 1 215.65104863708277 183.83883476482723 
M224.48988340191642 174.9999999999972 L233.32871816675015 166.16116523516723
M224.48988340192048 156.2499999999972 L233.32871816675046 165.08883476483086
M299.489883401912 200.00000000001194 L299.48988340192176 150.00000000001194
M299.48988340192176 150.00000000001194 L249.48988340192176 150.0000000000019
M249.48988340192176 150.0000000000019 L249.48988340191144 200.00000000000188
M249.48988340191144 200.00000000000188 L299.4898834019114 200.00000000001245
M286.9898834019168 175.00000000000966 L261.9898834019168 175.0000000000041
M349.4898834019114 200.00000000002302 L349.48988340192227 150.00000000002302
M349.48988340192227 150.00000000002302 L299.48988340192227 150.0000000000119
M299.48988340192227 150.0000000000119 L299.4898834019109 200.00000000001188
M299.4898834019109 200.00000000001188 L349.4898834019109 200.00000000002353
M324.48988340191687 175.00000000001742 L324.4898834019198 162.50000000001742
M324.48988340191687 175.00000000001742 L311.98988340191687 175.00000000001438
M324.48988340191687 175.00000000001742 L324.48988340191374 187.50000000001742
M324.48988340191687 175.00000000001742 L336.98988340191687 175.0000000000206
M399.4898834019104 200.00000000003652 L399.4898834019234 150.00000000003655
M399.4898834019234 150.00000000003655 L349.4898834019234 150.00000000002328
M349.4898834019234 150.00000000002328 L349.4898834019099 200.00000000002325
M349.4898834019099 200.00000000002325 L399.4898834019099 200.00000000003706
M374.4898834019169 175.00000000002987 L392.16755293158553 157.32233047037113
M374.4898834019169 175.00000000002987 L392.16755293157576 192.6776695296984
M374.4898834019169 175.00000000002987 L380.7398834019169 175.0000000000316
M386.9898834019169 175.00000000003334 L393.2398834019169 175.00000000003507
M449.4898834019099 200.0000000000506 L449.489883401924 150.0000000000506
M449.489883401924 150.0000000000506 L399.489883401924 150.00000000003624
M399.489883401924 150.00000000003624 L399.48988340190937 200.0000000000362
M399.48988340190937 200.0000000000362 L449.48988340190937 200.0000000000511
M424.4898834019169 175.00000000004337 L428.90930078433416 170.58058261762878
M433.3287181667514 166.16116523521418 L437.74813554916864 161.7417478527996
M442.1675529315859 157.322330470385 L446.5869703140031 152.9029130879704
M424.4898834019169 175.00000000004337 L449.4898834019169 175.00000000005082
M424.4898834019169 175.00000000004337 L442.1675529315754 192.67766952971226
M49.489883401894446 249.9999999999268 L49.48988340190961 199.99999999992684
M49.48988340190961 199.99999999992684 L-0.5101165980903772 199.9999999999114
M-0.5101165980903772 199.9999999999114 L-0.5101165981060826 249.99999999991138
M-0.5101165981060826 249.99999999991138 L49.489883401893906 249.99999999992735
"
style="stroke:black;stroke-width:2" fill="none" />
  <circle cx="24.489883401902034" cy="224.99999999991908" r="4" stroke="black" stroke-width="3" fill="black" />
  <path d="M99.48988340189389 249.99999999994304 L99.48988340191013 199.99999999994304
M99.48988340191013 199.99999999994304 L49.48988340191015 199.99999999992653
M49.48988340191015 199.99999999992653 L49.489883401893366 249.9999999999265
M49.489883401893366 249.9999999999265 L99.48988340189335 249.99999999994355
"
style="stroke:black;stroke-width:2" fill="none" />
  <circle cx="74.489883401902" cy="224.99999999993477" r="24.999999999999993" stroke="black" stroke-width="3" fill="none" />
  <circle cx="74.489883401902" cy="224.99999999993477" r="4" stroke="black" stroke-width="3" fill="black" />
  <path d="M149.48988340189334 249.99999999996035 L149.48988340191065 199.99999999996038
M149.48988340191065 199.99999999996038 L99.48988340191066 199.9999999999428
M99.48988340191066 199.9999999999428 L99.4898834018928 249.99999999994276
M99.4898834018928 249.99999999994276 L149.48988340189277 249.9999999999609
M124.48988340190198 224.99999999995157 L111.98988340190198 224.9999999999469
"
style="stroke:black;stroke-width:2" fill="none" />
  <circle cx="111.98988340190198" cy="224.9999999999469" r="4" stroke="black" stroke-width="3" fill="black" />
  <path d="M124.48988340190198 224.99999999995157 L136.98988340190198 224.9999999999561
"
style="stroke:black;stroke-width:2" fill="none" />
  <circle cx="136.98988340190198" cy="224.9999999999561" r="4" stroke="black" stroke-width="3" fill="black" />
  <path d="M199.48988340189305 249.99999999997874 L199.48988340191144 199.99999999997874
M199.48988340191144 199.99999999997874 L149.48988340191147 199.99999999996007
M149.48988340191147 199.99999999996007 L149.48988340189254 249.99999999996004
M149.48988340189254 249.99999999996004 L199.48988340189254 249.99999999997925
M156.81221387224554 207.32233047029877
           A24.999999999999993 24.999999999999993 0 0 1 192.1675529315728 207.32233047031255 
M174.4898834019023 224.9999999999694 L192.1675529315728 207.32233047031255
M174.4898834019023 224.9999999999694 L156.81221387224554 207.32233047029877
"
style="stroke:black;stroke-width:2" fill="none" />
  <circle cx="174.4898834019023" cy="224.9999999999694" r="4" stroke="black" stroke-width="3" fill="black" />
  <path d="M249.48988340189254 249.9999999999982 L249.489883401912 199.99999999999824
M249.489883401912 199.99999999999824 L199.48988340191204 199.99999999997848
M199.48988340191204 199.99999999997848 L199.48988340189203 249.99999999997846
M199.48988340189203 249.99999999997846 L249.48988340189203 249.99999999999875
M224.48988340189203 249.99999999998835 L224.4898834018946 243.74999999998835
"
style="stroke:black;stroke-width:2" fill="none" />
  <circle cx="224.48988340189973" cy="231.24999999998835" r="12.499999999999996" stroke="black" stroke-width="3" fill="none" />
  <circle cx="224.48988340190488" cy="218.74999999998835" r="12.499999999999996" stroke="black" stroke-width="3" fill="none" />
  <path d="M224.48988340191002 206.24999999998835 L224.48988340191258 199.99999999998835
M299.48988340189203 250.00000000001876 L299.4898834019126 200.00000000001876
M299.4898834019126 200.00000000001876 L249.4898834019126 199.99999999999793
M249.4898834019126 199.99999999999793 L249.48988340189152 249.9999999999979
M249.48988340189152 249.9999999999979 L299.4898834018915 250.00000000001927
M274.4898834018915 250.00000000000833 L274.48988340189425 243.75000000000833
M274.48988340189425 243.75000000000833 L274.48988340189965 231.25000000000833
M274.48988340189965 231.25000000000833 L261.98988340189965 231.25000000000284
M274.48988340189965 231.25000000000833 L286.98988340189965 231.25000000001367
M274.48988340190505 218.75000000000833 L286.98988340190505 218.75000000001367
M274.48988340190505 218.75000000000833 L261.98988340190505 218.75000000000313
M274.48988340190505 218.75000000000833 L261.9898834018998 231.25000000000307
M274.48988340190505 218.75000000000833 L286.98988340189976 231.25000000001364
M274.48988340190505 218.75000000000833 L274.48988340191045 206.25000000000833
M274.48988340191045 206.25000000000833 L274.4898834019132 200.00000000000833
M349.4898834018915 250.00000000004036 L349.4898834019132 200.00000000004036
M349.4898834019132 200.00000000004036 L299.4898834019132 200.00000000001845
M299.4898834019132 200.00000000001845 L299.489883401891 250.00000000001842
M299.489883401891 250.00000000001842 L349.489883401891 250.00000000004087
M324.489883401891 250.0000000000294 L324.4898834018948 241.66666666669605
M324.48988340191005 208.33333333336267 L324.48988340191386 200.00000000002933
"
style="stroke:black;stroke-width:2" fill="none" />
  <circle cx="324.48988340190243" cy="225.00000000002936" r="16.66666666666666" stroke="black" stroke-width="3" fill="none" />
  <path d="M307.82321673523575 225.00000000002169 L313.7157732451263 219.10744349013646
M307.82321673523575 225.00000000002169 L313.715773245121 230.8925565099122
M307.82321673523575 225.00000000002169 L301.93066022534526 230.892556509907
M307.82321673523575 225.00000000002169 L301.93066022535044 219.10744349013123
M341.1565500685691 225.00000000003595 L335.2639935586838 219.1074434901455
M341.1565500685691 225.00000000003595 L347.04910657845954 219.1074434901506
M341.1565500685691 225.00000000003595 L347.0491065784545 230.89255650992635
M341.1565500685691 225.00000000003595 L335.26399355867875 230.89255650992138
M399.48988340189214 250.0000000000594 L399.4898834019127 200.0000000000594
M399.4898834019127 200.0000000000594 L349.4898834019127 200.00000000003857
M349.4898834019127 200.00000000003857 L349.48988340189163 250.00000000003854
M349.48988340189163 250.00000000003854 L399.48988340189163 250.0000000000599
M374.48988340190243 225.00000000004897 L392.1675529315732 207.3223304703924
M374.48988340190243 225.00000000004897 L380.5269198162098 223.38238096816073
M386.56395623051714 221.7647619362725 L392.6009926448245 220.14714290438425
M374.48988340190243 225.00000000004897 L380.5269198162084 226.61761903194235
M386.5639562305144 228.23523806383574 L392.6009926448204 229.85285709572912
M374.48988340190243 225.00000000004897 L392.16755293155813 242.67766952972067
M449.48988340189044 250.0000000000853 L449.48988340191494 200.00000000008532
M449.48988340191494 200.00000000008532 L399.48988340191494 200.00000000006057
M399.48988340191494 200.00000000006057 L399.4898834018899 250.00000000006054
M399.4898834018899 250.00000000006054 L449.4898834018899 250.00000000008583
M424.4898834019027 225.00000000007293 L448.63802905913263 218.5295238725219
M424.4898834019027 225.00000000007293 L448.6380290591261 231.47047612764837
M424.4898834019027 225.00000000007293 L428.9093007843163 229.4194173824912
M433.3287181667299 233.83883476490945 L437.7481355491435 238.2582521473277
M424.4898834019027 225.00000000007293 L428.90930078432075 220.58058261765913
M433.3287181667388 216.16116523524533 L437.7481355491568 211.74174785283154
"
style="stroke:black;stroke-width:2" fill="none" />
</svg>
