<svg xmlns="http://www.w3.org/2000/svg" version="1.1"
viewBox="0 0 512 384" width="512" height="384" id="geometron_svg">
  <path d="M85.35533905932738 150 L85.35533905932738 114.64466094067262
M85.35533905932738 114.64466094067262 L50 114.64466094067262
M50 114.64466094067262 L49.99999999999999 150
M49.99999999999999 150 L85.35533905932738 150
"
style="stroke:black;stroke-width:2" fill="none" />
  <circle cx="67.67766952966369" cy="132.3223304703363" r="17.67766952966369" stroke="black" stroke-width="3" fill="none" />
  <path d="M67.67766952966369 132.3223304703363 L67.67766952966369 114.64466094067262
M67.67766952966369 132.3223304703363 L85.35533905932738 132.3223304703363
M67.67766952966369 132.3223304703363 L67.67766952966369 150
M67.67766952966369 132.3223304703363 L50 132.3223304703363
"
style="stroke:black;stroke-width:2" fill="none" />
  <circle cx="61.42766952966369" cy="126.07233047033631" r="4.419417382415922" stroke="black" stroke-width="3" fill="none" />
  <circle cx="73.92766952966369" cy="126.07233047033631" r="4.419417382415922" stroke="black" stroke-width="3" fill="none" />
  <circle cx="73.92766952966369" cy="138.5723304703363" r="4.419417382415922" stroke="black" stroke-width="3" fill="none" />
  <circle cx="61.42766952966369" cy="138.5723304703363" r="4.419417382415922" stroke="black" stroke-width="3" fill="none" />
  <path d="M120.71067811865476 150 L120.71067811865476 114.64466094067262
M120.71067811865476 114.64466094067262 L85.35533905932738 114.64466094067262
M85.35533905932738 114.64466094067262 L85.35533905932738 150
M85.35533905932738 150 L120.71067811865476 150
M103.03300858899107 132.3223304703363 L103.03300858899107 114.64466094067262
M103.03300858899107 132.3223304703363 L119.84547138809 126.85963016472604
M103.03300858899107 132.3223304703363 L113.42368203342741 146.6238655407784
M103.03300858899107 132.3223304703363 L92.64233514455474 146.6238655407784
M103.03300858899107 132.3223304703363 L86.22054578989213 126.85963016472606
"
style="stroke:black;stroke-width:2" fill="none" />
  <circle cx="103.03300858899107" cy="132.3223304703363" r="17.67766952966369" stroke="black" stroke-width="3" fill="none" />
  <circle cx="108.22834531120924" cy="125.17156293511526" r="2.209708691207961" stroke="black" stroke-width="3" fill="none" />
  <circle cx="111.43923998854054" cy="135.05368062314145" r="2.209708691207961" stroke="black" stroke-width="3" fill="none" />
  <circle cx="103.03300858899107" cy="141.16116523516814" r="2.209708691207961" stroke="black" stroke-width="3" fill="none" />
  <circle cx="94.6267771894416" cy="135.05368062314142" r="2.209708691207961" stroke="black" stroke-width="3" fill="none" />
  <circle cx="97.8376718667729" cy="125.17156293511523" r="2.209708691207961" stroke="black" stroke-width="3" fill="none" />
  <path d="M156.06601717798213 149.99999999999994 L156.0660171779821 114.64466094067257
M156.0660171779821 114.64466094067257 L120.71067811865473 114.64466094067258
M120.71067811865473 114.64466094067258 L120.71067811865474 149.99999999999994
M120.71067811865474 149.99999999999994 L156.06601717798213 149.99999999999994
M138.38834764831844 132.32233047033625 L138.38834764831844 114.64466094067257
M138.38834764831844 132.32233047033625 L153.6976585407133 123.4834957055044
M138.38834764831844 132.32233047033625 L153.69765854071332 141.16116523516808
M138.38834764831844 132.32233047033625 L138.38834764831847 149.99999999999994
M138.38834764831844 132.32233047033625 L123.0790367559236 141.1611652351681
"
style="stroke:black;stroke-width:2" fill="none" />
  <circle cx="138.38834764831844" cy="132.32233047033625" r="17.67766952966369" stroke="black" stroke-width="3" fill="none" />
  <circle cx="133.96893026590251" cy="124.66767502413883" r="2.209708691207961" stroke="black" stroke-width="3" fill="none" />
  <circle cx="142.80776503073434" cy="124.66767502413882" r="2.209708691207961" stroke="black" stroke-width="3" fill="none" />
  <circle cx="147.22718241315027" cy="132.32233047033625" r="2.209708691207961" stroke="black" stroke-width="3" fill="none" />
  <circle cx="142.80776503073434" cy="139.9769859165337" r="2.209708691207961" stroke="black" stroke-width="3" fill="none" />
  <circle cx="133.9689302659025" cy="139.9769859165337" r="2.209708691207961" stroke="black" stroke-width="3" fill="none" />
  <path d="M138.38834764831842 132.32233047033625 L123.07903675592354 123.48349570550442
"
style="stroke:black;stroke-width:2" fill="none" />
  <circle cx="129.54951288348656" cy="132.32233047033625" r="2.209708691207961" stroke="black" stroke-width="3" fill="none" />
  <path d="M191.42135623730954 149.99999999999991 L191.42135623730945 114.64466094067254
M191.42135623730945 114.64466094067254 L156.06601717798208 114.64466094067262
M156.06601717798208 114.64466094067262 L156.06601717798216 150
M156.06601717798216 150 L191.42135623730954 149.99999999999991
M173.74368670764585 149.99999999999994 L191.4213562373095 132.32233047033623
M191.4213562373095 132.32233047033623 L173.74368670764576 114.6446609406726
M173.74368670764576 114.6446609406726 L156.06601717798216 132.32233047033637
M156.06601717798216 132.32233047033637 L173.74368670764594 149.99999999999997
M191.42135623730962 149.9999999999999 L226.776695296637 149.99999999999972
M191.42135623730962 149.9999999999999 L209.09902576697306 95.59372751292926
M226.776695296637 149.99999999999972 L209.09902576697306 95.59372751292926
M226.776695296637 149.99999999999972 L226.77669529663683 114.64466094067234
M226.77669529663683 114.64466094067234 L191.42135623730945 114.6446609406725
M191.42135623730945 114.6446609406725 L191.42135623730962 149.9999999999999
M191.42135623730962 149.9999999999999 L226.776695296637 149.99999999999972
M226.776695296637 149.99999999999972 L198.1736251557527 129.21865311112717
M198.1736251557527 129.21865311112717 L215.85129468541632 116.3750744018019
M215.85129468541632 116.3750744018019 L204.92589407419575 108.43730622225446
M262.1320343559644 149.99999999999955 L262.1320343559642 114.64466094067217
M262.1320343559642 114.64466094067217 L226.77669529663683 114.64466094067232
M226.77669529663683 114.64466094067232 L226.77669529663697 149.99999999999972
M226.77669529663697 149.99999999999972 L262.1320343559644 149.99999999999957
M262.1320343559644 149.99999999999957 L244.45436482630055 119.38137821520993
M244.45436482630055 119.38137821520993 L226.77669529663692 149.9999999999997
M244.45436482630055 119.38137821520993 L244.45436482630058 149.99999999999966
M244.45436482630058 149.99999999999966 L257.71261697354834 142.34534455380225
M297.48737341529164 149.99999999999977 L297.4873734152917 114.6446609406724
M297.4873734152917 114.6446609406724 L262.1320343559643 114.64466094067231
M262.1320343559643 114.64466094067231 L262.1320343559642 149.9999999999997
M262.1320343559642 149.9999999999997 L297.4873734152916 149.99999999999972
M279.80970388562787 141.1611652351679 L279.80970388562787 132.32233047033606
M279.80970388562787 141.1611652351679 L270.970869120796 141.16116523516794
M270.970869120796 141.16116523516794 L270.970869120796 132.3223304703361
M270.970869120796 132.3223304703361 L279.80970388562787 132.3223304703361
M279.80970388562787 132.3223304703361 L288.6485386504597 132.3223304703361
M288.6485386504597 132.3223304703361 L288.6485386504597 141.16116523516797
M288.6485386504597 141.16116523516797 L279.80970388562787 141.16116523516794
M332.84271247461896 149.99999999999994 L332.842712474619 114.64466094067257
M332.842712474619 114.64466094067257 L297.48737341529164 114.64466094067248
M297.48737341529164 114.64466094067248 L297.48737341529153 149.99999999999986
M297.48737341529153 149.99999999999986 L332.8427124746189 149.9999999999999
M309.2724864350673 138.21488698022415 L309.2724864350673 126.42977396044836
M309.2724864350673 126.42977396044836 L297.48737341529153 126.42977396044839
M297.48737341529153 126.42977396044839 L297.4873734152916 138.21488698022418
M297.4873734152916 138.21488698022418 L309.2724864350674 138.2148869802241
M321.05759945484317 138.214886980224 L321.05759945484306 126.42977396044822
M321.05759945484306 126.42977396044822 L309.27248643506726 126.42977396044833
M309.27248643506726 126.42977396044833 L309.2724864350674 138.21488698022412
M309.2724864350674 138.21488698022412 L321.05759945484317 138.21488698022398
M332.84271247461896 138.21488698022384 L332.8427124746188 126.42977396044805
M332.8427124746188 126.42977396044805 L321.057599454843 126.42977396044824
M321.057599454843 126.42977396044824 L321.0575994548432 138.21488698022404
M321.0575994548432 138.21488698022404 L332.842712474619 138.2148869802238
M368.1980515339466 149.9999999999989 L368.1980515339459 114.64466094067151
M368.1980515339459 114.64466094067151 L332.8427124746185 114.64466094067234
M332.8427124746185 114.64466094067234 L332.8427124746194 149.99999999999972
M332.8427124746194 149.99999999999972 L368.1980515339468 149.99999999999878
M332.8427124746189 132.32233047033614 L341.68154723945077 132.3223304703359
M359.3592167691145 132.32233047033546 L368.19805153394634 132.32233047033523
M341.68154723945077 132.3223304703359 L341.68154723945025 114.64466094067222
M341.68154723945077 132.3223304703359 L341.6815472394512 149.9999999999996
M359.3592167691145 132.32233047033546 L341.6815472394513 149.99999999999963
M359.3592167691145 132.32233047033546 L341.6815472394502 114.64466094067235
M403.55339059327446 149.99999999999733 L403.5533905932729 114.64466094066995
M403.5533905932729 114.64466094066995 L368.19805153394555 114.64466094067153
M368.19805153394555 114.64466094067153 L368.1980515339472 149.99999999999892
M368.1980515339472 149.99999999999892 L403.55339059327457 149.99999999999721
"
style="stroke:black;stroke-width:2" fill="none" />
  <circle cx="385.87572106361006" cy="132.32233047033444" r="4" stroke="black" stroke-width="3" fill="black" />
  <path d="M392.1257210636097 126.07233047033411 L398.3757210636094 119.82233047033378
M373.37572106361074 144.82233047033512 L379.6257210636104 138.57233047033478
M373.3757210636094 119.82233047033515 L379.6257210636097 126.07233047033479
M392.1257210636104 138.57233047033407 L398.37572106361074 144.8223304703337
M85.35533905933005 185.35533905934113 L85.35533905932829 150.00000000001376
M85.35533905932829 150.00000000001376 L50.00000000000091 150.00000000001558
M50.00000000000091 150.00000000001558 L50.00000000000279 185.35533905934295
M50.00000000000279 185.35533905934295 L85.35533905933016 185.35533905934102
M76.51650429449782 176.51650429450967 L76.51650429449683 158.83883476484598
M76.51650429449683 158.83883476484598 L58.83883476483314 158.838834764847
M58.83883476483314 158.838834764847 L58.838834764834196 176.5165042945107
M58.838834764834196 176.5165042945107 L76.51650429449788 176.51650429450962
M120.71067811865765 185.35533905933875 L120.71067811865541 150.00000000001137
M120.71067811865541 150.00000000001137 L85.35533905932803 150.00000000001367
M85.35533905932803 150.00000000001367 L85.35533905933039 185.35533905934105
M85.35533905933039 185.35533905934105 L120.71067811865777 185.35533905933863
M85.35533905932925 167.6776695296771 L89.77475644174518 167.67766952967682
M89.77475644174518 167.67766952967682 L91.98446513295336 171.5049972527754
M94.19417382416111 167.67766952967654 L91.98446513295335 171.50499725277535
M94.19417382416111 167.67766952967654 L96.40388251536882 163.85034180657766
M98.61359120657704 167.67766952967625 L96.40388251536882 163.8503418065777
M98.61359120657704 167.67766952967625 L100.82329989778519 171.50499725277487
M103.03300858899297 167.67766952967602 L100.82329989778518 171.50499725277484
M103.03300858899297 167.67766952967602 L105.24271728020071 163.85034180657718
M107.4524259714089 167.6776695296758 L105.24271728020068 163.85034180657723
M107.4524259714089 167.6776695296758 L109.66213466261705 171.50499725277442
M111.87184335382483 167.67766952967557 L109.66213466261704 171.5049972527744
M111.87184335382483 167.67766952967557 L114.08155204503257 163.85034180657672
M116.29126073624076 167.67766952967534 L114.08155204503254 163.85034180657678
M116.29126073624076 167.67766952967534 L120.71067811865669 167.67766952967511
M156.06601717798492 185.35533905933713 L156.06601717798318 150.00000000000975
M156.06601717798318 150.00000000000975 L120.7106781186558 150.00000000001128
M120.7106781186558 150.00000000001128 L120.71067811865716 185.35533905933866
M120.71067811865716 185.35533905933866 L156.06601717798452 185.3553390593375
M120.71067811865666 167.67766952967494 L125.13009550107259 167.6776695296748
M125.13009550107259 167.6776695296748 L133.96893026590442 167.67766952967452
M133.96893026590442 167.67766952967452 L133.96893026590476 176.51650429450638
M133.96893026590442 167.67766952967452 L133.96893026590416 158.83883476484266
M142.80776503073628 167.67766952967423 L142.80776503073602 158.83883476484237
M142.80776503073628 167.67766952967423 L142.80776503073642 176.5165042945061
M142.80776503073628 167.67766952967423 L151.64659979556814 167.67766952967412
M151.64659979556814 167.67766952967412 L156.06601717798407 167.67766952967406
M191.42135623731156 185.35533905933735 L191.42135623731136 150.00000000000998
M191.42135623731136 150.00000000000998 L156.06601717798398 150.00000000001
M156.06601717798398 150.00000000001 L156.0660171779838 185.35533905933738
M156.0660171779838 185.35533905933738 L191.4213562373112 185.35533905933775
M156.0660171779841 167.67766952967372 L158.27572586919206 167.67766952967375
M158.27572586919206 167.6776695296737
           Q158.27572586919226 155.8925565098979 162.2040968757842 155.892556509898
M166.13246788237592 167.6776695296738
           Q166.13246788237612 155.89255650989801 162.2040968757842 155.892556509898
M163.5135538779813 167.67766952967372
           Q163.5135538779815 155.89255650989793 167.44192488457344 155.89255650989801
M166.13246788237592 167.67766952967378
           Q166.1324678823758 171.6060405362657 164.8230108801785 171.60604053626568
M163.51355387798128 167.67766952967372
           Q163.51355387798117 171.60604053626565 164.8230108801785 171.60604053626568
M171.37029589116517 167.67766952967378
           Q171.37029589116537 155.892556509898 167.44192488457344 155.89255650989796
M168.75138188677056 167.6776695296737
           Q168.75138188677076 155.8925565098979 172.6797528933627 155.892556509898
M171.37029589116517 167.67766952967375
           Q171.37029589116506 171.60604053626568 170.06083888896774 171.60604053626565
M168.75138188677053 167.6776695296737
           Q168.75138188677042 171.60604053626562 170.06083888896774 171.60604053626565
M176.60812389995442 167.67766952967375
           Q176.60812389995462 155.89255650989796 172.6797528933627 155.89255650989793
M173.9892098955598 167.67766952967366
           Q173.98920989556 155.89255650989787 177.91758090215194 155.89255650989796
M176.60812389995442 167.67766952967372
           Q176.6081238999543 171.60604053626565 175.298666897757 171.60604053626562
M173.98920989555978 167.67766952967366
           Q173.98920989555967 171.6060405362656 175.298666897757 171.60604053626562
M181.84595190874367 167.67766952967372
           Q181.84595190874387 155.89255650989793 177.91758090215194 155.8925565098979
M179.22703790434906 167.67766952967364
           Q179.22703790434926 155.89255650989784 183.1554089109412 155.89255650989793
M181.84595190874367 167.6776695296737
           Q181.84595190874356 171.60604053626562 180.53649490654624 171.6060405362656
M179.22703790434903 167.67766952967364
           Q179.22703790434892 171.60604053626557 180.53649490654624 171.6060405362656
M187.08377991753292 167.6776695296737
           Q187.08377991753312 155.8925565098979 183.1554089109412 155.89255650989787
M187.08377991753292 167.6776695296737 L191.01215092412485 167.67766952967372
M191.01215092412485 167.67766952967372 L191.06064933161363 167.67766952967372
M226.4159883909407 185.35533905933778 L226.41598839094127 150.0000000000104
M226.41598839094127 150.0000000000104 L191.0606493316139 150.00000000000966
M191.0606493316139 150.00000000000966 L191.06064933161295 185.35533905933704
M191.06064933161295 185.35533905933704 L226.4159883909403 185.35533905933818
M208.73831886127772 150.00000000001003 L208.73831886127726 167.67766952967372
M208.73831886127726 167.67766952967372 L196.23831886127726 167.67766952967347
M196.23831886127726 167.67766952967347 L208.7383188612769 180.17766952967384
M208.7383188612769 180.17766952967384 L221.23831886127732 167.67766952967426
M221.23831886127732 167.67766952967426 L208.73831886127732 167.67766952967372
M261.77132745026773 185.35533905933912 L261.77132745026904 150.00000000001177
M261.77132745026904 150.00000000001177 L226.41598839094166 150.00000000001026
M226.41598839094166 150.00000000001026 L226.41598839093996 185.3553390593376
M226.41598839093996 185.3553390593376 L261.77132745026734 185.35533905933949
M226.41598839094098 167.67766952967392 L261.77132745026836 167.6776695296758
M238.20110141071711 161.78511301978665 L249.9862144304923 173.57022603956304
M238.20110141071655 173.57022603956244 L249.986214430493 161.7851130197873
M297.1266665095948 185.35533905934136 L297.12666650959693 150.00000000001398
M297.12666650959693 150.00000000001398 L261.77132745026955 150.0000000000117
M261.77132745026955 150.0000000000117 L261.7713274502671 185.3553390593391
M261.7713274502671 185.3553390593391 L297.1266665095945 185.35533905934173
M261.7713274502686 167.67766952967537 L273.5564404700444 167.67766952967625
M273.5564404700444 167.67766952967625 L273.55644047004483 161.78511301978835
M273.5564404700444 167.67766952967625 L273.55644047004387 173.57022603956415
M273.55644047004483 161.78511301978835 L285.3415534898206 161.78511301978924
M273.55644047004483 161.78511301978835 L285.3415534898198 173.570226039565
M273.55644047004404 173.57022603956415 L285.34155348981983 173.57022603956503
M273.55644047004404 173.57022603956415 L285.34155348982074 161.78511301978926
M285.3415534898202 167.67766952967716 L285.3415534898207 161.78511301978926
M285.3415534898202 167.67766952967716 L285.34155348981983 173.57022603956506
M285.3415534898202 167.67766952967716 L291.2341099997081 167.67766952967762
M291.2341099997081 167.67766952967762 L297.12666650959596 167.67766952967807
M332.4820055689219 185.3553390593444 L332.48200556892476 150.00000000001705
M332.48200556892476 150.00000000001705 L297.1266665095974 150.000000000014
M297.1266665095974 150.000000000014 L297.12666650959414 185.35533905934136
M297.12666650959414 185.35533905934136 L332.4820055689215 185.35533905934477
"
style="stroke:black;stroke-width:2" fill="none" />
  <circle cx="314.8043360392597" cy="167.67766952967918" r="8.83883476483184" stroke="black" stroke-width="3" fill="none" />
  <path d="M314.80433603925917 172.09708691209497 L318.1868116651737 163.93106838161796
M314.80433603925917 172.09708691209497 L311.4218604133463 163.93106838161725
M367.8373446282489 185.35533905934773 L367.8373446282525 150.00000000002035
M367.8373446282525 150.00000000002035 L332.4820055689251 150.00000000001657
M332.4820055689251 150.00000000001657 L332.4820055689211 185.35533905934392
M332.4820055689211 185.35533905934392 L367.8373446282485 185.3553390593481
M350.1596750985859 176.51650429451396 L358.9985098634178 176.5165042945152
M350.1596750985859 176.51650429451396 L341.32084033375406 176.51650429451283
M350.1596750985851 182.40906080440183 L347.2133968436412 182.40906080440146
M350.1596750985851 182.40906080440183 L353.10595335352906 182.40906080440223
M350.1596750985856 179.4627825494579 L353.1059533535295 179.4627825494583
M353.1059533535295 179.4627825494583 L356.05223160847345 179.4627825494587
M344.2671185886977 179.4627825494571 L347.21339684364165 179.4627825494575
M347.21339684364165 179.4627825494575 L350.1596750985856 179.4627825494579
M350.159675098586 176.51650429451396 L350.15967509858854 158.83883476485028
M403.1926836875757 185.3553390593532 L403.1926836875808 150.00000000002586
M403.1926836875808 150.00000000002586 L367.83734462825345 150.00000000002055
M367.83734462825345 150.00000000002055 L367.83734462824793 185.3553390593479
M367.83734462824793 185.3553390593479 L403.1926836875753 185.3553390593536
M383.30530546670667 167.6776695296868
           Q383.30530546670815 158.83883476485497 385.5150141579161 158.8388347648553
M387.72472284912254 167.6776695296875
           Q387.724722849124 158.83883476485568 385.5150141579161 158.8388347648553
M387.72472284912254 167.6776695296875
           Q387.7247228491211 176.51650429451934 385.5150141579132 176.51650429451897
M383.30530546670667 167.6776695296868
           Q383.30530546670525 176.51650429451863 385.5150141579132 176.51650429451897
M385.5150141579146 167.67766952968714 L381.0955967754987 167.67766952968643
"
style="stroke:black;stroke-width:2" fill="none" />
  <circle cx="380.5431696026967" cy="167.67766952968634" r="0.55242717280199" stroke="black" stroke-width="3" fill="none" />
  <path d="M387.72472284912254 167.67766952968748 L385.5150141579146 167.67766952968714
M385.51501415791597 158.83883476485528 L403.19268368757963 158.83883476485786
M385.51501415791347 176.51650429451897 L403.19268368757713 176.51650429452155
M84.994632153624 220.71067811863023 L84.99463215362938 185.35533905930288
M84.99463215362938 185.35533905930288 L49.63929309430202 185.3553390592973
M49.63929309430202 185.3553390592973 L49.63929309429625 220.71067811862468
M49.63929309429625 220.71067811862468 L84.99463215362361 220.71067811863065
M71.73638000637739 211.87184335379644 L71.73638000637892 203.0330085889646
M71.73638000637739 211.87184335379644 L62.897545241545544 211.87184335379484
M62.897545241545544 211.87184335379484 L62.89754524154708 203.033008588963
M62.89754524154708 203.033008588963 L58.478127859131156 203.03300858896222
M58.478127859131156 203.03300858896222 L67.31696262396451 194.1941738241319
M67.31696262396451 194.1941738241319 L76.1557973887949 203.0330085889652
M76.1557973887949 203.0330085889652 L71.73638000637898 203.0330085889645
M120.34997121295142 220.71067811863537 L120.3499712129568 185.355339059308
M120.3499712129568 185.355339059308 L84.99463215362944 185.35533905930242
M84.99463215362944 185.35533905930242 L84.99463215362367 220.7106781186298
M84.99463215362367 220.7106781186298 L120.34997121295103 220.71067811863577
M98.25288430087576 194.19417382413687 L98.25288430087433 203.0330085889687
M98.25288430087576 194.19417382413687 L107.09171906570761 194.19417382413835
M107.09171906570761 194.19417382413835 L107.09171906570617 203.03300858897018
M107.09171906570617 203.03300858897018 L111.51113644812209 203.03300858897092
M111.51113644812209 203.03300858897092 L102.67230168328882 211.87184335380135
M102.67230168328882 211.87184335380135 L93.83346691845836 203.03300858896813
M93.83346691845836 203.03300858896813 L98.25288430087427 203.03300858896878
M155.70531027227912 220.71067811864026 L155.70531027228375 185.35533905931288
M155.70531027228375 185.35533905931288 L120.34997121295639 185.35533905930808
M120.34997121295639 185.35533905930808 L120.34997121295139 220.71067811863543
M120.34997121295139 220.71067811863543 L155.70531027227875 220.71067811864063
M146.86647550745016 198.61359120655965 L138.02764074261833 198.61359120655825
M146.86647550745016 198.61359120655965 L146.8664755074487 207.45242597139148
M146.8664755074487 207.45242597139148 L138.02764074261688 207.45242597139008
M138.02764074261688 207.45242597139008 L138.02764074261617 211.871843353806
M138.02764074261617 211.871843353806 L129.1888059777857 203.0330085889728
M129.1888059777857 203.0330085889728 L138.02764074261887 194.19417382414227
M138.02764074261887 194.19417382414227 L138.02764074261825 198.6135912065582
M191.06064933160638 220.71067811864458 L191.06064933161102 185.3553390593172
M191.06064933161102 185.3553390593172 L155.70531027228367 185.3553390593124
M155.70531027228367 185.3553390593124 L155.70531027227867 220.71067811863975
M155.70531027227867 220.71067811863975 L191.06064933160604 220.71067811864495
M164.54414503711251 207.4524259713933 L173.38297980194434 207.4524259713946
M164.54414503711251 207.4524259713933 L164.54414503711385 198.61359120656147
M164.54414503711385 198.61359120656147 L173.38297980194568 198.61359120656277
M173.38297980194568 198.61359120656277 L173.38297980194636 194.19417382414684
M173.38297980194636 194.19417382414684 L182.2218145667769 203.03300858897995
M182.2218145667769 203.03300858897995 L173.38297980194383 211.87184335381056
M173.38297980194383 211.87184335381056 L173.3829798019444 207.45242597139463
M226.41598839093382 220.710678118649 L226.41598839093845 185.35533905932164
M226.41598839093845 185.35533905932164 L191.0606493316111 185.35533905931683
M191.0606493316111 185.35533905931683 L191.0606493316061 220.71067811864418
M191.0606493316061 220.71067811864418 L226.41598839093348 220.71067811864938
M202.48831886127346 196.78300858898194
           A8.83883476483184 8.83883476483184 0 0 1 214.98831886127343 196.78300858898385 
M202.4883188612715 209.28300858898191
           A8.83883476483184 8.83883476483184 0 0 1 202.48831886127346 196.78300858898194 
M214.98831886127144 209.28300858898393
           A8.83883476483184 8.83883476483184 0 0 1 202.4883188612715 209.28300858898191 
M208.7383188612725 203.0330085889829 L214.98831886127144 209.28300858898393
M208.73831886127033 216.29126073623067 L214.9883188612714 210.04126073623175
M261.7713274502606 220.71067811865555 L261.77132745026677 185.35533905932817
M261.77132745026677 185.35533905932817 L226.4159883909394 185.35533905932184
M226.4159883909394 185.35533905932184 L226.41598839093285 220.71067811864918
M226.41598839093285 220.71067811864918 L261.77132745026023 220.71067811865592
M237.84365792060126 196.78300858898746
           A8.83883476483184 8.83883476483184 0 0 1 250.3436579206012 196.7830085889899 
M237.84365792059873 209.2830085889874
           A8.83883476483184 8.83883476483184 0 0 1 237.84365792060126 196.78300858898746 
M250.3436579205987 209.28300858899
           A8.83883476483184 8.83883476483184 0 0 1 237.84365792059873 209.2830085889874 
M244.0936579206 203.03300858898868 L250.34365792060134 196.78300858899001
M244.0936579206029 189.77475644174092 L250.3436579206016 196.02475644174223
M297.12666650958795 220.71067811866286 L297.1266665095949 185.3553390593355
M297.1266665095949 185.3553390593355 L261.7713274502675 185.3553390593284
M261.7713274502675 185.3553390593284 L261.77132745026023 220.71067811865578
M261.77132745026023 220.71067811865578 L297.1266665095876 220.71067811866325
M288.2878317447596 203.0330085889976 L270.61016221509595 203.03300858899368
M332.482005568915 220.71067811867073 L332.48200556892266 185.35533905934335
M332.48200556892266 185.35533905934335 L297.1266665095953 185.35533905933548
M297.1266665095953 185.35533905933548 L297.1266665095872 220.71067811866283
M297.1266665095872 220.71067811866283 L332.4820055689146 220.71067811867107
M314.80433603925513 203.03300858900306 L314.80433603925724 194.19417382417123
M314.80433603925513 203.03300858900306 L305.9655012744233 203.0330085890009
M314.80433603925513 203.03300858900306 L314.8043360392529 211.8718433538349
M314.80433603925513 203.03300858900306 L323.643170804087 203.0330085890053
M367.8373446282416 220.71067811868025 L367.83734462825083 185.3553390593529
M367.83734462825083 185.3553390593529 L332.48200556892346 185.35533905934352
M332.48200556892346 185.35533905934352 L332.48200556891385 220.7106781186709
M332.48200556891385 220.7106781186709 L367.8373446282412 220.71067811868068
M350.15967509858257 203.0330085890119 L362.65967509858604 190.5330085890154
M350.15967509858257 203.0330085890119 L362.65967509857916 215.5330085890153
M350.15967509858257 203.0330085890119 L354.5790924809985 203.03300858901312
M358.9985098634144 203.03300858901434 L363.41792724583036 203.03300858901557
M403.1926836875686 220.71067811869025 L403.19268368757855 185.3553390593629
M403.19268368757855 185.3553390593629 L367.8373446282512 185.35533905935276
M367.8373446282512 185.35533905935276 L367.8373446282408 220.7106781186801
M367.8373446282408 220.7106781186801 L403.1926836875682 220.71067811869065
M385.5150141579099 203.0330085890215 L388.64001415791085 199.90800858902244
M391.7650141579118 196.78300858902338 L394.8900141579128 193.65800858902432
M398.01501415791375 190.53300858902526 L401.1400141579147 187.4080085890262
M385.5150141579099 203.0330085890215 L403.19268368757355 203.03300858902676
M385.5150141579099 203.0330085890215 L398.0150141579062 215.5330085890252
M84.99463215361126 256.0660171779192 L84.99463215362199 220.71067811859183
M84.99463215362199 220.71067811859183 L49.63929309429463 220.71067811858092
M49.63929309429463 220.71067811858092 L49.63929309428352 256.0660171779083
M49.63929309428352 256.0660171779083 L84.9946321536109 256.0660171779196
"
style="stroke:black;stroke-width:2" fill="none" />
  <circle cx="67.31696262395295" cy="238.3883476482501" r="4" stroke="black" stroke-width="3" fill="black" />
  <path d="M120.34997121293826 256.06601717793075 L120.34997121294974 220.71067811860337
M120.34997121294974 220.71067811860337 L84.99463215362238 220.7106781185917
M84.99463215362238 220.7106781185917 L84.99463215361051 256.06601717791904
M84.99463215361051 256.06601717791904 L120.34997121293787 256.0660171779311
"
style="stroke:black;stroke-width:2" fill="none" />
  <circle cx="102.67230168328032" cy="238.38834764826117" r="17.67766952966368" stroke="black" stroke-width="3" fill="none" />
  <circle cx="102.67230168328032" cy="238.38834764826117" r="4" stroke="black" stroke-width="3" fill="black" />
  <path d="M155.70531027226525 256.0660171779429 L155.7053102722775 220.71067811861553
M155.7053102722775 220.71067811861553 L120.34997121295014 220.71067811860308
M120.34997121295014 220.71067811860308 L120.3499712129375 256.06601717793046
M120.3499712129375 256.06601717793046 L155.70531027226485 256.0660171779433
M138.02764074260767 238.38834764827303 L129.18880597777584 238.38834764826973
"
style="stroke:black;stroke-width:2" fill="none" />
  <circle cx="129.18880597777584" cy="238.38834764826973" r="4" stroke="black" stroke-width="3" fill="black" />
  <path d="M138.02764074260767 238.38834764827303 L146.8664755074395 238.38834764827624
"
style="stroke:black;stroke-width:2" fill="none" />
  <circle cx="146.8664755074395" cy="238.38834764827624" r="4" stroke="black" stroke-width="3" fill="black" />
  <path d="M191.0606493315924 256.0660171779559 L191.06064933160542 220.71067811862855
M191.06064933160542 220.71067811862855 L155.70531027227804 220.71067811861536
M155.70531027227804 220.71067811861536 L155.70531027226465 256.06601717794274
M155.70531027226465 256.06601717794274 L191.060649331592 256.0660171779563
M160.8829798019401 225.88834764828076
           A17.67766952966368 17.67766952966368 0 0 1 185.88297980194002 225.88834764829048 
M173.3829798019352 238.38834764828565 L185.88297980194002 225.88834764829048
M173.3829798019352 238.38834764828565 L160.8829798019401 225.88834764828076
"
style="stroke:black;stroke-width:2" fill="none" />
  <circle cx="173.3829798019352" cy="238.38834764828565" r="4" stroke="black" stroke-width="3" fill="black" />
  <path d="M226.41598839091938 256.0660171779697 L226.41598839093317 220.7106781186423
M226.41598839093317 220.7106781186423 L191.06064933160582 220.71067811862835
M191.06064933160582 220.71067811862835 L191.06064933159166 256.0660171779557
M191.06064933159166 256.0660171779557 L226.41598839091904 256.06601717797
M226.41598839091904 256.06601717797 L208.73831886126828 225.44739539317283
M208.73831886126828 225.44739539317283 L191.0606493315903 256.0660171779543
M191.0606493315903 256.0660171779543 L226.41598839091768 256.0660171779724
M261.77132745024505 256.0660171779915 L261.7713274502644 220.71067811866413
M261.7713274502644 220.71067811866413 L226.415988390937 220.71067811864464
M226.415988390937 220.71067811864464 L226.4159883909173 256.066017177972
M226.4159883909173 256.066017177972 L261.77132745024466 256.0660171779919
M244.09365792058097 256.0660171779818 L244.09365792058347 251.64659979556586
"
style="stroke:black;stroke-width:2" fill="none" />
  <circle cx="244.0936579205885" cy="242.80776503073403" r="8.83883476483184" stroke="black" stroke-width="3" fill="none" />
  <circle cx="244.09365792059353" cy="233.9689302659022" r="8.83883476483184" stroke="black" stroke-width="3" fill="none" />
  <path d="M244.09365792059856 225.13009550107037 L244.09365792060106 220.71067811865444
M297.12666650957203 256.06601717801163 L297.1266665095921 220.71067811868426
M297.1266665095921 220.71067811868426 L261.7713274502647 220.710678118664
M261.7713274502647 220.710678118664 L261.77132745024426 256.06601717799134
M261.77132745024426 256.06601717799134 L297.12666650957163 256.066017178012
M279.448996979908 256.06601717800146 L279.4489969799106 251.64659979558553
M279.4489969799106 251.64659979558553 L279.4489969799158 242.8077650307537
M279.4489969799158 242.8077650307537 L270.61016221508396 242.80776503074844
M279.4489969799158 242.8077650307537 L288.2878317447477 242.80776503075887
M279.44899697992105 233.96893026592187 L288.2878317447529 233.96893026592704
M279.44899697992105 233.96893026592187 L270.6101622150892 233.9689302659168
M279.44899697992105 233.96893026592187 L270.61016221508413 242.8077650307486
M279.44899697992105 233.96893026592187 L288.28783174474773 242.80776503075884
M279.44899697992105 233.96893026592187 L279.4489969799263 225.13009550109004
M279.4489969799263 225.13009550109004 L279.4489969799289 220.7106781186741
M332.48200556889907 256.06601717803244 L332.48200556891993 220.71067811870506
M332.48200556891993 220.71067811870506 L297.12666650959255 220.71067811868403
M297.12666650959255 220.71067811868403 L297.12666650957135 256.0660171780114
M297.12666650957135 256.0660171780114 L332.4820055688987 256.06601717803284
M314.80433603923507 256.0660171780219 L314.80433603923865 250.17346066813403
M314.804336039253 226.60323462858244 L314.80433603925655 220.71067811869455
"
style="stroke:black;stroke-width:2" fill="none" />
  <circle cx="314.8043360392458" cy="238.38834764835823" r="11.785113019775787" stroke="black" stroke-width="3" fill="none" />
  <path d="M303.01922301947 238.38834764835096 L307.1858896861392 234.22168098168683
M303.01922301947 238.38834764835096 L307.18588968613415 242.55501431502014
M303.01922301947 238.38834764835096 L298.8525563528009 242.55501431501514
M303.01922301947 238.38834764835096 L298.85255635280583 234.22168098168183
M326.5894490590216 238.38834764836471 L322.4227823923574 234.22168098169558
M326.5894490590216 238.38834764836471 L330.75611572569073 234.2216809817005
M326.5894490590216 238.38834764836471 L330.75611572568585 242.55501431503382
M326.5894490590216 238.38834764836471 L322.42278239235253 242.55501431502898
M367.8373446282269 256.0660171780515 L367.83734462824697 220.7106781187241
M367.83734462824697 220.7106781187241 L332.4820055689196 220.71067811870384
M332.4820055689196 220.71067811870384 L332.4820055688991 256.0660171780312
M332.4820055688991 256.0660171780312 L367.8373446282265 256.0660171780518
M350.15967509857325 238.38834764837762 L362.65967509858024 225.8883476483846
M350.15967509857325 238.38834764837762 L354.42850448540025 237.2445182615537
M358.69733387222726 236.1006888747298 L362.96616325905427 234.9568594879059
M350.15967509857325 238.38834764837762 L354.42850448539895 239.53217703520653
M358.69733387222465 240.67600642203544 L362.96616325905035 241.81983580886435
M350.15967509857325 238.38834764837762 L362.65967509856563 250.88834764838523
M403.19268368755303 256.0660171780753 L403.1926836875759 220.71067811874792
M403.1926836875759 220.71067811874792 L367.8373446282485 220.71067811872487
M367.8373446282485 220.71067811872487 L367.83734462822525 256.0660171780522
M367.83734462822525 256.0660171780522 L403.19268368755263 256.06601717807564
M385.5150141579008 238.38834764840004 L402.5903317052093 233.81303010110574
M385.5150141579008 238.38834764840004 L402.5903317052032 242.96366519571697
M385.5150141579008 238.38834764840004 L388.64001415789863 241.5133476484022
M391.7650141578965 244.63834764840436 L394.8900141578943 247.76334764840652
M385.5150141579008 238.38834764840004 L388.6400141579028 235.26334764840203
M391.7650141579048 232.13834764840402 L394.89001415790676 229.013347648406
"
style="stroke:black;stroke-width:2" fill="none" />
</svg>
