<svg width="600" height="780" viewbox = "0 0 600 780"  xmlns="http://www.w3.org/2000/svg">

<!--
<json>
{
"shapes":[
    "0220:0304,0330,0332,0332,0332,0336,0330,0333,01107,01145,01157,01155,01145,01164,01162,01157,01156,01072,0332,0332,0332,0332,0332,0332,0331,0331,01107,01145,01157,01155,01145,01164,01162,01151,01143,01040,0331,0332,0331,0332,0332,0332,0332,0332,01101,01162,01164,01040,0331,0332,0331,0332,01114,01141,01156,01147,01165,01141,01147,01145,",
    "0221:0306,0201,0335,0335,0201,0335,0335,0201,0335,0335,0336,0330,0335,",
    "0222:0221,0221,0221,0221,0221,0221,0221,",
    "0223:0220,0332,0332,0332,0332,0332,0332,0332,0332,0332,0332,0331,0331,0331,0337,0337,0221,0221,0221,0221,0221,0221,0221,0221,0221,0221,0221,0221,0221,0221,0221,0337,0337,0337,0337,0337,0337,0337,0337,0337,0337,0337,0337,0337,0335,0335,0335,0337,0304,0333,0333,0331,0333,0200,0336,0200,0336,0200,0336,0200,0336,0200,0336,0200,0336,0200,0336,0200,0337,0337,0337,0337,0337,0337,0337,0337,0200,0336,0336,0331,0331,0331,0337,0305,0201,0335,0201,0335,0201,0335,0201,0335,0201,0311,0335,0335,0337,0201,0334,0334,0201,0334,0334,0201,0334,0334,0201,0334,0334,0201,0334,0334,0336,0330,0334,0334,0336,0201,0335,0335,0201,0335,0335,0201,0335,0335,0201,0335,0335,0201,0335,0335,0336,0330,0335,0335,0336,0201,0334,0334,0201,0334,0334,0201,0334,0334,0201,0334,0334,0201,0334,0334,0336,0330,0334,0334,0336,0201,0335,0335,0201,0335,0335,0201,0335,0335,0201,0335,0335,0201,0335,0335,0335,0304,0337,0337,0337,0337,0337,0313,0337,0336,0336,0332,0332,0332,0332,0332,0332,0332,0332,0332,0332,0330,0154,0145,0141,0162,0156,040,0146,0157,0162,040,0146,0162,0145,0145,0331,041,0365,"
],
"glyph":"0220,0332,0332,0332,0332,0332,0332,0332,0332,0332,0332,0331,0331,0331,0337,0337,0221,0221,0221,0221,0221,0221,0221,0221,0221,0221,0221,0221,0221,0221,0221,0337,0337,0337,0337,0337,0337,0337,0337,0337,0337,0337,0337,0337,0335,0335,0335,0337,0304,0333,0333,0331,0333,0200,0336,0200,0336,0200,0336,0200,0336,0200,0336,0200,0336,0200,0336,0200,0337,0337,0337,0337,0337,0337,0337,0337,0200,0336,0336,0331,0331,0331,0337,0305,0201,0335,0201,0335,0201,0335,0201,0335,0201,0311,0335,0335,0337,0201,0334,0334,0201,0334,0334,0201,0334,0334,0201,0334,0334,0201,0334,0334,0336,0330,0334,0334,0336,0201,0335,0335,0201,0335,0335,0201,0335,0335,0201,0335,0335,0201,0335,0335,0336,0330,0335,0335,0336,0201,0334,0334,0201,0334,0334,0201,0334,0334,0201,0334,0334,0201,0334,0334,0336,0330,0334,0334,0336,0201,0335,0335,0201,0335,0335,0201,0335,0335,0201,0335,0335,0201,0335,0335,0335,0304,0337,0337,0337,0337,0337,0313,0337,0336,0336,0332,0332,0332,0332,0332,0332,0332,0332,0332,0332,0330,0154,0145,0141,0162,0156,040,0146,0157,0162,040,0146,0162,0145,0145,0331,041,0365,",
"w":600,
"h":780,
"x0":300,
"y0":240,
"x0rel":-3.785,
"y0rel":-0.845,
"unit":100,
"imgurl":"",
"imgw":2,
"imgleft":-1,
"imgtop":-1
}

</json>
-->
  <path d="M75 90           A25 25 0 0 1 75 40" fill = "none" stroke = "black" stroke-width = "2" />
  <path d="M57.32233047033631 47.32233047033631           A25 25 0 0 1 92.67766952966369 47.32233047033631" fill = "none" stroke = "black" stroke-width = "2" />
  <path d="M92.67766952966369 82.67766952966369           A25 25 0 0 1 57.32233047033631 82.67766952966369" fill = "none" stroke = "black" stroke-width = "2" />
    <line x1="94" y1="90" x2="94" y2="78" style="stroke:black;stroke-width:2" />
    <line x1="94" y1="78" x2="81" y2="78" style="stroke:black;stroke-width:2" />
  <path d="M106.25 77.49999999999999           A12.5 12.5 0 0 1 131.25 77.49999999999999" fill = "none" stroke = "black" stroke-width = "2" />
  <path d="M118.75 89.99999999999999           A12.5 12.5 0 0 1 106.25 77.49999999999999" fill = "none" stroke = "black" stroke-width = "2" />
  <path d="M127.58883476483184 86.33883476483183           A12.5 12.5 0 0 1 109.91116523516816 86.33883476483183" fill = "none" stroke = "black" stroke-width = "2" />
    <line x1="119" y1="77" x2="106" y2="77" style="stroke:black;stroke-width:2" />
    <line x1="119" y1="77" x2="131" y2="77" style="stroke:black;stroke-width:2" />
    <circle cx="150" cy = "77" r = "12.5" stroke = "black" stroke-width = "2" fill = "none" />
    <line x1="175" y1="90" x2="175" y2="65" style="stroke:black;stroke-width:2" />
  <path d="M175 77.49999999999996           A6.25 6.25 0 0 1 187.5 77.49999999999996" fill = "none" stroke = "black" stroke-width = "2" />
  <path d="M187.5 77.49999999999996           A6.25 6.25 0 0 1 200 77.49999999999996" fill = "none" stroke = "black" stroke-width = "2" />
    <line x1="188" y1="84" x2="188" y2="77" style="stroke:black;stroke-width:2" />
    <line x1="188" y1="90" x2="188" y2="84" style="stroke:black;stroke-width:2" />
    <line x1="200" y1="90" x2="200" y2="77" style="stroke:black;stroke-width:2" />
  <path d="M212.5 77.49999999999994           A12.5 12.5 0 0 1 237.5 77.49999999999994" fill = "none" stroke = "black" stroke-width = "2" />
  <path d="M225 89.99999999999994           A12.5 12.5 0 0 1 212.5 77.49999999999994" fill = "none" stroke = "black" stroke-width = "2" />
  <path d="M233.83883476483186 86.33883476483179           A12.5 12.5 0 0 1 216.16116523516817 86.33883476483179" fill = "none" stroke = "black" stroke-width = "2" />
    <line x1="225" y1="77" x2="213" y2="77" style="stroke:black;stroke-width:2" />
    <line x1="225" y1="77" x2="238" y2="77" style="stroke:black;stroke-width:2" />
    <line x1="269" y1="90" x2="269" y2="65" style="stroke:black;stroke-width:2" />
    <line x1="269" y1="65" x2="269" y2="52" style="stroke:black;stroke-width:2" />
    <line x1="269" y1="65" x2="256" y2="65" style="stroke:black;stroke-width:2" />
    <line x1="269" y1="65" x2="281" y2="65" style="stroke:black;stroke-width:2" />
  <path d="M281.25 89.99999999999993           A6.25 6.25 0 0 1 268.75 89.99999999999993" fill = "none" stroke = "black" stroke-width = "2" />
    <line x1="306" y1="90" x2="306" y2="65" style="stroke:black;stroke-width:2" />
    <line x1="306" y1="65" x2="306" y2="59" style="stroke:black;stroke-width:2" />
    <line x1="306" y1="65" x2="329" y2="55" style="stroke:black;stroke-width:2" />
    <circle cx="350" cy = "77" r = "12.5" stroke = "black" stroke-width = "2" fill = "none" />
    <line x1="375" y1="90" x2="375" y2="65" style="stroke:black;stroke-width:2" />
  <path d="M375 77.49999999999987           A6.25 6.25 0 0 1 387.5 77.49999999999987" fill = "none" stroke = "black" stroke-width = "2" />
    <line x1="388" y1="90" x2="388" y2="77" style="stroke:black;stroke-width:2" />
    <circle cx="425" cy = "65" r = "3.125" stroke = "black" stroke-width = "2" fill = "none" />
    <circle cx="425" cy = "87" r = "3.125" stroke = "black" stroke-width = "2" fill = "none" />
  <path d="M162.50000000000006 189.99999999999991           A25 25 0 0 1 162.50000000000006 139.99999999999991" fill = "none" stroke = "black" stroke-width = "2" />
  <path d="M144.8223304703363 147.32233047033628           A25 25 0 0 1 180.17766952966372 147.3223304703362" fill = "none" stroke = "black" stroke-width = "2" />
  <path d="M180.17766952966375 182.6776695296636           A25 25 0 0 1 144.82233047033634 182.67766952966358" fill = "none" stroke = "black" stroke-width = "2" />
    <line x1="181" y1="190" x2="181" y2="177" style="stroke:black;stroke-width:2" />
    <line x1="181" y1="177" x2="169" y2="177" style="stroke:black;stroke-width:2" />
  <path d="M193.75000000000003 177.49999999999972           A12.5 12.5 0 0 1 218.75000000000003 177.49999999999974" fill = "none" stroke = "black" stroke-width = "2" />
  <path d="M206.25 189.99999999999974           A12.5 12.5 0 0 1 193.75000000000003 177.49999999999972" fill = "none" stroke = "black" stroke-width = "2" />
  <path d="M215.08883476483186 186.3388347648316           A12.5 12.5 0 0 1 197.41116523516817 186.33883476483157" fill = "none" stroke = "black" stroke-width = "2" />
    <line x1="206" y1="177" x2="194" y2="177" style="stroke:black;stroke-width:2" />
    <line x1="206" y1="177" x2="219" y2="177" style="stroke:black;stroke-width:2" />
    <circle cx="237" cy = "178" r = "12.5" stroke = "black" stroke-width = "2" fill = "none" />
    <line x1="262" y1="190" x2="263" y2="165" style="stroke:black;stroke-width:2" />
  <path d="M262.49999999999994 177.5000000000003           A6.25 6.25 0 0 1 274.99999999999994 177.50000000000037" fill = "none" stroke = "black" stroke-width = "2" />
  <path d="M274.99999999999994 177.50000000000037           A6.25 6.25 0 0 1 287.49999999999994 177.50000000000043" fill = "none" stroke = "black" stroke-width = "2" />
    <line x1="275" y1="184" x2="275" y2="178" style="stroke:black;stroke-width:2" />
    <line x1="275" y1="190" x2="275" y2="184" style="stroke:black;stroke-width:2" />
    <line x1="287" y1="190" x2="287" y2="178" style="stroke:black;stroke-width:2" />
  <path d="M299.9999999999999 177.50000000000063           A12.5 12.5 0 0 1 324.9999999999999 177.50000000000077" fill = "none" stroke = "black" stroke-width = "2" />
  <path d="M312.49999999999983 190.00000000000068           A12.5 12.5 0 0 1 299.9999999999999 177.5000000000006" fill = "none" stroke = "black" stroke-width = "2" />
  <path d="M321.3388347648317 186.33883476483257           A12.5 12.5 0 0 1 303.66116523516797 186.33883476483248" fill = "none" stroke = "black" stroke-width = "2" />
    <line x1="312" y1="178" x2="300" y2="178" style="stroke:black;stroke-width:2" />
    <line x1="312" y1="178" x2="325" y2="178" style="stroke:black;stroke-width:2" />
    <line x1="356" y1="190" x2="356" y2="165" style="stroke:black;stroke-width:2" />
    <line x1="356" y1="165" x2="356" y2="153" style="stroke:black;stroke-width:2" />
    <line x1="356" y1="165" x2="344" y2="165" style="stroke:black;stroke-width:2" />
    <line x1="356" y1="165" x2="369" y2="165" style="stroke:black;stroke-width:2" />
  <path d="M368.74999999999966 190.00000000000108           A6.25 6.25 0 0 1 356.24999999999966 190.000000000001" fill = "none" stroke = "black" stroke-width = "2" />
    <line x1="394" y1="190" x2="394" y2="165" style="stroke:black;stroke-width:2" />
    <line x1="394" y1="165" x2="394" y2="159" style="stroke:black;stroke-width:2" />
    <line x1="394" y1="165" x2="417" y2="155" style="stroke:black;stroke-width:2" />
    <line x1="437" y1="190" x2="437" y2="178" style="stroke:black;stroke-width:2" />
    <line x1="437" y1="178" x2="437" y2="171" style="stroke:black;stroke-width:2" />
    <circle cx="438" cy = "159" r = "3.125" stroke = "black" stroke-width = "2" fill = "none" />
  <path d="M453.66116523516786 168.66116523517076           A12.5 12.5 0 0 1 471.3388347648316 168.66116523517096" fill = "none" stroke = "black" stroke-width = "2" />
  <path d="M453.6611652351677 186.33883476483447           A12.5 12.5 0 0 1 453.66116523516786 168.66116523517076" fill = "none" stroke = "black" stroke-width = "2" />
  <path d="M471.3388347648314 186.33883476483462           A12.5 12.5 0 0 1 453.6611652351677 186.33883476483447" fill = "none" stroke = "black" stroke-width = "2" />
    <line x1="231" y1="290" x2="247" y2="242" style="stroke:black;stroke-width:2" />
    <line x1="262" y1="290" x2="247" y2="242" style="stroke:black;stroke-width:2" />
    <line x1="256" y1="272" x2="237" y2="272" style="stroke:black;stroke-width:2" />
    <line x1="281" y1="290" x2="281" y2="265" style="stroke:black;stroke-width:2" />
    <line x1="281" y1="265" x2="281" y2="259" style="stroke:black;stroke-width:2" />
    <line x1="281" y1="265" x2="304" y2="255" style="stroke:black;stroke-width:2" />
    <line x1="337" y1="290" x2="337" y2="265" style="stroke:black;stroke-width:2" />
    <line x1="337" y1="265" x2="337" y2="253" style="stroke:black;stroke-width:2" />
    <line x1="337" y1="265" x2="325" y2="265" style="stroke:black;stroke-width:2" />
    <line x1="337" y1="265" x2="350" y2="265" style="stroke:black;stroke-width:2" />
  <path d="M349.65169943749373 290.0000000000027           A6.249999999999999 6.249999999999999 0 0 1 337.15169943749373 290.00000000000256" fill = "none" stroke = "black" stroke-width = "2" />
    <line x1="325" y1="390" x2="325" y2="340" style="stroke:black;stroke-width:2" />
    <line x1="325" y1="390" x2="350" y2="390" style="stroke:black;stroke-width:2" />
    <circle cx="375" cy = "378" r = "12.499999999999998" stroke = "black" stroke-width = "2" fill = "none" />
    <line x1="387" y1="378" x2="387" y2="365" style="stroke:black;stroke-width:2" />
    <line x1="387" y1="390" x2="387" y2="378" style="stroke:black;stroke-width:2" />
    <line x1="393" y1="390" x2="393" y2="365" style="stroke:black;stroke-width:2" />
  <path d="M393.40169943749277 377.50000000000426           A6.249999999999999 6.249999999999999 0 0 1 405.90169943749277 377.5000000000044" fill = "none" stroke = "black" stroke-width = "2" />
    <line x1="406" y1="390" x2="406" y2="378" style="stroke:black;stroke-width:2" />
    <circle cx="431" cy = "378" r = "12.499999999999998" stroke = "black" stroke-width = "2" fill = "none" />
    <line x1="443" y1="378" x2="443" y2="365" style="stroke:black;stroke-width:2" />
    <line x1="443" y1="390" x2="443" y2="378" style="stroke:black;stroke-width:2" />
    <line x1="443" y1="403" x2="443" y2="390" style="stroke:black;stroke-width:2" />
    <line x1="443" y1="415" x2="443" y2="403" style="stroke:black;stroke-width:2" />
  <path d="M443.4016994374923 415.0000000000051           A12.499999999999998 12.499999999999998 0 0 1 418.4016994374923 415.0000000000047" fill = "none" stroke = "black" stroke-width = "2" />
    <line x1="450" y1="378" x2="450" y2="365" style="stroke:black;stroke-width:2" />
  <path d="M474.6516994374928 377.50000000000546           A12.499999999999998 12.499999999999998 0 0 1 449.6516994374928 377.5000000000053" fill = "none" stroke = "black" stroke-width = "2" />
    <line x1="475" y1="378" x2="475" y2="365" style="stroke:black;stroke-width:2" />
    <line x1="475" y1="378" x2="475" y2="390" style="stroke:black;stroke-width:2" />
    <circle cx="493" cy = "378" r = "12.499999999999998" stroke = "black" stroke-width = "2" fill = "none" />
    <line x1="506" y1="378" x2="506" y2="365" style="stroke:black;stroke-width:2" />
    <line x1="506" y1="390" x2="506" y2="378" style="stroke:black;stroke-width:2" />
    <circle cx="525" cy = "378" r = "12.499999999999998" stroke = "black" stroke-width = "2" fill = "none" />
    <line x1="537" y1="378" x2="537" y2="365" style="stroke:black;stroke-width:2" />
    <line x1="537" y1="390" x2="537" y2="378" style="stroke:black;stroke-width:2" />
    <line x1="537" y1="403" x2="537" y2="390" style="stroke:black;stroke-width:2" />
    <line x1="537" y1="415" x2="537" y2="403" style="stroke:black;stroke-width:2" />
  <path d="M537.1516994374924 415.00000000000585           A12.499999999999998 12.499999999999998 0 0 1 512.1516994374924 415.0000000000057" fill = "none" stroke = "black" stroke-width = "2" />
  <path d="M543.4016994374928 377.50000000000597           A12.499999999999998 12.499999999999998 0 0 1 568.4016994374928 377.5000000000061" fill = "none" stroke = "black" stroke-width = "2" />
  <path d="M555.9016994374927 390.000000000006           A12.499999999999998 12.499999999999998 0 0 1 543.4016994374928 377.50000000000597" fill = "none" stroke = "black" stroke-width = "2" />
  <path d="M564.7405342023246 386.3388347648379           A12.499999999999998 12.499999999999998 0 0 1 547.0628646726609 386.3388347648378" fill = "none" stroke = "black" stroke-width = "2" />
    <line x1="556" y1="378" x2="543" y2="378" style="stroke:black;stroke-width:2" />
    <line x1="556" y1="378" x2="568" y2="378" style="stroke:black;stroke-width:2" />
    <line x1="75" y1="540" x2="75" y2="340" style="stroke:black;stroke-width:2" />
    <line x1="75" y1="340" x2="248" y2="440" style="stroke:black;stroke-width:2" />
    <line x1="248" y1="440" x2="75" y2="540" style="stroke:black;stroke-width:2" />
    <line x1="75" y1="440" x2="161" y2="390" style="stroke:black;stroke-width:2" />
    <line x1="161" y1="390" x2="161" y2="490" style="stroke:black;stroke-width:2" />
    <line x1="161" y1="490" x2="75" y2="440" style="stroke:black;stroke-width:2" />
    <line x1="118" y1="415" x2="161" y2="440" style="stroke:black;stroke-width:2" />
    <line x1="161" y1="440" x2="118" y2="465" style="stroke:black;stroke-width:2" />
    <line x1="118" y1="465" x2="118" y2="415" style="stroke:black;stroke-width:2" />
    <line x1="140" y1="428" x2="140" y2="453" style="stroke:black;stroke-width:2" />
    <line x1="140" y1="453" x2="118" y2="440" style="stroke:black;stroke-width:2" />
    <line x1="118" y1="440" x2="140" y2="428" style="stroke:black;stroke-width:2" />
    <line x1="140" y1="440" x2="129" y2="446" style="stroke:black;stroke-width:2" />
    <line x1="129" y1="446" x2="129" y2="434" style="stroke:black;stroke-width:2" />
    <line x1="129" y1="434" x2="140" y2="440" style="stroke:black;stroke-width:2" />
    <line x1="134" y1="443" x2="129" y2="440" style="stroke:black;stroke-width:2" />
    <line x1="129" y1="440" x2="134" y2="437" style="stroke:black;stroke-width:2" />
    <line x1="134" y1="437" x2="134" y2="443" style="stroke:black;stroke-width:2" />
    <line x1="131" y1="442" x2="131" y2="438" style="stroke:black;stroke-width:2" />
    <line x1="131" y1="438" x2="134" y2="440" style="stroke:black;stroke-width:2" />
    <line x1="134" y1="440" x2="131" y2="442" style="stroke:black;stroke-width:2" />
    <line x1="131" y1="440" x2="133" y2="439" style="stroke:black;stroke-width:2" />
    <line x1="133" y1="439" x2="133" y2="441" style="stroke:black;stroke-width:2" />
    <line x1="133" y1="441" x2="131" y2="440" style="stroke:black;stroke-width:2" />
    <line x1="132" y1="440" x2="133" y2="440" style="stroke:black;stroke-width:2" />
    <line x1="133" y1="440" x2="132" y2="440" style="stroke:black;stroke-width:2" />
    <line x1="132" y1="440" x2="132" y2="440" style="stroke:black;stroke-width:2" />
    <line x1="132" y1="440" x2="132" y2="440" style="stroke:black;stroke-width:2" />
    <line x1="132" y1="440" x2="132" y2="440" style="stroke:black;stroke-width:2" />
    <line x1="132" y1="440" x2="132" y2="440" style="stroke:black;stroke-width:2" />
    <line x1="132" y1="440" x2="132" y2="440" style="stroke:black;stroke-width:2" />
    <line x1="132" y1="440" x2="132" y2="440" style="stroke:black;stroke-width:2" />
    <line x1="132" y1="440" x2="132" y2="440" style="stroke:black;stroke-width:2" />
    <line x1="132" y1="440" x2="132" y2="440" style="stroke:black;stroke-width:2" />
    <line x1="132" y1="440" x2="132" y2="440" style="stroke:black;stroke-width:2" />
    <line x1="132" y1="440" x2="132" y2="440" style="stroke:black;stroke-width:2" />
    <line x1="132" y1="440" x2="132" y2="440" style="stroke:black;stroke-width:2" />
    <line x1="132" y1="440" x2="132" y2="440" style="stroke:black;stroke-width:2" />
    <line x1="132" y1="440" x2="132" y2="440" style="stroke:black;stroke-width:2" />
    <line x1="132" y1="440" x2="132" y2="440" style="stroke:black;stroke-width:2" />
    <line x1="132" y1="440" x2="132" y2="440" style="stroke:black;stroke-width:2" />
    <line x1="132" y1="440" x2="132" y2="440" style="stroke:black;stroke-width:2" />
    <line x1="132" y1="440" x2="132" y2="440" style="stroke:black;stroke-width:2" />
    <line x1="132" y1="440" x2="132" y2="440" style="stroke:black;stroke-width:2" />
    <line x1="132" y1="440" x2="132" y2="440" style="stroke:black;stroke-width:2" />
    <line x1="432" y1="540" x2="432" y2="440" style="stroke:black;stroke-width:2" />
    <line x1="432" y1="440" x2="332" y2="440" style="stroke:black;stroke-width:2" />
    <line x1="332" y1="440" x2="332" y2="540" style="stroke:black;stroke-width:2" />
    <line x1="332" y1="540" x2="432" y2="540" style="stroke:black;stroke-width:2" />
    <line x1="432" y1="540" x2="432" y2="490" style="stroke:black;stroke-width:2" />
    <line x1="432" y1="490" x2="382" y2="490" style="stroke:black;stroke-width:2" />
    <line x1="382" y1="490" x2="382" y2="540" style="stroke:black;stroke-width:2" />
    <line x1="382" y1="540" x2="432" y2="540" style="stroke:black;stroke-width:2" />
    <line x1="432" y1="540" x2="432" y2="515" style="stroke:black;stroke-width:2" />
    <line x1="432" y1="515" x2="407" y2="515" style="stroke:black;stroke-width:2" />
    <line x1="407" y1="515" x2="407" y2="540" style="stroke:black;stroke-width:2" />
    <line x1="407" y1="540" x2="432" y2="540" style="stroke:black;stroke-width:2" />
    <line x1="432" y1="540" x2="432" y2="527" style="stroke:black;stroke-width:2" />
    <line x1="432" y1="527" x2="420" y2="527" style="stroke:black;stroke-width:2" />
    <line x1="420" y1="527" x2="420" y2="540" style="stroke:black;stroke-width:2" />
    <line x1="420" y1="540" x2="432" y2="540" style="stroke:black;stroke-width:2" />
    <line x1="432" y1="540" x2="432" y2="534" style="stroke:black;stroke-width:2" />
    <line x1="432" y1="534" x2="426" y2="534" style="stroke:black;stroke-width:2" />
    <line x1="426" y1="534" x2="426" y2="540" style="stroke:black;stroke-width:2" />
    <line x1="426" y1="540" x2="432" y2="540" style="stroke:black;stroke-width:2" />
    <line x1="432" y1="540" x2="432" y2="537" style="stroke:black;stroke-width:2" />
    <line x1="432" y1="537" x2="429" y2="537" style="stroke:black;stroke-width:2" />
    <line x1="429" y1="537" x2="429" y2="540" style="stroke:black;stroke-width:2" />
    <line x1="429" y1="540" x2="432" y2="540" style="stroke:black;stroke-width:2" />
    <line x1="432" y1="540" x2="432" y2="538" style="stroke:black;stroke-width:2" />
    <line x1="432" y1="538" x2="431" y2="538" style="stroke:black;stroke-width:2" />
    <line x1="431" y1="538" x2="431" y2="540" style="stroke:black;stroke-width:2" />
    <line x1="431" y1="540" x2="432" y2="540" style="stroke:black;stroke-width:2" />
    <line x1="432" y1="540" x2="432" y2="539" style="stroke:black;stroke-width:2" />
    <line x1="432" y1="539" x2="432" y2="539" style="stroke:black;stroke-width:2" />
    <line x1="432" y1="539" x2="432" y2="540" style="stroke:black;stroke-width:2" />
    <line x1="432" y1="540" x2="432" y2="540" style="stroke:black;stroke-width:2" />
    <line x1="432" y1="540" x2="432" y2="340" style="stroke:black;stroke-width:2" />
    <line x1="432" y1="340" x2="232" y2="340" style="stroke:black;stroke-width:2" />
    <line x1="232" y1="340" x2="232" y2="540" style="stroke:black;stroke-width:2" />
    <line x1="232" y1="540" x2="432" y2="540" style="stroke:black;stroke-width:2" />
    <line x1="432" y1="690" x2="432" y2="590" style="stroke:black;stroke-width:2" />
    <line x1="432" y1="590" x2="527" y2="559" style="stroke:black;stroke-width:2" />
    <line x1="527" y1="559" x2="586" y2="640" style="stroke:black;stroke-width:2" />
    <line x1="586" y1="640" x2="527" y2="721" style="stroke:black;stroke-width:2" />
    <line x1="527" y1="721" x2="432" y2="690" style="stroke:black;stroke-width:2" />
    <line x1="432" y1="690" x2="586" y2="640" style="stroke:black;stroke-width:2" />
    <line x1="586" y1="640" x2="432" y2="590" style="stroke:black;stroke-width:2" />
    <line x1="432" y1="590" x2="527" y2="721" style="stroke:black;stroke-width:2" />
    <line x1="527" y1="721" x2="527" y2="559" style="stroke:black;stroke-width:2" />
    <line x1="527" y1="559" x2="432" y2="690" style="stroke:black;stroke-width:2" />
    <line x1="527" y1="659" x2="469" y2="640" style="stroke:black;stroke-width:2" />
    <line x1="469" y1="640" x2="527" y2="621" style="stroke:black;stroke-width:2" />
    <line x1="527" y1="621" x2="491" y2="671" style="stroke:black;stroke-width:2" />
    <line x1="491" y1="671" x2="491" y2="609" style="stroke:black;stroke-width:2" />
    <line x1="491" y1="609" x2="527" y2="659" style="stroke:black;stroke-width:2" />
    <line x1="491" y1="647" x2="514" y2="640" style="stroke:black;stroke-width:2" />
    <line x1="514" y1="640" x2="491" y2="633" style="stroke:black;stroke-width:2" />
    <line x1="491" y1="633" x2="505" y2="652" style="stroke:black;stroke-width:2" />
    <line x1="505" y1="652" x2="505" y2="628" style="stroke:black;stroke-width:2" />
    <line x1="505" y1="628" x2="491" y2="647" style="stroke:black;stroke-width:2" />
    <line x1="505" y1="643" x2="496" y2="640" style="stroke:black;stroke-width:2" />
    <line x1="496" y1="640" x2="505" y2="637" style="stroke:black;stroke-width:2" />
    <line x1="505" y1="637" x2="500" y2="645" style="stroke:black;stroke-width:2" />
    <line x1="500" y1="645" x2="500" y2="635" style="stroke:black;stroke-width:2" />
    <line x1="500" y1="635" x2="505" y2="643" style="stroke:black;stroke-width:2" />
    <text x="5" y = "643" fill = "black" font-size = "49.999999999999986px" font-family = "futura">learn for free!</text>
</svg>