<?xml version="1.0" encoding="utf-8"?>
<!-- Generator: Adobe Illustrator 15.1.0, SVG Export Plug-In . SVG Version: 6.00 Build 0)  -->
<!DOCTYPE svg PUBLIC "-//W3C//DTD SVG 1.1//EN" "http://www.w3.org/Graphics/SVG/1.1/DTD/svg11.dtd">
<svg version="1.1" id="geometron_svg" xmlns="http://www.w3.org/2000/svg" xmlns:xlink="http://www.w3.org/1999/xlink" x="0px"
	 y="0px" width="408.5px" height="120px" viewBox="0 176.5 408.5 120" enable-background="new 0 176.5 408.5 120"
	 xml:space="preserve">
<line fill="none" stroke="#000000" stroke-width="2" x1="51.562" y1="214.06" x2="56.25" y2="214.06"/>
<line fill="none" stroke="#000000" stroke-width="2" x1="56.25" y1="214.06" x2="58.594" y2="218.119"/>
<line fill="none" stroke="#000000" stroke-width="2" x1="60.938" y1="214.06" x2="58.594" y2="218.119"/>
<line fill="none" stroke="#000000" stroke-width="2" x1="60.938" y1="214.06" x2="63.281" y2="210"/>
<line fill="none" stroke="#000000" stroke-width="2" x1="65.625" y1="214.06" x2="63.281" y2="210"/>
<line fill="none" stroke="#000000" stroke-width="2" x1="65.625" y1="214.06" x2="67.969" y2="218.119"/>
<line fill="none" stroke="#000000" stroke-width="2" x1="70.312" y1="214.06" x2="67.969" y2="218.119"/>
<line fill="none" stroke="#000000" stroke-width="2" x1="70.312" y1="214.06" x2="72.656" y2="210"/>
<line fill="none" stroke="#000000" stroke-width="2" x1="75" y1="214.06" x2="72.656" y2="210"/>
<line fill="none" stroke="#000000" stroke-width="2" x1="75" y1="214.06" x2="77.344" y2="218.119"/>
<line fill="none" stroke="#000000" stroke-width="2" x1="79.688" y1="214.06" x2="77.344" y2="218.119"/>
<line fill="none" stroke="#000000" stroke-width="2" x1="79.688" y1="214.06" x2="82.031" y2="210"/>
<line fill="none" stroke="#000000" stroke-width="2" x1="84.375" y1="214.06" x2="82.031" y2="210"/>
<line fill="none" stroke="#000000" stroke-width="2" x1="84.375" y1="214.06" x2="89.062" y2="214.06"/>
<line fill="none" stroke="#000000" stroke-width="2" x1="97.094" y1="210.03" x2="101.781" y2="210.03"/>
<line fill="none" stroke="#000000" stroke-width="2" x1="101.781" y1="210.03" x2="111.156" y2="210.03"/>
<line fill="none" stroke="#000000" stroke-width="2" x1="111.156" y1="210.03" x2="111.156" y2="219.405"/>
<line fill="none" stroke="#000000" stroke-width="2" x1="111.156" y1="210.03" x2="111.156" y2="200.655"/>
<line fill="none" stroke="#000000" stroke-width="2" x1="120.531" y1="210.03" x2="120.531" y2="200.655"/>
<line fill="none" stroke="#000000" stroke-width="2" x1="120.531" y1="210.03" x2="120.531" y2="219.405"/>
<line fill="none" stroke="#000000" stroke-width="2" x1="120.531" y1="210.03" x2="129.906" y2="210.03"/>
<line fill="none" stroke="#000000" stroke-width="2" x1="129.906" y1="210.03" x2="134.594" y2="210.03"/>
<line fill="none" stroke="#000000" stroke-width="2" x1="170.492" y1="216.717" x2="161.117" y2="216.717"/>
<line fill="none" stroke="#000000" stroke-width="2" x1="170.492" y1="216.717" x2="179.867" y2="216.717"/>
<line fill="none" stroke="#000000" stroke-width="2" x1="179.867" y1="216.717" x2="170.492" y2="226.092"/>
<line fill="none" stroke="#000000" stroke-width="2" x1="170.492" y1="226.092" x2="161.117" y2="216.717"/>
<line fill="none" stroke="#000000" stroke-width="2" x1="170.492" y1="216.717" x2="170.492" y2="197.967"/>
<line fill="none" stroke="#000000" stroke-width="2" x1="228.229" y1="211.539" x2="230.573" y2="211.539"/>
<path fill="none" stroke="#000000" stroke-width="2" d="M230.573,211.539c0-8.333,1.389-12.5,4.167-12.5"/>
<path fill="none" stroke="#000000" stroke-width="2" d="M238.907,211.539c0-8.333-1.389-12.5-4.167-12.5"/>
<path fill="none" stroke="#000000" stroke-width="2" d="M236.129,211.539c0-8.333,1.389-12.5,4.167-12.5"/>
<path fill="none" stroke="#000000" stroke-width="2" d="M238.907,211.539c0,2.778-0.463,4.167-1.389,4.167"/>
<path fill="none" stroke="#000000" stroke-width="2" d="M236.129,211.539c0,2.778,0.463,4.167,1.389,4.167"/>
<path fill="none" stroke="#000000" stroke-width="2" d="M244.462,211.539c0-8.333-1.389-12.5-4.167-12.5"/>
<path fill="none" stroke="#000000" stroke-width="2" d="M241.685,211.539c0-8.333,1.389-12.5,4.167-12.5"/>
<path fill="none" stroke="#000000" stroke-width="2" d="M244.462,211.539c0,2.778-0.463,4.167-1.389,4.167"/>
<path fill="none" stroke="#000000" stroke-width="2" d="M241.685,211.539c0,2.778,0.463,4.167,1.389,4.167"/>
<path fill="none" stroke="#000000" stroke-width="2" d="M250.018,211.539c0-8.333-1.389-12.5-4.167-12.5"/>
<path fill="none" stroke="#000000" stroke-width="2" d="M247.24,211.539c0-8.333,1.389-12.5,4.167-12.5"/>
<path fill="none" stroke="#000000" stroke-width="2" d="M250.018,211.539c0,2.778-0.463,4.167-1.389,4.167"/>
<path fill="none" stroke="#000000" stroke-width="2" d="M247.24,211.539c0,2.778,0.463,4.167,1.389,4.167"/>
<path fill="none" stroke="#000000" stroke-width="2" d="M255.573,211.539c0-8.333-1.389-12.5-4.167-12.5"/>
<path fill="none" stroke="#000000" stroke-width="2" d="M252.795,211.539c0-8.333,1.389-12.5,4.167-12.5"/>
<path fill="none" stroke="#000000" stroke-width="2" d="M255.573,211.539c0,2.778-0.463,4.167-1.389,4.167"/>
<path fill="none" stroke="#000000" stroke-width="2" d="M252.795,211.539c0,2.778,0.463,4.167,1.389,4.167"/>
<path fill="none" stroke="#000000" stroke-width="2" d="M261.129,211.539c0-8.333-1.389-12.5-4.167-12.5"/>
<line fill="none" stroke="#000000" stroke-width="2" x1="261.129" y1="211.539" x2="265.295" y2="211.539"/>
<line fill="none" stroke="#000000" stroke-width="2" x1="265.295" y1="211.539" x2="265.347" y2="211.539"/>
<line fill="none" stroke="#000000" stroke-width="2" x1="268.955" y1="209.342" x2="306.455" y2="209.342"/>
<line fill="none" stroke="#000000" stroke-width="2" x1="281.455" y1="203.092" x2="293.955" y2="215.592"/>
<line fill="none" stroke="#000000" stroke-width="2" x1="281.455" y1="215.592" x2="293.955" y2="203.092"/>
<line fill="none" stroke="#000000" stroke-width="2" x1="311.68" y1="211.03" x2="324.18" y2="211.03"/>
<line fill="none" stroke="#000000" stroke-width="2" x1="324.18" y1="211.03" x2="324.18" y2="204.78"/>
<line fill="none" stroke="#000000" stroke-width="2" x1="324.18" y1="211.03" x2="324.18" y2="217.28"/>
<line fill="none" stroke="#000000" stroke-width="2" x1="324.18" y1="204.78" x2="336.68" y2="204.78"/>
<line fill="none" stroke="#000000" stroke-width="2" x1="324.18" y1="204.78" x2="336.68" y2="217.28"/>
<line fill="none" stroke="#000000" stroke-width="2" x1="324.18" y1="217.28" x2="336.68" y2="217.28"/>
<line fill="none" stroke="#000000" stroke-width="2" x1="324.18" y1="217.28" x2="336.68" y2="204.78"/>
<line fill="none" stroke="#000000" stroke-width="2" x1="336.68" y1="211.03" x2="336.68" y2="204.78"/>
<line fill="none" stroke="#000000" stroke-width="2" x1="336.68" y1="211.03" x2="336.68" y2="217.28"/>
<line fill="none" stroke="#000000" stroke-width="2" x1="336.68" y1="211.03" x2="342.93" y2="211.03"/>
<line fill="none" stroke="#000000" stroke-width="2" x1="342.93" y1="211.03" x2="349.18" y2="211.03"/>
<circle fill="none" stroke="#000000" stroke-width="3" cx="374.617" cy="204" r="9.375"/>
<line fill="none" stroke="#000000" stroke-width="2" x1="374.617" y1="208.687" x2="378.205" y2="200.026"/>
<line fill="none" stroke="#000000" stroke-width="2" x1="374.617" y1="208.687" x2="371.029" y2="200.026"/>
<g>
	<line fill="none" stroke="#000000" stroke-width="2" x1="97.094" y1="263.583" x2="106.469" y2="263.583"/>
	<line fill="none" stroke="#000000" stroke-width="2" x1="97.094" y1="263.583" x2="87.719" y2="263.583"/>
	<line fill="none" stroke="#000000" stroke-width="2" x1="97.094" y1="269.833" x2="93.969" y2="269.833"/>
	<line fill="none" stroke="#000000" stroke-width="2" x1="97.094" y1="269.833" x2="100.219" y2="269.833"/>
	<line fill="none" stroke="#000000" stroke-width="2" x1="97.094" y1="266.708" x2="100.219" y2="266.708"/>
	<line fill="none" stroke="#000000" stroke-width="2" x1="100.219" y1="266.708" x2="103.344" y2="266.708"/>
	<line fill="none" stroke="#000000" stroke-width="2" x1="90.844" y1="266.708" x2="93.969" y2="266.708"/>
	<line fill="none" stroke="#000000" stroke-width="2" x1="93.969" y1="266.708" x2="97.094" y2="266.708"/>
	<line fill="none" stroke="#000000" stroke-width="2" x1="97.094" y1="263.583" x2="97.094" y2="244.833"/>
</g>
<g>
	<path fill="none" stroke="#000000" stroke-width="1.28" d="M122.656,259.833c0-8,1-12,3-12"/>
	<path fill="none" stroke="#000000" stroke-width="1.28" d="M128.656,259.833c0-8-1-12-3-12"/>
	<path fill="none" stroke="#000000" stroke-width="1.28" d="M128.656,259.833c0,8-1,12-3,12"/>
	<path fill="none" stroke="#000000" stroke-width="1.28" d="M122.656,259.833c0,8,1,12,3,12"/>
	<line fill="none" stroke="#000000" stroke-width="1.28" x1="125.656" y1="259.833" x2="119.656" y2="259.833"/>
	<circle fill="none" stroke="#000000" stroke-width="1.92" cx="118.906" cy="259.833" r="0.75"/>
	<line fill="none" stroke="#000000" stroke-width="1.28" x1="128.656" y1="259.833" x2="125.656" y2="259.833"/>
	<line fill="none" stroke="#000000" stroke-width="1.28" x1="125.656" y1="247.833" x2="149.656" y2="247.833"/>
	<line fill="none" stroke="#000000" stroke-width="1.28" x1="125.656" y1="271.833" x2="149.656" y2="271.833"/>
</g>
<line fill="none" stroke="#000000" stroke-width="1.28" x1="179.867" y1="272.583" x2="179.867" y2="268.583"/>
<line fill="none" stroke="#000000" stroke-width="1.28" x1="179.867" y1="252.583" x2="179.867" y2="248.583"/>
<circle fill="none" stroke="#000000" stroke-width="1.92" cx="179.867" cy="260.583" r="8"/>
<line fill="none" stroke="#000000" stroke-width="1.28" x1="171.867" y1="260.583" x2="174.695" y2="257.754"/>
<line fill="none" stroke="#000000" stroke-width="1.28" x1="171.867" y1="260.583" x2="174.695" y2="263.411"/>
<line fill="none" stroke="#000000" stroke-width="1.28" x1="171.867" y1="260.583" x2="169.039" y2="263.411"/>
<line fill="none" stroke="#000000" stroke-width="1.28" x1="171.867" y1="260.583" x2="169.039" y2="257.754"/>
<line fill="none" stroke="#000000" stroke-width="1.28" x1="187.867" y1="260.583" x2="185.039" y2="257.754"/>
<line fill="none" stroke="#000000" stroke-width="1.28" x1="187.867" y1="260.583" x2="190.695" y2="257.754"/>
<line fill="none" stroke="#000000" stroke-width="1.28" x1="187.867" y1="260.583" x2="190.695" y2="263.411"/>
<line fill="none" stroke="#000000" stroke-width="1.28" x1="187.867" y1="260.583" x2="185.039" y2="263.411"/>
<g>
	<line fill="none" stroke="#000000" stroke-width="1.6" x1="204.205" y1="257.333" x2="211.705" y2="257.333"/>
	<line fill="none" stroke="#000000" stroke-width="1.6" x1="226.705" y1="257.333" x2="234.205" y2="257.333"/>
	<line fill="none" stroke="#000000" stroke-width="1.6" x1="211.705" y1="257.333" x2="211.705" y2="242.333"/>
	<line fill="none" stroke="#000000" stroke-width="1.6" x1="211.705" y1="257.333" x2="211.705" y2="272.333"/>
	<line fill="none" stroke="#000000" stroke-width="1.6" x1="226.705" y1="257.333" x2="211.705" y2="272.333"/>
	<line fill="none" stroke="#000000" stroke-width="1.6" x1="226.705" y1="257.333" x2="211.705" y2="242.333"/>
</g>
<g>
	<line fill="none" stroke="#000000" stroke-width="1.6" x1="266.955" y1="274.583" x2="266.955" y2="270.833"/>
	<circle fill="none" stroke="#000000" stroke-width="2.4" cx="266.955" cy="263.333" r="7.5"/>
	<circle fill="none" stroke="#000000" stroke-width="2.4" cx="266.955" cy="255.833" r="7.5"/>
	<line fill="none" stroke="#000000" stroke-width="1.6" x1="266.955" y1="248.333" x2="266.955" y2="244.583"/>
</g>
<line fill="none" stroke="#000000" stroke-width="2" x1="309.205" y1="277.083" x2="309.205" y2="272.395"/>
<line fill="none" stroke="#000000" stroke-width="2" x1="309.205" y1="272.395" x2="309.205" y2="263.02"/>
<line fill="none" stroke="#000000" stroke-width="2" x1="309.205" y1="263.02" x2="299.83" y2="263.02"/>
<line fill="none" stroke="#000000" stroke-width="2" x1="309.205" y1="263.02" x2="318.58" y2="263.02"/>
<line fill="none" stroke="#000000" stroke-width="2" x1="309.205" y1="253.645" x2="318.58" y2="253.645"/>
<line fill="none" stroke="#000000" stroke-width="2" x1="309.205" y1="253.645" x2="299.83" y2="253.645"/>
<line fill="none" stroke="#000000" stroke-width="2" x1="309.205" y1="253.645" x2="299.83" y2="263.02"/>
<line fill="none" stroke="#000000" stroke-width="2" x1="309.205" y1="253.645" x2="318.58" y2="263.02"/>
<line fill="none" stroke="#000000" stroke-width="2" x1="309.205" y1="253.645" x2="309.205" y2="244.27"/>
<line fill="none" stroke="#000000" stroke-width="2" x1="309.205" y1="244.27" x2="309.205" y2="239.583"/>
<text transform="matrix(1 0 0 1 50.3672 203.9995)" font-family="'MyriadPro-Regular'" font-size="22">Q</text>
<rect x="50.367" y="188.5" fill="none" stroke="#000000" width="43" height="43"/>
<text transform="matrix(1 0 0 1 50.3672 229.8345)" font-family="'MyriadPro-Regular'" font-size="12">0210</text>
<text transform="matrix(1 0 0 1 93.3672 203.9995)" font-family="'MyriadPro-Regular'" font-size="22">W</text>
<rect x="93.367" y="188.5" fill="none" stroke="#000000" width="43" height="43"/>
<text transform="matrix(1 0 0 1 93.3672 229.8345)" font-family="'MyriadPro-Regular'" font-size="12">0211</text>
<text transform="matrix(1 0 0 1 137.8672 204.9995)" font-family="'MyriadPro-Regular'" font-size="22">E</text>
<text transform="matrix(1 0 0 1 67.4062 257.3325)" font-family="'MyriadPro-Regular'" font-size="22">A</text>
<text transform="matrix(1 0 0 1 110.4062 257.3325)" font-family="'MyriadPro-Regular'" font-size="22">S</text>
<text transform="matrix(1 0 0 1 154.9062 258.3325)" font-family="'MyriadPro-Regular'" font-size="22">D</text>
<text transform="matrix(1 0 0 1 198.6289 257.8325)" font-family="'MyriadPro-Regular'" font-size="22">F</text>
<text transform="matrix(1 0 0 1 241.6289 257.8325)" font-family="'MyriadPro-Regular'" font-size="22">G</text>
<text transform="matrix(1 0 0 1 286.1289 258.8325)" font-family="'MyriadPro-Regular'" font-size="22">H</text>
<rect x="136.867" y="188.5" fill="none" stroke="#000000" width="43" height="43"/>
<rect x="65.219" y="240.168" fill="none" stroke="#000000" width="43" height="43"/>
<rect x="108.406" y="240.168" fill="none" stroke="#000000" width="43" height="43"/>
<rect x="151.406" y="240.168" fill="none" stroke="#000000" width="43" height="43"/>
<rect x="194.406" y="240.168" fill="none" stroke="#000000" width="43" height="43"/>
<rect x="237.594" y="240.168" fill="none" stroke="#000000" width="43" height="43"/>
<rect x="280.594" y="240.168" fill="none" stroke="#000000" width="43" height="43"/>
<text transform="matrix(1 0 0 1 136.8672 229.8345)" font-family="'MyriadPro-Regular'" font-size="12">0212</text>
<text transform="matrix(1 0 0 1 67.1562 279.8345)" font-family="'MyriadPro-Regular'" font-size="12">0220</text>
<text transform="matrix(1 0 0 1 110.1562 281.8345)" font-family="'MyriadPro-Regular'" font-size="12">0221</text>
<text transform="matrix(1 0 0 1 153.6562 279.8345)" font-family="'MyriadPro-Regular'" font-size="12">0222</text>
<text transform="matrix(1 0 0 1 195.6567 279.8345)" font-family="'MyriadPro-Regular'" font-size="12">0220</text>
<text transform="matrix(1 0 0 1 238.6567 279.8345)" font-family="'MyriadPro-Regular'" font-size="12">0221</text>
<text transform="matrix(1 0 0 1 282.1567 279.8345)" font-family="'MyriadPro-Regular'" font-size="12">0222</text>
<text transform="matrix(1 0 0 1 224.2051 204.9995)" font-family="'MyriadPro-Regular'" font-size="22">T</text>
<rect x="223.205" y="188.5" fill="none" stroke="#000000" width="43" height="43"/>
<text transform="matrix(1 0 0 1 223.2051 229.8345)" font-family="'MyriadPro-Regular'" font-size="12">0214</text>
<text transform="matrix(1 0 0 1 268.2051 205.0298)" font-family="'MyriadPro-Regular'" font-size="22">Y</text>
<rect x="266.205" y="188.53" fill="none" stroke="#000000" width="43" height="43"/>
<text transform="matrix(1 0 0 1 266.2051 229.8643)" font-family="'MyriadPro-Regular'" font-size="12">0215</text>
<text transform="matrix(1 0 0 1 311.2051 205)" font-family="'MyriadPro-Regular'" font-size="22">U</text>
<rect x="309.205" y="188.5" fill="none" stroke="#000000" width="43" height="43"/>
<text transform="matrix(1 0 0 1 309.2051 229.8345)" font-family="'MyriadPro-Regular'" font-size="12">0216</text>
<text transform="matrix(1 0 0 1 355.1172 205)" font-family="'MyriadPro-Regular'" font-size="22">I</text>
<rect x="353.117" y="188.5" fill="none" stroke="#000000" width="43" height="43"/>
<text transform="matrix(1 0 0 1 353.1172 229.8345)" font-family="'MyriadPro-Regular'" font-size="12">0217</text>
</svg>
