<?xml version="1.0" encoding="utf-8"?>
<!-- Generator: Adobe Illustrator 15.1.0, SVG Export Plug-In . SVG Version: 6.00 Build 0)  -->
<!DOCTYPE svg PUBLIC "-//W3C//DTD SVG 1.1//EN" "http://www.w3.org/Graphics/SVG/1.1/DTD/svg11.dtd">
<svg version="1.1" id="Layer_1" xmlns="http://www.w3.org/2000/svg" xmlns:xlink="http://www.w3.org/1999/xlink" x="0px" y="0px"
	 width="400px" height="600px" viewBox="0 0 400 600" enable-background="new 0 0 400 600" xml:space="preserve">
<line fill="none" stroke="#000000" stroke-width="2" x1="250" y1="450" x2="250" y2="340"/>
<line fill="none" stroke="#000000" stroke-width="2" x1="250" y1="450" x2="360" y2="450"/>
<line fill="none" stroke="#000000" stroke-width="2" x1="250" y1="450" x2="140" y2="450"/>
<circle fill="none" stroke="#000000" stroke-width="2" cx="250" cy="450" r="110"/>
<circle stroke="#000000" stroke-width="2" cx="250" cy="395" r="3"/>
<circle stroke="#000000" stroke-width="2" cx="250" cy="230" r="3"/>
<path fill="none" stroke="#000000" stroke-width="2" d="M250,450c-21-108-7-234,3-344"/>
<path fill="none" stroke="#000000" stroke-width="2" d="M130,464c-11-54-22-53-22-108"/>
<path fill="none" stroke="#000000" stroke-width="2" d="M108,356c0-28,26-44,110-248"/>
<path fill="none" stroke="#000000" stroke-width="2" d="M218,108c0-13-9-37-15-50"/>
<line fill="none" stroke="#000000" stroke-width="2" x1="251" y1="107" x2="224" y2="101"/>
<line fill="none" stroke="#000000" stroke-width="2" x1="224" y1="101" x2="223" y2="104"/>
</svg>
