<svg width="800" height="900" viewbox = "0 0 800 900"  xmlns="http://www.w3.org/2000/svg">

<!--
<json>
{
"shapes":[
    "0240:0336,0331,0331,0336,0332,0331,0331,0336,0331,0333,0333,0333,0334,0201,0201,0201,0335,0201,0201,0201,0201,0201,0201,0201,0201,0335,0201,0201,0201,0334,0201,0201,0201,0201,0201,0201,0201,0201,0201,0201,0201,0201,0201,0335,0201,0201,0201,0201,0201,0201,0201,0334,0334,0333,0333,0333,0201,0201,0201,0201,0201,0201,0201,0335,0201,0201,0201,0201,0201,0201,0201,0201,0201,0201,0332,0332,0332,0332,0332,0332,0335,0335,0201,0201,0201,0201,0201,0201,0201,0201,0201,0201,0201,0201,0201,0201,0201,0201,0201,0201,0201,0201,0201,0201,0336,0201,0335,0337,0337,0201,0201,0201,0201,0201,0201,0201,0201,0201,0201,0335,0335,0333,0336,0333,0330,0336,0333,0337,0337,0201,0201,0201,0201,0201,0201,0201,0201,0336,0201,0333,0350,0334,0343,0333,0335,0335,0335,0304,0201,0201,0201,0201,0201,0201,0335,0335,0330,0330,0330,0330,0330,0330,0337,0337,0330,0330,0330,0330,0330,0330,0336,0330,0336,0330,0333,0334,0337,0337,0337,0337,0342,0335,0335,0336,0336,0330,0336,0330,0337,0337,0342,0334,0336,0330,0332,0332,0336,0330,0326,0103,0122,0131,0123,0124,0101,0114,040,0104,0122,0111,0126,0105,0365,0320,0331,0331,0331,0333,0336,0331,0333,0123,0117,0125,0124,0110,0365,0331,0331,0104,0117,0117,0122,0365,0304,",
    "0241:0336,0336,0336,0336,0331,0331,0332,0337,0337,0201,0336,0201,0336,0201,0334,0201,0201,0335,0337,0337,0201,0201,0201,0201,0201,0336,0201,0336,0201,0337,0337,0350,0334,0201,0334,0337,0201,0201,0336,0336,0201,0334,0337,0337,0201,0331,0335,0331,0331,0336,0336,0331,0335,0337,0331,0335,0304,0333,0333,0333,0350,0335,0201,0335,0337,0201,0201,0336,0331,0331,0331,0331,0334,0331,0334,0335,0335,0335,0335,0201,0201,0201,0201,0201,0334,0201,0335,0201,0336,0201,0334,0334,0201,0201,0201,0201,0201,0201,0335,0335,0335,0335,0337,0337,0330,0330,0304,0336,0330,0330,0336,0336,0330,0332,0337,0201,0201,0201,0201,0201,0201,0335,0201,0201,0201,0334,0201,0201,0334,0201,0201,0201,0335,0201,0201,0201,0201,0201,0201,0201,0201,0201,0201,0201,0201,0335,0335,0331,0333,0333,0333,0330,0336,0333,0330,0330,0337,0201,0201,0201,0201,0201,0201,0201,0201,0201,0201,0333,0350,0334,0343,0333,0335,0335,0335,0335,0334,0337,0304,0201,0335,0335,0333,0336,0333,0336,0333,0337,0337,0201,0336,0201,0336,0201,0336,0201,0335,0337,0336,0337,0337,0337,0337,0201,0201,0201,0201,0201,0334,0336,0336,0330,0330,0332,0332,0332,0332,0332,0332,0330,0330,0330,0330,0330,0332,0332,0330,0332,0330,0332,0330,0330,0330,0330,0330,0330,0330,0330,0330,0330,0330,0332,0326,0337,0330,0332,0332,0332,0332,0336,0103,0122,0131,0123,0124,0101,0114,040,0104,0122,0111,0126,0332,0332,0332,0332,0331,0337,0105,0365,0320,0336,0331,0333,0333,0333,0333,0331,0333,0333,0333,0333,0331,0116,0117,0122,0124,0110,0365,0331,0331,0104,0117,0117,0122,0365,",
    "0242:0330,0330,0332,0332,0336,0333,0336,0333,0330,0330,0335,0335,0337,0337,0201,0201,0201,0336,0336,0336,0201,0334,0337,0201,0336,0201,0335,0337,0337,0201,0201,0201,0336,0201,0336,0201,0335,0337,0337,0201,0201,0201,0201,0201,0335,0335,0333,0201,0201,0201,0201,0201,0201,0334,0336,0201,0336,0201,0335,0337,0337,0201,0201,0306,0350,0335,0201,0334,0201,0201,0201,0201,0334,0334,0334,0330,0334,0334,0334,0201,0201,0201,0201,0335,0201,0334,0201,0304,0201,0335,0201,0201,0201,0336,0201,0336,0201,0334,0201,0201,0201,0335,0337,0201,0201,0201,0201,0201,0201,0201,0201,0201,0201,0201,0201,0201,0201,0201,0336,0201,0335,0337,0337,0201,0201,0331,0331,0331,0334,0331,0331,0336,0336,0331,0337,0201,0201,0201,0201,0334,0201,0201,0201,0201,0201,0335,0337,0337,0331,0333,0333,0331,0331,0331,0331,0331,0330,0333,0336,0331,0332,0336,0123,0127,040,0103,0117,0122,0116,0105,0122,0365,0163,0331,0331,0331,0332,0332,0331,0331,0332,0332,0332,0332,0332,0332,0332,0332,0332,0332,0330,0336,0330,0330,0334,0310,0337,0201,0335,0335,0350,0334,0336,0342,0335,0335,0342,0334,0304,0124,0117,040,061,062,0124,0110,040,0337,0124,0117,040,0124,0125,0116,0116,0105,0114,0365,0334,0313,0333,0333,0333,0337,0333,0337,0333,0333,0330,0330,0333,0333,0330,0333,0330,",
    "0243:0336,0332,0330,0330,0333,0334,0201,0334,0201,0201,0336,0336,0201,0335,0201,0201,0201,0334,0337,0337,0201,0201,0336,0201,0334,0336,0201,0335,0201,0201,0201,0334,0337,0201,0201,0201,0201,0334,0201,0201,0335,0201,0201,0201,0201,0335,0201,0201,0201,0334,0201,0201,0201,0335,0201,0334,0201,0201,0201,0201,0335,0335,0332,0332,0332,0201,0201,0201,0201,0201,0201,0201,0201,0335,0201,0334,0201,0201,0201,0201,0201,0201,0201,0201,0334,0201,0201,0201,0201,0201,0201,0201,0201,0335,0335,0332,0332,0201,0201,0201,0201,0201,0201,0334,0201,0201,0201,0201,0201,0201,0335,0335,0332,0336,0332,0337,0337,0201,0201,0201,0336,0336,0201,0334,0337,0337,0201,0201,0201,0201,0201,0201,0336,0336,0201,0335,0337,0337,0201,0334,0201,0201,0201,0201,0333,0335,0335,0336,0336,0333,0337,0337,0201,0336,0201,0334,0201,0201,0201,0201,0335,0201,0201,0335,0201,0336,0201,0201,0335,0337,0337,0331,0331,0331,0331,0331,0331,0336,0332,0332,0336,0332,0336,0330,0337,0335,0337,0201,0201,0201,0335,0336,0201,0336,0201,0334,0337,0337,0201,0201,0201,0336,0201,0336,0201,0335,0337,0337,0201,0336,0336,0201,0335,0337,0337,0201,0201,0201,0201,0201,0201,0336,0201,0336,0201,0335,0337,0337,0201,0201,0334,0336,0330,0201,0334,0201,0201,0201,0201,0201,0334,0201,0334,0201,0201,0201,0201,0201,0337,0337,0333,0333,0333,0333,0333,0333,0333,0333,0331,0336,0115,0105,0124,0122,0117,0365,0331,0331,0105,0116,0124,0122,0101,0116,0103,0105,0365,",
    "0260:0336,0332,0332,0332,0332,0332,0240,0337,0337,0337,0337,0333,0333,0336,0331,0336,0333,0337,0333,0333,0241,0337,0337,0337,0331,0331,0331,0331,0331,0337,0331,0332,0332,0332,0332,0336,0336,0330,0330,0333,0333,0333,0333,0331,0332,0333,0337,0332,0331,0333,0333,0333,0333,0331,0331,0330,0332,0242,0337,0337,0333,0330,0336,0336,0243,"
],
"glyph":"0336,0332,0332,0332,0332,0332,0240,0337,0337,0337,0337,0333,0333,0336,0331,0336,0333,0337,0333,0333,0241,0337,0337,0337,0331,0331,0331,0331,0331,0337,0331,0332,0332,0332,0332,0336,0336,0330,0330,0333,0333,0333,0333,0331,0332,0333,0337,0332,0331,0333,0333,0333,0333,0331,0331,0330,0332,0242,0337,0337,0333,0330,0336,0336,0243,",
"w":800,
"h":900,
"x0":450,
"y0":400,
"x0rel":-2.33,
"y0rel":0.64,
"unit":100,
"imgurl":"",
"imgw":2,
"imgleft":-1,
"imgtop":-1
}

</json>
-->
    <line x1="206" y1="481" x2="200" y2="481" style="stroke:black;stroke-width:2" />
    <line x1="200" y1="481" x2="194" y2="481" style="stroke:black;stroke-width:2" />
    <line x1="194" y1="481" x2="188" y2="481" style="stroke:black;stroke-width:2" />
    <line x1="188" y1="481" x2="188" y2="475" style="stroke:black;stroke-width:2" />
    <line x1="188" y1="475" x2="188" y2="469" style="stroke:black;stroke-width:2" />
    <line x1="188" y1="469" x2="188" y2="463" style="stroke:black;stroke-width:2" />
    <line x1="188" y1="463" x2="188" y2="456" style="stroke:black;stroke-width:2" />
    <line x1="188" y1="456" x2="188" y2="450" style="stroke:black;stroke-width:2" />
    <line x1="188" y1="450" x2="188" y2="444" style="stroke:black;stroke-width:2" />
    <line x1="188" y1="444" x2="188" y2="438" style="stroke:black;stroke-width:2" />
    <line x1="188" y1="438" x2="188" y2="431" style="stroke:black;stroke-width:2" />
    <line x1="188" y1="431" x2="194" y2="431" style="stroke:black;stroke-width:2" />
    <line x1="194" y1="431" x2="200" y2="431" style="stroke:black;stroke-width:2" />
    <line x1="200" y1="431" x2="206" y2="431" style="stroke:black;stroke-width:2" />
    <line x1="206" y1="431" x2="206" y2="425" style="stroke:black;stroke-width:2" />
    <line x1="206" y1="425" x2="206" y2="419" style="stroke:black;stroke-width:2" />
    <line x1="206" y1="419" x2="206" y2="413" style="stroke:black;stroke-width:2" />
    <line x1="206" y1="413" x2="206" y2="406" style="stroke:black;stroke-width:2" />
    <line x1="206" y1="406" x2="206" y2="400" style="stroke:black;stroke-width:2" />
    <line x1="206" y1="400" x2="206" y2="394" style="stroke:black;stroke-width:2" />
    <line x1="206" y1="394" x2="206" y2="388" style="stroke:black;stroke-width:2" />
    <line x1="206" y1="388" x2="206" y2="381" style="stroke:black;stroke-width:2" />
    <line x1="206" y1="381" x2="206" y2="375" style="stroke:black;stroke-width:2" />
    <line x1="206" y1="375" x2="206" y2="369" style="stroke:black;stroke-width:2" />
    <line x1="206" y1="369" x2="206" y2="363" style="stroke:black;stroke-width:2" />
    <line x1="206" y1="363" x2="206" y2="356" style="stroke:black;stroke-width:2" />
    <line x1="206" y1="356" x2="206" y2="350" style="stroke:black;stroke-width:2" />
    <line x1="206" y1="350" x2="213" y2="350" style="stroke:black;stroke-width:2" />
    <line x1="213" y1="350" x2="219" y2="350" style="stroke:black;stroke-width:2" />
    <line x1="219" y1="350" x2="225" y2="350" style="stroke:black;stroke-width:2" />
    <line x1="225" y1="350" x2="231" y2="350" style="stroke:black;stroke-width:2" />
    <line x1="231" y1="350" x2="238" y2="350" style="stroke:black;stroke-width:2" />
    <line x1="238" y1="350" x2="244" y2="350" style="stroke:black;stroke-width:2" />
    <line x1="244" y1="350" x2="250" y2="350" style="stroke:black;stroke-width:2" />
    <line x1="250" y1="331" x2="244" y2="331" style="stroke:black;stroke-width:2" />
    <line x1="244" y1="331" x2="238" y2="331" style="stroke:black;stroke-width:2" />
    <line x1="238" y1="331" x2="231" y2="331" style="stroke:black;stroke-width:2" />
    <line x1="231" y1="331" x2="225" y2="331" style="stroke:black;stroke-width:2" />
    <line x1="225" y1="331" x2="219" y2="331" style="stroke:black;stroke-width:2" />
    <line x1="219" y1="331" x2="213" y2="331" style="stroke:black;stroke-width:2" />
    <line x1="213" y1="331" x2="206" y2="331" style="stroke:black;stroke-width:2" />
    <line x1="206" y1="331" x2="206" y2="325" style="stroke:black;stroke-width:2" />
    <line x1="206" y1="325" x2="206" y2="319" style="stroke:black;stroke-width:2" />
    <line x1="206" y1="319" x2="206" y2="313" style="stroke:black;stroke-width:2" />
    <line x1="206" y1="313" x2="206" y2="306" style="stroke:black;stroke-width:2" />
    <line x1="206" y1="306" x2="206" y2="300" style="stroke:black;stroke-width:2" />
    <line x1="206" y1="300" x2="206" y2="294" style="stroke:black;stroke-width:2" />
    <line x1="206" y1="294" x2="206" y2="288" style="stroke:black;stroke-width:2" />
    <line x1="206" y1="288" x2="206" y2="281" style="stroke:black;stroke-width:2" />
    <line x1="206" y1="281" x2="206" y2="275" style="stroke:black;stroke-width:2" />
    <line x1="206" y1="275" x2="206" y2="269" style="stroke:black;stroke-width:2" />
    <line x1="169" y1="269" x2="169" y2="275" style="stroke:black;stroke-width:2" />
    <line x1="169" y1="275" x2="169" y2="281" style="stroke:black;stroke-width:2" />
    <line x1="169" y1="281" x2="169" y2="288" style="stroke:black;stroke-width:2" />
    <line x1="169" y1="288" x2="169" y2="294" style="stroke:black;stroke-width:2" />
    <line x1="169" y1="294" x2="169" y2="300" style="stroke:black;stroke-width:2" />
    <line x1="169" y1="300" x2="169" y2="306" style="stroke:black;stroke-width:2" />
    <line x1="169" y1="306" x2="169" y2="313" style="stroke:black;stroke-width:2" />
    <line x1="169" y1="313" x2="169" y2="319" style="stroke:black;stroke-width:2" />
    <line x1="169" y1="319" x2="169" y2="325" style="stroke:black;stroke-width:2" />
    <line x1="169" y1="325" x2="169" y2="331" style="stroke:black;stroke-width:2" />
    <line x1="169" y1="331" x2="169" y2="338" style="stroke:black;stroke-width:2" />
    <line x1="169" y1="338" x2="169" y2="344" style="stroke:black;stroke-width:2" />
    <line x1="169" y1="344" x2="169" y2="350" style="stroke:black;stroke-width:2" />
    <line x1="169" y1="350" x2="169" y2="356" style="stroke:black;stroke-width:2" />
    <line x1="169" y1="356" x2="169" y2="363" style="stroke:black;stroke-width:2" />
    <line x1="169" y1="363" x2="169" y2="369" style="stroke:black;stroke-width:2" />
    <line x1="169" y1="369" x2="169" y2="375" style="stroke:black;stroke-width:2" />
    <line x1="169" y1="375" x2="169" y2="381" style="stroke:black;stroke-width:2" />
    <line x1="169" y1="381" x2="169" y2="388" style="stroke:black;stroke-width:2" />
    <line x1="169" y1="388" x2="169" y2="394" style="stroke:black;stroke-width:2" />
    <line x1="169" y1="394" x2="169" y2="400" style="stroke:black;stroke-width:2" />
    <line x1="169" y1="400" x2="169" y2="406" style="stroke:black;stroke-width:2" />
    <line x1="169" y1="406" x2="169" y2="409" style="stroke:black;stroke-width:2" />
    <line x1="169" y1="409" x2="156" y2="409" style="stroke:black;stroke-width:2" />
    <line x1="156" y1="409" x2="144" y2="409" style="stroke:black;stroke-width:2" />
    <line x1="144" y1="409" x2="131" y2="409" style="stroke:black;stroke-width:2" />
    <line x1="131" y1="409" x2="119" y2="409" style="stroke:black;stroke-width:2" />
    <line x1="119" y1="409" x2="106" y2="409" style="stroke:black;stroke-width:2" />
    <line x1="106" y1="409" x2="94" y2="409" style="stroke:black;stroke-width:2" />
    <line x1="94" y1="409" x2="81" y2="409" style="stroke:black;stroke-width:2" />
    <line x1="81" y1="409" x2="69" y2="409" style="stroke:black;stroke-width:2" />
    <line x1="69" y1="409" x2="56" y2="409" style="stroke:black;stroke-width:2" />
    <line x1="56" y1="409" x2="44" y2="409" style="stroke:black;stroke-width:2" />
    <line x1="50" y1="431" x2="63" y2="431" style="stroke:black;stroke-width:2" />
    <line x1="63" y1="431" x2="75" y2="431" style="stroke:black;stroke-width:2" />
    <line x1="75" y1="431" x2="88" y2="431" style="stroke:black;stroke-width:2" />
    <line x1="88" y1="431" x2="100" y2="431" style="stroke:black;stroke-width:2" />
    <line x1="100" y1="431" x2="113" y2="431" style="stroke:black;stroke-width:2" />
    <line x1="113" y1="431" x2="125" y2="431" style="stroke:black;stroke-width:2" />
    <line x1="125" y1="431" x2="138" y2="431" style="stroke:black;stroke-width:2" />
    <line x1="138" y1="431" x2="150" y2="431" style="stroke:black;stroke-width:2" />
    <line x1="150" y1="431" x2="156" y2="431" style="stroke:black;stroke-width:2" />
  <path d="M156.25 431.25           A6.25 6.25 0 0 1 162.5 437.5" fill = "none" stroke = "black" stroke-width = "2" />
    <line x1="163" y1="438" x2="163" y2="444" style="stroke:black;stroke-width:2" />
    <line x1="163" y1="444" x2="163" y2="450" style="stroke:black;stroke-width:2" />
    <line x1="163" y1="450" x2="163" y2="456" style="stroke:black;stroke-width:2" />
    <line x1="163" y1="456" x2="163" y2="463" style="stroke:black;stroke-width:2" />
    <line x1="163" y1="463" x2="163" y2="469" style="stroke:black;stroke-width:2" />
    <line x1="163" y1="469" x2="163" y2="475" style="stroke:black;stroke-width:2" />
    <line x1="169" y1="269" x2="69" y2="269" style="stroke:black;stroke-width:2" />
    <line x1="206" y1="269" x2="256" y2="269" style="stroke:black;stroke-width:2" />
    <text x="156" y = "231" fill = "blue" font-size = "12.5px" font-family = "futura">CRYSTAL DRIVE</text>
    <text x="175" y = "275" fill = "black" font-size = "6.25px" font-family = "futura">SOUTH</text>
    <text x="175" y = "288" fill = "black" font-size = "6.25px" font-family = "futura">DOOR</text>
    <line x1="497" y1="344" x2="497" y2="331" style="stroke:black;stroke-width:2" />
    <line x1="497" y1="331" x2="497" y2="325" style="stroke:black;stroke-width:2" />
    <line x1="497" y1="325" x2="497" y2="322" style="stroke:black;stroke-width:2" />
    <line x1="497" y1="322" x2="494" y2="322" style="stroke:black;stroke-width:2" />
    <line x1="494" y1="322" x2="491" y2="322" style="stroke:black;stroke-width:2" />
    <line x1="491" y1="322" x2="491" y2="309" style="stroke:black;stroke-width:2" />
    <line x1="491" y1="309" x2="491" y2="297" style="stroke:black;stroke-width:2" />
    <line x1="491" y1="297" x2="491" y2="284" style="stroke:black;stroke-width:2" />
    <line x1="491" y1="284" x2="491" y2="272" style="stroke:black;stroke-width:2" />
    <line x1="491" y1="272" x2="491" y2="259" style="stroke:black;stroke-width:2" />
    <line x1="491" y1="259" x2="491" y2="253" style="stroke:black;stroke-width:2" />
    <line x1="491" y1="253" x2="491" y2="250" style="stroke:black;stroke-width:2" />
    <line x1="491" y1="250" x2="482" y2="241" style="stroke:black;stroke-width:2" />
    <line x1="482" y1="241" x2="457" y2="241" style="stroke:black;stroke-width:2" />
    <line x1="457" y1="241" x2="432" y2="241" style="stroke:black;stroke-width:2" />
    <line x1="432" y1="241" x2="426" y2="241" style="stroke:black;stroke-width:2" />
    <line x1="426" y1="241" x2="408" y2="259" style="stroke:black;stroke-width:2" />
    <line x1="528" y1="250" x2="537" y2="241" style="stroke:black;stroke-width:2" />
    <line x1="537" y1="241" x2="562" y2="241" style="stroke:black;stroke-width:2" />
    <line x1="562" y1="241" x2="587" y2="241" style="stroke:black;stroke-width:2" />
    <line x1="528" y1="250" x2="528" y2="263" style="stroke:black;stroke-width:2" />
    <line x1="528" y1="263" x2="528" y2="275" style="stroke:black;stroke-width:2" />
    <line x1="528" y1="275" x2="528" y2="288" style="stroke:black;stroke-width:2" />
    <line x1="528" y1="288" x2="528" y2="300" style="stroke:black;stroke-width:2" />
    <line x1="528" y1="300" x2="528" y2="313" style="stroke:black;stroke-width:2" />
    <line x1="528" y1="313" x2="537" y2="321" style="stroke:black;stroke-width:2" />
    <line x1="537" y1="321" x2="537" y2="334" style="stroke:black;stroke-width:2" />
    <line x1="537" y1="334" x2="537" y2="340" style="stroke:black;stroke-width:2" />
    <line x1="537" y1="340" x2="543" y2="340" style="stroke:black;stroke-width:2" />
    <line x1="543" y1="340" x2="549" y2="340" style="stroke:black;stroke-width:2" />
    <line x1="549" y1="340" x2="556" y2="340" style="stroke:black;stroke-width:2" />
    <line x1="556" y1="340" x2="562" y2="340" style="stroke:black;stroke-width:2" />
    <line x1="562" y1="340" x2="568" y2="340" style="stroke:black;stroke-width:2" />
    <line x1="568" y1="340" x2="574" y2="340" style="stroke:black;stroke-width:2" />
    <line x1="496" y1="343" x2="490" y2="343" style="stroke:black;stroke-width:2" />
    <line x1="490" y1="343" x2="484" y2="343" style="stroke:black;stroke-width:2" />
    <line x1="484" y1="343" x2="478" y2="343" style="stroke:black;stroke-width:2" />
    <line x1="478" y1="343" x2="471" y2="343" style="stroke:black;stroke-width:2" />
    <line x1="471" y1="343" x2="465" y2="343" style="stroke:black;stroke-width:2" />
    <line x1="465" y1="343" x2="459" y2="343" style="stroke:black;stroke-width:2" />
    <line x1="459" y1="343" x2="459" y2="337" style="stroke:black;stroke-width:2" />
    <line x1="459" y1="337" x2="459" y2="331" style="stroke:black;stroke-width:2" />
    <line x1="459" y1="331" x2="459" y2="324" style="stroke:black;stroke-width:2" />
    <line x1="459" y1="324" x2="453" y2="324" style="stroke:black;stroke-width:2" />
    <line x1="453" y1="324" x2="446" y2="324" style="stroke:black;stroke-width:2" />
    <line x1="446" y1="324" x2="446" y2="331" style="stroke:black;stroke-width:2" />
    <line x1="446" y1="331" x2="446" y2="337" style="stroke:black;stroke-width:2" />
    <line x1="446" y1="337" x2="446" y2="343" style="stroke:black;stroke-width:2" />
    <line x1="446" y1="343" x2="440" y2="343" style="stroke:black;stroke-width:2" />
    <line x1="440" y1="343" x2="434" y2="343" style="stroke:black;stroke-width:2" />
    <line x1="434" y1="343" x2="428" y2="343" style="stroke:black;stroke-width:2" />
    <line x1="428" y1="343" x2="421" y2="343" style="stroke:black;stroke-width:2" />
    <line x1="421" y1="343" x2="415" y2="343" style="stroke:black;stroke-width:2" />
    <line x1="415" y1="343" x2="409" y2="343" style="stroke:black;stroke-width:2" />
    <line x1="409" y1="343" x2="403" y2="343" style="stroke:black;stroke-width:2" />
    <line x1="403" y1="343" x2="396" y2="343" style="stroke:black;stroke-width:2" />
    <line x1="396" y1="343" x2="390" y2="343" style="stroke:black;stroke-width:2" />
    <line x1="390" y1="343" x2="384" y2="343" style="stroke:black;stroke-width:2" />
    <line x1="384" y1="343" x2="378" y2="343" style="stroke:black;stroke-width:2" />
    <line x1="378" y1="343" x2="371" y2="343" style="stroke:black;stroke-width:2" />
    <line x1="378" y1="365" x2="384" y2="365" style="stroke:black;stroke-width:2" />
    <line x1="384" y1="365" x2="390" y2="365" style="stroke:black;stroke-width:2" />
    <line x1="390" y1="365" x2="396" y2="365" style="stroke:black;stroke-width:2" />
    <line x1="396" y1="365" x2="403" y2="365" style="stroke:black;stroke-width:2" />
    <line x1="403" y1="365" x2="409" y2="365" style="stroke:black;stroke-width:2" />
    <line x1="409" y1="365" x2="415" y2="365" style="stroke:black;stroke-width:2" />
    <line x1="415" y1="365" x2="421" y2="365" style="stroke:black;stroke-width:2" />
    <line x1="421" y1="365" x2="428" y2="365" style="stroke:black;stroke-width:2" />
    <line x1="428" y1="365" x2="434" y2="365" style="stroke:black;stroke-width:2" />
    <line x1="434" y1="365" x2="440" y2="365" style="stroke:black;stroke-width:2" />
  <path d="M440.088834764831 365.08883476483084           A6.25 6.25 0 0 1 446.33883476483095 371.3388347648309" fill = "none" stroke = "black" stroke-width = "2" />
    <line x1="446" y1="371" x2="446" y2="384" style="stroke:black;stroke-width:2" />
    <line x1="468" y1="384" x2="468" y2="371" style="stroke:black;stroke-width:2" />
    <line x1="468" y1="371" x2="468" y2="365" style="stroke:black;stroke-width:2" />
    <line x1="468" y1="365" x2="468" y2="362" style="stroke:black;stroke-width:2" />
    <line x1="468" y1="362" x2="468" y2="360" style="stroke:black;stroke-width:2" />
    <line x1="468" y1="360" x2="493" y2="360" style="stroke:black;stroke-width:2" />
    <line x1="493" y1="360" x2="518" y2="360" style="stroke:black;stroke-width:2" />
    <line x1="518" y1="360" x2="543" y2="360" style="stroke:black;stroke-width:2" />
    <line x1="543" y1="360" x2="568" y2="360" style="stroke:black;stroke-width:2" />
    <line x1="568" y1="360" x2="593" y2="360" style="stroke:black;stroke-width:2" />
    <text x="449" y = "229" fill = "blue" font-size = "12.5px" font-family = "futura">CRYSTAL DRIVE</text>
    <text x="499" y = "248" fill = "black" font-size = "6.25px" font-family = "futura">NORTH</text>
    <text x="499" y = "260" fill = "black" font-size = "6.25px" font-family = "futura">DOOR</text>
    <line x1="237" y1="560" x2="237" y2="610" style="stroke:black;stroke-width:2" />
    <line x1="237" y1="610" x2="237" y2="660" style="stroke:black;stroke-width:2" />
    <line x1="237" y1="660" x2="237" y2="710" style="stroke:black;stroke-width:2" />
    <line x1="237" y1="710" x2="237" y2="717" style="stroke:black;stroke-width:2" />
    <line x1="237" y1="717" x2="249" y2="717" style="stroke:black;stroke-width:2" />
    <line x1="249" y1="717" x2="256" y2="717" style="stroke:black;stroke-width:2" />
    <line x1="256" y1="717" x2="256" y2="742" style="stroke:black;stroke-width:2" />
    <line x1="256" y1="742" x2="256" y2="767" style="stroke:black;stroke-width:2" />
    <line x1="256" y1="767" x2="256" y2="792" style="stroke:black;stroke-width:2" />
    <line x1="256" y1="792" x2="256" y2="804" style="stroke:black;stroke-width:2" />
    <line x1="256" y1="804" x2="256" y2="810" style="stroke:black;stroke-width:2" />
    <line x1="256" y1="810" x2="231" y2="810" style="stroke:black;stroke-width:2" />
    <line x1="231" y1="810" x2="206" y2="810" style="stroke:black;stroke-width:2" />
    <line x1="206" y1="810" x2="181" y2="810" style="stroke:black;stroke-width:2" />
    <line x1="181" y1="810" x2="156" y2="810" style="stroke:black;stroke-width:2" />
    <line x1="156" y1="810" x2="131" y2="810" style="stroke:black;stroke-width:2" />
    <line x1="131" y1="835" x2="156" y2="835" style="stroke:black;stroke-width:2" />
    <line x1="156" y1="835" x2="181" y2="835" style="stroke:black;stroke-width:2" />
    <line x1="181" y1="835" x2="206" y2="835" style="stroke:black;stroke-width:2" />
    <line x1="206" y1="835" x2="231" y2="835" style="stroke:black;stroke-width:2" />
    <line x1="231" y1="835" x2="256" y2="835" style="stroke:black;stroke-width:2" />
    <line x1="256" y1="835" x2="281" y2="835" style="stroke:black;stroke-width:2" />
    <line x1="281" y1="835" x2="281" y2="823" style="stroke:black;stroke-width:2" />
    <line x1="281" y1="823" x2="281" y2="817" style="stroke:black;stroke-width:2" />
    <line x1="281" y1="817" x2="306" y2="817" style="stroke:black;stroke-width:2" />
    <line x1="306" y1="817" x2="331" y2="817" style="stroke:black;stroke-width:2" />
    <line x1="331" y1="817" x2="352" y2="829" style="stroke:black;stroke-width:2" />
    <line x1="352" y1="829" x2="377" y2="829" style="stroke:black;stroke-width:2" />
    <line x1="377" y1="829" x2="402" y2="829" style="stroke:black;stroke-width:2" />
    <line x1="402" y1="829" x2="427" y2="829" style="stroke:black;stroke-width:2" />
    <line x1="427" y1="829" x2="452" y2="829" style="stroke:black;stroke-width:2" />
    <line x1="452" y1="804" x2="427" y2="804" style="stroke:black;stroke-width:2" />
    <line x1="427" y1="804" x2="402" y2="804" style="stroke:black;stroke-width:2" />
    <line x1="402" y1="804" x2="377" y2="804" style="stroke:black;stroke-width:2" />
    <line x1="377" y1="804" x2="352" y2="804" style="stroke:black;stroke-width:2" />
    <line x1="352" y1="804" x2="331" y2="792" style="stroke:black;stroke-width:2" />
    <line x1="331" y1="792" x2="306" y2="792" style="stroke:black;stroke-width:2" />
    <line x1="306" y1="792" x2="281" y2="792" style="stroke:black;stroke-width:2" />
    <line x1="281" y1="792" x2="281" y2="767" style="stroke:black;stroke-width:2" />
    <line x1="281" y1="767" x2="281" y2="742" style="stroke:black;stroke-width:2" />
    <line x1="281" y1="742" x2="281" y2="717" style="stroke:black;stroke-width:2" />
    <line x1="281" y1="717" x2="281" y2="704" style="stroke:black;stroke-width:2" />
    <line x1="281" y1="704" x2="281" y2="698" style="stroke:black;stroke-width:2" />
    <line x1="281" y1="698" x2="274" y2="698" style="stroke:black;stroke-width:2" />
    <line x1="274" y1="698" x2="268" y2="698" style="stroke:black;stroke-width:2" />
    <line x1="268" y1="698" x2="262" y2="698" style="stroke:black;stroke-width:2" />
    <line x1="262" y1="698" x2="262" y2="685" style="stroke:black;stroke-width:2" />
    <line x1="262" y1="685" x2="262" y2="673" style="stroke:black;stroke-width:2" />
    <line x1="262" y1="673" x2="262" y2="660" style="stroke:black;stroke-width:2" />
    <line x1="262" y1="660" x2="262" y2="648" style="stroke:black;stroke-width:2" />
    <line x1="262" y1="648" x2="262" y2="635" style="stroke:black;stroke-width:2" />
    <line x1="262" y1="635" x2="262" y2="623" style="stroke:black;stroke-width:2" />
    <line x1="262" y1="623" x2="262" y2="610" style="stroke:black;stroke-width:2" />
    <line x1="262" y1="610" x2="262" y2="598" style="stroke:black;stroke-width:2" />
    <line x1="262" y1="598" x2="262" y2="585" style="stroke:black;stroke-width:2" />
    <line x1="262" y1="585" x2="262" y2="573" style="stroke:black;stroke-width:2" />
    <line x1="262" y1="573" x2="262" y2="560" style="stroke:black;stroke-width:2" />
    <line x1="262" y1="560" x2="262" y2="548" style="stroke:black;stroke-width:2" />
    <line x1="262" y1="548" x2="262" y2="535" style="stroke:black;stroke-width:2" />
    <line x1="262" y1="535" x2="262" y2="523" style="stroke:black;stroke-width:2" />
    <line x1="262" y1="523" x2="262" y2="510" style="stroke:black;stroke-width:2" />
    <line x1="262" y1="510" x2="262" y2="504" style="stroke:black;stroke-width:2" />
    <line x1="262" y1="504" x2="287" y2="504" style="stroke:black;stroke-width:2" />
    <line x1="287" y1="504" x2="312" y2="504" style="stroke:black;stroke-width:2" />
    <line x1="237" y1="560" x2="237" y2="548" style="stroke:black;stroke-width:2" />
    <line x1="237" y1="548" x2="237" y2="535" style="stroke:black;stroke-width:2" />
    <line x1="237" y1="535" x2="237" y2="523" style="stroke:black;stroke-width:2" />
    <line x1="237" y1="523" x2="237" y2="510" style="stroke:black;stroke-width:2" />
    <line x1="237" y1="510" x2="224" y2="510" style="stroke:black;stroke-width:2" />
    <line x1="224" y1="510" x2="212" y2="510" style="stroke:black;stroke-width:2" />
    <line x1="212" y1="510" x2="199" y2="510" style="stroke:black;stroke-width:2" />
    <line x1="199" y1="510" x2="187" y2="510" style="stroke:black;stroke-width:2" />
    <line x1="187" y1="510" x2="174" y2="510" style="stroke:black;stroke-width:2" />
    <text x="299" y = "785" fill = "black" font-size = "12.5px" font-family = "futura">SW CORNER</text>
    <line x1="149" y1="823" x2="141" y2="823" style="stroke:black;stroke-width:2" />
    <line x1="141" y1="823" x2="145" y2="818" style="stroke:black;stroke-width:2" />
    <line x1="141" y1="823" x2="145" y2="827" style="stroke:black;stroke-width:2" />
    <text x="141" y = "823" fill = "black" font-size = "8.838834764831844px" font-family = "futura">sTO 12TH TO TUNNEL</text>
    <line x1="503" y1="505" x2="485" y2="505" style="stroke:black;stroke-width:2" />
    <line x1="485" y1="505" x2="485" y2="522" style="stroke:black;stroke-width:2" />
    <line x1="485" y1="522" x2="485" y2="540" style="stroke:black;stroke-width:2" />
    <line x1="485" y1="540" x2="485" y2="544" style="stroke:black;stroke-width:2" />
    <line x1="485" y1="544" x2="481" y2="544" style="stroke:black;stroke-width:2" />
    <line x1="481" y1="544" x2="477" y2="544" style="stroke:black;stroke-width:2" />
    <line x1="477" y1="544" x2="472" y2="544" style="stroke:black;stroke-width:2" />
    <line x1="472" y1="544" x2="472" y2="562" style="stroke:black;stroke-width:2" />
    <line x1="472" y1="562" x2="472" y2="580" style="stroke:black;stroke-width:2" />
    <line x1="472" y1="580" x2="472" y2="589" style="stroke:black;stroke-width:2" />
    <line x1="472" y1="589" x2="477" y2="589" style="stroke:black;stroke-width:2" />
    <line x1="477" y1="589" x2="477" y2="593" style="stroke:black;stroke-width:2" />
    <line x1="477" y1="593" x2="477" y2="598" style="stroke:black;stroke-width:2" />
    <line x1="477" y1="598" x2="477" y2="602" style="stroke:black;stroke-width:2" />
    <line x1="477" y1="602" x2="485" y2="602" style="stroke:black;stroke-width:2" />
    <line x1="485" y1="602" x2="494" y2="602" style="stroke:black;stroke-width:2" />
    <line x1="494" y1="602" x2="503" y2="602" style="stroke:black;stroke-width:2" />
    <line x1="503" y1="602" x2="512" y2="602" style="stroke:black;stroke-width:2" />
    <line x1="512" y1="602" x2="512" y2="593" style="stroke:black;stroke-width:2" />
    <line x1="512" y1="593" x2="512" y2="584" style="stroke:black;stroke-width:2" />
    <line x1="512" y1="584" x2="521" y2="584" style="stroke:black;stroke-width:2" />
    <line x1="521" y1="584" x2="530" y2="584" style="stroke:black;stroke-width:2" />
    <line x1="530" y1="584" x2="538" y2="584" style="stroke:black;stroke-width:2" />
    <line x1="538" y1="584" x2="547" y2="584" style="stroke:black;stroke-width:2" />
    <line x1="547" y1="584" x2="547" y2="593" style="stroke:black;stroke-width:2" />
    <line x1="547" y1="593" x2="547" y2="602" style="stroke:black;stroke-width:2" />
    <line x1="547" y1="602" x2="547" y2="611" style="stroke:black;stroke-width:2" />
    <line x1="547" y1="611" x2="556" y2="611" style="stroke:black;stroke-width:2" />
    <line x1="556" y1="611" x2="565" y2="611" style="stroke:black;stroke-width:2" />
    <line x1="565" y1="611" x2="574" y2="611" style="stroke:black;stroke-width:2" />
    <line x1="574" y1="611" x2="574" y2="620" style="stroke:black;stroke-width:2" />
    <line x1="574" y1="620" x2="583" y2="620" style="stroke:black;stroke-width:2" />
    <line x1="583" y1="620" x2="591" y2="620" style="stroke:black;stroke-width:2" />
    <line x1="591" y1="620" x2="600" y2="620" style="stroke:black;stroke-width:2" />
    <line x1="600" y1="620" x2="609" y2="620" style="stroke:black;stroke-width:2" />
    <line x1="609" y1="646" x2="600" y2="646" style="stroke:black;stroke-width:2" />
    <line x1="600" y1="646" x2="591" y2="646" style="stroke:black;stroke-width:2" />
    <line x1="591" y1="646" x2="583" y2="646" style="stroke:black;stroke-width:2" />
    <line x1="583" y1="646" x2="574" y2="646" style="stroke:black;stroke-width:2" />
    <line x1="574" y1="646" x2="565" y2="646" style="stroke:black;stroke-width:2" />
    <line x1="565" y1="646" x2="556" y2="646" style="stroke:black;stroke-width:2" />
    <line x1="556" y1="646" x2="547" y2="646" style="stroke:black;stroke-width:2" />
    <line x1="547" y1="646" x2="538" y2="646" style="stroke:black;stroke-width:2" />
    <line x1="538" y1="646" x2="538" y2="637" style="stroke:black;stroke-width:2" />
    <line x1="538" y1="637" x2="530" y2="637" style="stroke:black;stroke-width:2" />
    <line x1="530" y1="637" x2="521" y2="637" style="stroke:black;stroke-width:2" />
    <line x1="521" y1="637" x2="512" y2="637" style="stroke:black;stroke-width:2" />
    <line x1="512" y1="637" x2="503" y2="637" style="stroke:black;stroke-width:2" />
    <line x1="503" y1="637" x2="494" y2="637" style="stroke:black;stroke-width:2" />
    <line x1="494" y1="637" x2="485" y2="637" style="stroke:black;stroke-width:2" />
    <line x1="485" y1="637" x2="477" y2="637" style="stroke:black;stroke-width:2" />
    <line x1="477" y1="637" x2="468" y2="637" style="stroke:black;stroke-width:2" />
    <line x1="468" y1="637" x2="468" y2="646" style="stroke:black;stroke-width:2" />
    <line x1="468" y1="646" x2="468" y2="655" style="stroke:black;stroke-width:2" />
    <line x1="468" y1="655" x2="468" y2="664" style="stroke:black;stroke-width:2" />
    <line x1="468" y1="664" x2="468" y2="673" style="stroke:black;stroke-width:2" />
    <line x1="468" y1="673" x2="468" y2="681" style="stroke:black;stroke-width:2" />
    <line x1="468" y1="681" x2="468" y2="690" style="stroke:black;stroke-width:2" />
    <line x1="468" y1="690" x2="468" y2="699" style="stroke:black;stroke-width:2" />
    <line x1="468" y1="699" x2="468" y2="708" style="stroke:black;stroke-width:2" />
    <line x1="450" y1="708" x2="450" y2="699" style="stroke:black;stroke-width:2" />
    <line x1="450" y1="699" x2="450" y2="690" style="stroke:black;stroke-width:2" />
    <line x1="450" y1="690" x2="450" y2="681" style="stroke:black;stroke-width:2" />
    <line x1="450" y1="681" x2="450" y2="673" style="stroke:black;stroke-width:2" />
    <line x1="450" y1="673" x2="450" y2="664" style="stroke:black;stroke-width:2" />
    <line x1="450" y1="664" x2="450" y2="655" style="stroke:black;stroke-width:2" />
    <line x1="450" y1="655" x2="441" y2="655" style="stroke:black;stroke-width:2" />
    <line x1="441" y1="655" x2="432" y2="655" style="stroke:black;stroke-width:2" />
    <line x1="432" y1="655" x2="423" y2="655" style="stroke:black;stroke-width:2" />
    <line x1="423" y1="655" x2="415" y2="655" style="stroke:black;stroke-width:2" />
    <line x1="415" y1="655" x2="406" y2="655" style="stroke:black;stroke-width:2" />
    <line x1="406" y1="655" x2="397" y2="655" style="stroke:black;stroke-width:2" />
    <line x1="397" y1="642" x2="415" y2="642" style="stroke:black;stroke-width:2" />
    <line x1="415" y1="642" x2="432" y2="642" style="stroke:black;stroke-width:2" />
    <line x1="432" y1="642" x2="450" y2="642" style="stroke:black;stroke-width:2" />
    <line x1="450" y1="642" x2="454" y2="642" style="stroke:black;stroke-width:2" />
    <line x1="454" y1="642" x2="454" y2="624" style="stroke:black;stroke-width:2" />
    <line x1="454" y1="624" x2="454" y2="606" style="stroke:black;stroke-width:2" />
    <line x1="454" y1="606" x2="454" y2="589" style="stroke:black;stroke-width:2" />
    <line x1="454" y1="589" x2="454" y2="571" style="stroke:black;stroke-width:2" />
    <line x1="454" y1="571" x2="454" y2="553" style="stroke:black;stroke-width:2" />
    <line x1="454" y1="553" x2="454" y2="536" style="stroke:black;stroke-width:2" />
    <line x1="454" y1="536" x2="454" y2="531" style="stroke:black;stroke-width:2" />
    <line x1="454" y1="531" x2="472" y2="531" style="stroke:black;stroke-width:2" />
    <line x1="472" y1="531" x2="472" y2="514" style="stroke:black;stroke-width:2" />
    <line x1="472" y1="514" x2="472" y2="496" style="stroke:black;stroke-width:2" />
    <line x1="472" y1="496" x2="472" y2="478" style="stroke:black;stroke-width:2" />
    <line x1="472" y1="478" x2="472" y2="461" style="stroke:black;stroke-width:2" />
    <line x1="485" y1="461" x2="485" y2="478" style="stroke:black;stroke-width:2" />
    <line x1="485" y1="478" x2="485" y2="487" style="stroke:black;stroke-width:2" />
    <line x1="485" y1="487" x2="494" y2="487" style="stroke:black;stroke-width:2" />
    <line x1="494" y1="487" x2="503" y2="487" style="stroke:black;stroke-width:2" />
    <line x1="503" y1="487" x2="512" y2="487" style="stroke:black;stroke-width:2" />
    <line x1="512" y1="487" x2="521" y2="487" style="stroke:black;stroke-width:2" />
    <line x1="521" y1="487" x2="521" y2="496" style="stroke:black;stroke-width:2" />
    <line x1="521" y1="496" x2="521" y2="505" style="stroke:black;stroke-width:2" />
    <line x1="521" y1="505" x2="512" y2="505" style="stroke:black;stroke-width:2" />
    <line x1="512" y1="505" x2="507" y2="505" style="stroke:black;stroke-width:2" />
    <line x1="507" y1="505" x2="503" y2="505" style="stroke:black;stroke-width:2" />
    <line x1="481" y1="609" x2="490" y2="609" style="stroke:black;stroke-width:2" />
    <line x1="490" y1="609" x2="499" y2="609" style="stroke:black;stroke-width:2" />
    <line x1="499" y1="609" x2="507" y2="609" style="stroke:black;stroke-width:2" />
    <line x1="507" y1="609" x2="507" y2="613" style="stroke:black;stroke-width:2" />
    <line x1="507" y1="613" x2="507" y2="615" style="stroke:black;stroke-width:2" />
    <line x1="507" y1="615" x2="516" y2="615" style="stroke:black;stroke-width:2" />
    <line x1="516" y1="615" x2="525" y2="615" style="stroke:black;stroke-width:2" />
    <line x1="525" y1="615" x2="534" y2="615" style="stroke:black;stroke-width:2" />
    <line x1="534" y1="615" x2="538" y2="615" style="stroke:black;stroke-width:2" />
    <line x1="538" y1="615" x2="541" y2="615" style="stroke:black;stroke-width:2" />
    <line x1="541" y1="615" x2="541" y2="624" style="stroke:black;stroke-width:2" />
    <line x1="541" y1="624" x2="541" y2="626" style="stroke:black;stroke-width:2" />
    <line x1="541" y1="626" x2="532" y2="626" style="stroke:black;stroke-width:2" />
    <line x1="532" y1="626" x2="523" y2="626" style="stroke:black;stroke-width:2" />
    <line x1="523" y1="626" x2="514" y2="626" style="stroke:black;stroke-width:2" />
    <line x1="514" y1="626" x2="505" y2="626" style="stroke:black;stroke-width:2" />
    <line x1="505" y1="626" x2="496" y2="626" style="stroke:black;stroke-width:2" />
    <line x1="496" y1="626" x2="488" y2="626" style="stroke:black;stroke-width:2" />
    <line x1="488" y1="626" x2="483" y2="626" style="stroke:black;stroke-width:2" />
    <line x1="483" y1="626" x2="481" y2="626" style="stroke:black;stroke-width:2" />
    <line x1="481" y1="626" x2="481" y2="617" style="stroke:black;stroke-width:2" />
    <line x1="481" y1="617" x2="481" y2="609" style="stroke:black;stroke-width:2" />
    <line x1="477" y1="609" x2="472" y2="609" style="stroke:black;stroke-width:2" />
    <line x1="472" y1="609" x2="472" y2="613" style="stroke:black;stroke-width:2" />
    <line x1="472" y1="613" x2="472" y2="617" style="stroke:black;stroke-width:2" />
    <line x1="472" y1="617" x2="472" y2="622" style="stroke:black;stroke-width:2" />
    <line x1="472" y1="622" x2="472" y2="626" style="stroke:black;stroke-width:2" />
    <line x1="472" y1="626" x2="472" y2="631" style="stroke:black;stroke-width:2" />
    <line x1="472" y1="631" x2="477" y2="631" style="stroke:black;stroke-width:2" />
    <line x1="477" y1="631" x2="477" y2="626" style="stroke:black;stroke-width:2" />
    <line x1="477" y1="626" x2="477" y2="622" style="stroke:black;stroke-width:2" />
    <line x1="477" y1="622" x2="477" y2="617" style="stroke:black;stroke-width:2" />
    <line x1="477" y1="617" x2="477" y2="613" style="stroke:black;stroke-width:2" />
    <line x1="477" y1="613" x2="477" y2="609" style="stroke:black;stroke-width:2" />
    <text x="618" y = "626" fill = "black" font-size = "8.838834764831844px" font-family = "futura">METRO</text>
    <text x="618" y = "644" fill = "black" font-size = "8.838834764831844px" font-family = "futura">ENTRANCE</text>
</svg>